<?xml version="1.0" standalone="no"?>
<!DOCTYPE svg PUBLIC "-//W3C//DTD SVG 1.1//EN" "http://www.w3.org/Graphics/SVG/1.1/DTD/svg11.dtd" >
<svg>
<metadata>
Created by FontForge 20090914 at Thu Oct  1 15:52:16 2020
 By www-data
&#194;&#169; 2013 Microsoft Corporation. All Rights Reserved.
</metadata>
<defs>
<font id="SegoeUIEmoji" horiz-adv-x="2048" >
  <font-face 
    font-family="Segoe UI Emoji"
    font-weight="400"
    font-stretch="normal"
    units-per-em="2048"
    panose-1="2 11 5 2 4 2 4 2 2 3"
    ascent="1638"
    descent="-410"
    x-height="1024"
    cap-height="1434"
    bbox="-717 -501 2398 2246"
    underline-thickness="119"
    underline-position="-119"
    unicode-range="U+000D-U+1F6C5"
  />
<missing-glyph horiz-adv-x="1322" 
d="M166 0v1398h990v-1398h-990zM314 148h694v1102h-694v-1102z" />
    <glyph glyph-name=".notdef" horiz-adv-x="1322" 
d="M166 0v1398h990v-1398h-990zM314 148h694v1102h-694v-1102z" />
    <glyph glyph-name="uni000D" unicode="&#xd;" horiz-adv-x="0" 
 />
    <glyph glyph-name="space" unicode=" " horiz-adv-x="561" 
 />
    <glyph glyph-name="exclam" unicode="!" horiz-adv-x="582" 
d="M375 1434l-19 -1030h-135l-18 1030h172zM291 -18c-30.667 0 -56.834 10.667 -78.501 32s-32.5 47.333 -32.5 78s10.833 56.834 32.5 78.501s47.834 32.5 78.501 32.5c30 0 56 -10.833 78 -32.5s33 -47.834 33 -78.501s-11 -56.667 -33 -78s-48 -32 -78 -32z" />
    <glyph glyph-name="quotedbl" unicode="&#x22;" horiz-adv-x="803" 
d="M323 1434l-30 -447h-115l-30 447h175zM655 1434l-30 -447h-115l-30 447h175z" />
    <glyph glyph-name="numbersign" unicode="#" horiz-adv-x="1210" 
d="M1166 1032l-23 -106h-261l-63 -300h281l-27 -106h-275l-88 -397h-126l86 397h-250l-84 -397h-125l84 397h-262l20 106h265l61 300h-277l21 106h277l84 402h126l-84 -402h252l86 402h123l-84 -402h263zM758 926h-252l-66 -300h254z" />
    <glyph glyph-name="dollar" unicode="$" horiz-adv-x="1104" 
d="M616 8v-217h-104v209c-142 0 -257.333 28.667 -346 86v174c38.667 -34 91.5 -62.5 158.5 -85.5s129.5 -34.5 187.5 -34.5v512c-146.667 70.667 -241.667 135.834 -285 195.501s-65 130.167 -65 211.5c0 96.667 33 180.167 99 250.5s149.667 112.5 251 126.5v180h104v-176
c130.667 -4 221 -22.667 271 -56v-170c-68 53.333 -158.333 82 -271 86v-528c138.667 -66 233.5 -129.833 284.5 -191.5s76.5 -131.834 76.5 -210.501c0 -94.667 -31.833 -174.167 -95.5 -238.5s-152.167 -105.5 -265.5 -123.5zM512 828v465.999
c-56 -11.333 -100.333 -36.166 -133 -74.499s-49 -84.833 -49 -139.5c0 -57.333 13.333 -104.333 40 -141s74 -73.667 142 -111zM616 599.999v-452c128.667 28 193 97.333 193 208c0 92 -64.333 173.333 -193 244z" />
    <glyph glyph-name="percent" unicode="%" horiz-adv-x="1676" 
d="M404 715c-98.667 0 -177.333 32.5 -236 97.5s-88 151.833 -88 260.5c0 118.667 31 212.167 93 280.5s145.667 102.5 251 102.5c102 0 181.167 -31.667 237.5 -95s84.5 -152.333 84.5 -267s-31.5 -206.5 -94.5 -275.5s-145.5 -103.5 -247.5 -103.5zM418.001 1346
c-63.333 0 -113.333 -23.501 -150 -70.501s-55 -111.5 -55 -193.5c0 -80.667 18 -143.5 54 -188.5s85 -67.5 147 -67.5c62.667 0 111.667 23.333 147 70s53 111.334 53 194.001c0 80.667 -17.5 143.5 -52.5 188.5s-82.833 67.5 -143.5 67.5zM1364 1434l-920 -1444h-143
l919 1444h144zM1258 -22.001c-98.667 0 -177.333 32.667 -236 98s-88 152 -88 260c0 118.667 31.333 212.5 94 281.5s146 103.5 250 103.5c101.333 0 180.333 -32 237 -96s85 -153.667 85 -269c0 -114 -31.5 -205.5 -94.5 -274.5s-145.5 -103.5 -247.5 -103.5zM1272 607.999
c-64 0 -114.167 -23.332 -150.5 -69.999s-54.5 -111.334 -54.5 -194.001c0 -79.333 18 -141.5 54 -186.5s85 -67.5 147 -67.5c62.667 0 111.667 23.5 147 70.5s53 111.5 53 193.5c0 81.333 -17.5 144 -52.5 188s-82.833 66 -143.5 66z" />
    <glyph glyph-name="ampersand" unicode="&#x26;" horiz-adv-x="1639" 
d="M1445 -23c-38 0 -71.498 5.16797 -100.498 15.501s-55.833 25 -80.5 44s-48.5 42.167 -71.5 69.5s-47.167 58.333 -72.5 93c-26.667 -28.667 -57.5 -56.334 -92.5 -83.001s-73.833 -50.334 -116.5 -71.001s-89.334 -37.167 -140.001 -49.5s-105.667 -18.5 -165 -18.5
c-72 0 -138 9 -198 27s-111.333 44.5 -154 79.5s-75.834 78.167 -99.501 129.5s-35.5 110.333 -35.5 177c0 102 29 189.167 87 261.5s140 131.5 246 177.5c-20 14.667 -40 31.834 -60 51.501s-37.833 42 -53.5 67s-28.334 52.667 -38.001 83s-14.5 63.5 -14.5 99.5
c0 52.667 9.5 99.334 28.5 140.001s45.167 75 78.5 103s72.666 49.167 117.999 63.5s94.333 21.5 147 21.5c52 0 99.5 -7.16699 142.5 -21.5s80 -34.833 111 -61.5s55.167 -58.667 72.5 -96s26 -79 26 -125c0 -80 -22.833 -146.5 -68.5 -199.5
s-114.167 -98.167 -205.5 -135.5c46 -18 87.667 -40 125 -66s71.833 -55 103.5 -87s61.167 -66.333 88.5 -103l81 -114c54 75.333 94.667 158.333 122 249s41 185.667 41 285c0 25.333 -1.5 49.166 -4.5 71.499s-7.16699 44.5 -12.5 66.5h159
c5.33301 -22 8.5 -42.833 9.5 -62.5l3.5 -70.5c0 -60.667 -6.33301 -121.667 -19 -183s-29.667 -120.833 -51 -178.5s-46.166 -112.5 -74.499 -164.5s-58.166 -99.667 -89.499 -143c23.333 -32 44.666 -59.833 63.999 -83.5s38.833 -43.5 58.5 -59.5s40 -27.833 61 -35.5
s44.833 -11.5 71.5 -11.5c20 0 40.333 2.66699 61 8s42 12 64 20v-152c-24 -9.33301 -49.167 -16.333 -75.5 -21s-52.166 -7 -77.499 -7zM606.002 119.001c50.667 0 97.333 5.50195 140 16.502s82 25.667 118 44s68.667 39.666 98 63.999s56 49.833 80 76.5
c-40.667 63.333 -78.167 117.5 -112.5 162.5s-69 83.833 -104 116.5s-72.333 60.667 -112 84s-85.5 45 -137.5 65c-42 -16.667 -80.667 -35.167 -116 -55.5s-65.833 -44.333 -91.5 -72s-45.834 -59.834 -60.501 -96.501s-22 -79.667 -22 -129
c0 -45.333 8.33301 -85.333 25 -120s39.5 -63.5 68.5 -86.5s62.833 -40.333 101.5 -52s80.334 -17.5 125.001 -17.5zM856.001 1140c0 33.333 -6.16699 61.668 -18.5 85.001s-28 42.666 -47 57.999s-40.167 26.5 -63.5 33.5s-46.333 10.5 -69 10.5
c-65.333 0 -117.5 -17.667 -156.5 -53s-58.833 -83.333 -59.5 -144c0 -27.333 4.16699 -53 12.5 -77s20 -46.333 35 -67s32.5 -39 52.5 -55s41.333 -29.667 64 -41c84 29.333 146.667 63.5 188 102.5s62 88.167 62 147.5z" />
    <glyph glyph-name="quotesingle" unicode="'" horiz-adv-x="471" 
d="M323 1434l-30 -447h-115l-30 447h175z" />
    <glyph glyph-name="parenleft" unicode="(" horiz-adv-x="618" 
d="M596 -326h-146c-206.667 236 -310 527 -310 873c0 347.333 103.333 643 310 887h148c-209.333 -253.333 -314 -548.333 -314 -885c0 -334 104 -625.667 312 -875z" />
    <glyph glyph-name="parenright" unicode=")" horiz-adv-x="618" 
d="M170 -326h-146c208 249.333 312 541 312 875c0 336.667 -104.667 631.667 -314 885h148c208 -244 312 -539.667 312 -887c0 -346 -104 -637 -312 -873z" />
    <glyph glyph-name="asterisk" unicode="*" horiz-adv-x="854" 
d="M780 1104l-274 -56l190 -243l-110 -76l-156 265l-158 -265l-110 76l190 243l-276 56l45 125l262 -99l-23 304h138l-23 -304l263 99z" />
    <glyph glyph-name="plus" unicode="+" horiz-adv-x="1401" 
d="M1172 530h-404v-403h-133v403h-403v134h403v403h133v-403h404v-134z" />
    <glyph glyph-name="comma" unicode="," horiz-adv-x="444" 
d="M316 228l-160 -492h-117l117 492h160z" />
    <glyph glyph-name="hyphen" unicode="-" horiz-adv-x="819" 
d="M690 506h-546v129h546v-129z" />
    <glyph glyph-name="period" unicode="." horiz-adv-x="444" 
d="M223 -22c-30.667 0 -56.834 11 -78.501 33s-32.5 48.333 -32.5 79s10.833 57.167 32.5 79.5s47.834 33.5 78.501 33.5c31.333 0 58 -11.167 80 -33.5s33 -48.833 33 -79.5s-11 -57 -33 -79s-48.667 -33 -80 -33z" />
    <glyph glyph-name="slash" unicode="/" horiz-adv-x="798" 
d="M813 1434l-688 -1672h-153l686 1672h155z" />
    <glyph glyph-name="zero" unicode="0" horiz-adv-x="1104" 
d="M538 -24c-142 0 -252.833 61.001 -332.5 183.001s-119.5 298.333 -119.5 529c0 253.333 41.5 445 124.5 575s202.833 195 359.5 195c300 0 450 -245 450 -735c0 -242.667 -42.333 -427.834 -127 -555.501s-203 -191.5 -355 -191.5zM561 1319
c-204.667 0 -307 -207.667 -307 -623c0 -388 100.333 -582 301 -582c198 0 297 197.333 297 592c0 408.667 -97 613 -291 613z" />
    <glyph glyph-name="one" unicode="1" horiz-adv-x="1104" 
d="M987 0h-811v144h324v1114l-332 -99v156l496 151v-1322h323v-144z" />
    <glyph glyph-name="two" unicode="2" horiz-adv-x="1104" 
d="M960 0h-864.002v146l418 419c106.667 106.667 182.834 195.5 228.501 266.5s68.5 146.833 68.5 227.5c0 82.667 -23.667 146.667 -71 192s-114.666 68 -201.999 68c-128 0 -250.667 -54.667 -368 -164v172c112 87.333 242.333 131 391 131
c128 0 228.667 -34.667 302 -104s110 -162.333 110 -279c0 -92 -25.333 -181.833 -76 -269.5s-141.667 -196.5 -273 -326.5l-331 -327v-4h667v-148z" />
    <glyph glyph-name="three" unicode="3" horiz-adv-x="1104" 
d="M131 53l-0.000976562 176.999c98 -77.333 208.667 -116 332 -116c100 0 179.833 25 239.5 75s89.5 117.333 89.5 202c0 187.333 -133 281 -399 281h-119v139h113c236.667 0 355 88 355 264c0 162.667 -90.333 244 -271 244c-100.667 0 -195.667 -34.333 -285 -103v160
c92 54.667 200.667 82 326 82c120.667 0 217.167 -32 289.5 -96s108.5 -146 108.5 -246c0 -188.667 -96 -310 -288 -364v-4c103.333 -10 185.5 -46.167 246.5 -108.5s91.5 -140.166 91.5 -233.499c0 -128.667 -46.167 -232.5 -138.5 -311.5s-214.166 -118.5 -365.499 -118.5
c-136 0 -244.333 25.667 -325 77z" />
    <glyph glyph-name="four" unicode="4" horiz-adv-x="1104" 
d="M1034 381h-184v-381h-162v381h-674v107l638 946h198v-920h184v-133zM688 514l-0.000976562 620c0 44 1.33301 93.333 4 148h-4c-9.33301 -24 -27.666 -60.667 -54.999 -110l-441 -658h496z" />
    <glyph glyph-name="five" unicode="5" horiz-adv-x="1104" 
d="M164 35l-0.000976562 174.001c98 -63.333 197.667 -95 299 -95s183 28.667 245 86s93 133.333 93 228c0 94 -31.667 167.333 -95 220s-154 79 -272 79c-40 0 -115 -4 -225 -12v719h694v-148h-539v-420c44 2.66699 84.667 4 122 4c153.333 0 272 -38.5 356 -115.5
s126 -182.5 126 -316.5c0 -138.667 -45.167 -250.334 -135.5 -335.001s-214.166 -127 -371.499 -127c-132.667 0 -231.667 19.667 -297 59z" />
    <glyph glyph-name="six" unicode="6" horiz-adv-x="1104" 
d="M934 1417v-155c-74 38 -152 57 -234 57c-127.333 0 -229.166 -56.667 -305.499 -170s-114.5 -265 -114.5 -455h4c66.667 135.333 176 203 328 203c125.333 0 225 -40.167 299 -120.5s111 -187.833 111 -322.5c0 -140.667 -42.333 -255.5 -127 -344.5
s-192.334 -133.5 -323.001 -133.5c-144 0 -257 57.333 -339 172s-123 275.667 -123 483c0 251.333 53.667 452 161 602s249 225 425 225c100 0 179.333 -13.667 238 -41zM576 758c-84.667 0 -153.334 -28.666 -206.001 -85.999s-79 -125 -79 -203
c0 -98 26.167 -181.667 78.5 -251s121.833 -104 208.5 -104c82.667 0 149.334 30.167 200.001 90.5s76 136.833 76 229.5c0 101.333 -24.333 180.666 -73 237.999s-117 86 -205 86z" />
    <glyph glyph-name="seven" unicode="7" horiz-adv-x="1104" 
d="M1010 1382l-568 -1382h-170l537 1286h-723v148h924v-52z" />
    <glyph glyph-name="eight" unicode="8" horiz-adv-x="1104" 
d="M410 752v4.00098c-172 80 -258 196 -258 348c0 103.333 39.333 188.166 118 254.499s180 99.5 304 99.5c112 0 204 -31 276 -93s108 -141.667 108 -239c0 -158.667 -88.667 -282 -266 -370v-4c209.333 -74.667 314 -204 314 -388c0 -118.667 -42.667 -213 -128 -283
s-204 -105 -356 -105c-122.667 0 -223.667 34.667 -303 104s-119 159.333 -119 270c0 184 103.333 318 310 402zM790 1106c0 66 -20.668 118.001 -62.001 156.001s-97.666 57 -168.999 57c-66.667 0 -123.167 -19.833 -169.5 -59.5s-69.5 -90.167 -69.5 -151.5
c0 -124.667 77.667 -218.667 233 -282c158 65.333 237 158.666 237 279.999zM541.999 674.002c-182.667 -72.667 -274 -178 -274 -316c0 -71.333 26.5 -129.833 79.5 -175.5s122.833 -68.5 209.5 -68.5c82.667 0 150.167 22.5 202.5 67.5s78.5 101.833 78.5 170.5
c0 144 -98.667 251.333 -296 322z" />
    <glyph glyph-name="nine" unicode="9" horiz-adv-x="1104" 
d="M172 24l0.000976562 158c80 -45.333 164.667 -68 254 -68c130 0 231.167 52.333 303.5 157s108.5 253.334 108.5 446.001c-1.33301 -0.666992 -2.66602 -0.666992 -3.99902 0c-61.333 -123.333 -168 -185 -320 -185c-122.667 0 -223.334 41.667 -302.001 125
s-118 190.666 -118 321.999c0 140 43.167 254.833 129.5 344.5s196.833 134.5 331.5 134.5c141.333 0 251.5 -55.833 330.5 -167.5s118.5 -274.167 118.5 -487.5c0 -264.667 -51.333 -468.667 -154 -612s-245.334 -215 -428.001 -215c-96 0 -179.333 16 -250 48z
M540.001 1319c-79.333 0 -145.501 -29.833 -198.501 -89.5s-79.5 -135.5 -79.5 -227.5c0 -100.667 26 -179.834 78 -237.501s122.333 -86.5 211 -86.5c77.333 0 142.833 26.333 196.5 79s80.5 117 80.5 193c0 108.667 -26.667 197.334 -80 266.001
s-122.666 103 -207.999 103z" />
    <glyph glyph-name="colon" unicode=":" horiz-adv-x="444" 
d="M223 824c-30.667 0 -56.834 11 -78.501 33s-32.5 48.333 -32.5 79s10.833 56.667 32.5 78s47.834 32 78.501 32c31.333 0 58 -10.667 80 -32s33 -47.333 33 -78s-11 -57 -33 -79s-48.667 -33 -80 -33zM223 -22c-30.667 0 -56.834 11 -78.501 33s-32.5 48.333 -32.5 79
s10.833 57.167 32.5 79.5s47.834 33.5 78.501 33.5c31.333 0 58 -11.167 80 -33.5s33 -48.833 33 -79.5s-11 -57 -33 -79s-48.667 -33 -80 -33z" />
    <glyph glyph-name="semicolon" unicode=";" horiz-adv-x="444" 
d="M226 824c-31.333 0 -57.833 11 -79.5 33s-32.5 48.333 -32.5 79s10.833 56.667 32.5 78s48.167 32 79.5 32c30.667 0 57 -10.667 79 -32s33 -47.333 33 -78s-11 -57 -33 -79s-48.333 -33 -79 -33zM316 228l-160 -492h-117l117 492h160z" />
    <glyph glyph-name="less" unicode="&#x3c;" horiz-adv-x="1401" 
d="M1132 127l-860 432v59l860 482v-150l-642 -356v-4l642 -314v-149z" />
    <glyph glyph-name="equal" unicode="=" horiz-adv-x="1401" 
d="M1172 744h-940v132h940v-132zM1172 318h-940v132h940v-132z" />
    <glyph glyph-name="greater" unicode="&#x3e;" horiz-adv-x="1401" 
d="M1132 559l-860 -432v149l644 312v6l-644 356v150l860 -482v-59z" />
    <glyph glyph-name="question" unicode="?" horiz-adv-x="918" 
d="M335 398c-6 17.333 -11.3359 39.8301 -16.0029 67.4971s-7 55.167 -7 82.5c0 42.667 8.5 81.167 25.5 115.5s38.167 66.5 63.5 96.5s53 58.833 83 86.5s57.667 55.667 83 84s46.5 58 63.5 89s25.5 65.167 25.5 102.5c0 32 -6.16699 60.333 -18.5 85
s-29.166 45.334 -50.499 62.001s-46 29.167 -74 37.5s-57.667 12.5 -89 12.5c-112.667 0 -210.334 -44.333 -293.001 -133v176c102 64 207.667 96 317 96c50.667 0 98.334 -6.66699 143.001 -20s83.834 -33.166 117.501 -59.499s60.167 -59.166 79.5 -98.499s29 -85 29 -137
c0 -49.333 -8.66699 -93.333 -26 -132s-39.166 -74.167 -65.499 -106.5s-54.833 -62.5 -85.5 -90.5s-59.167 -55.833 -85.5 -83.5s-48.166 -56.5 -65.499 -86.5s-26 -63 -26 -99c0 -30.667 3.66699 -58.5 11 -83.5s14.666 -46.167 21.999 -63.5h-161zM424.997 -18.0029
c-29.333 0 -55.333 10.667 -78 32c-22 21.333 -33 47.333 -33 78c0 31.333 11 57.333 33 78c22 22 48 33 78 33s56 -11 78 -33c22 -20.667 33 -46.667 33 -78c0 -30.667 -11 -56.667 -33 -78c-22.667 -21.333 -48.667 -32 -78 -32z" />
    <glyph glyph-name="at" unicode="@" horiz-adv-x="1956" 
d="M1164 420l-5.00098 0.00195312c-48.667 -158.667 -144.334 -238 -287.001 -238c-91.333 0 -164.833 33.667 -220.5 101s-83.5 158 -83.5 272c0 150.667 38.5 275.834 115.5 375.501s178.167 149.5 303.5 149.5c48 0 90.833 -12.333 128.5 -37s61.834 -55.667 72.501 -93
h4c1.33301 18.667 4.66602 57 9.99902 115h125c-31.333 -367.333 -47 -554.333 -47 -561c0 -138 39.667 -207 119 -207c72 0 131.833 39 179.5 117s71.5 179 71.5 303c0 183.333 -58 333 -174 449s-276.667 174 -482 174c-198 0 -361.667 -69.333 -491 -208
s-194 -312 -194 -520c0 -204.667 61.5 -369.834 184.5 -495.501s288.833 -188.5 497.5 -188.5c164.667 0 305.334 27.333 422.001 82v-124c-115.333 -49.333 -259.333 -74 -432 -74c-242.667 0 -438.167 73.167 -586.5 219.5s-222.5 337.833 -222.5 574.5
c0 244 77.833 446.333 233.5 607s354.5 241 596.5 241c226.667 0 414.334 -67.333 563.001 -202s223 -310.334 223 -527.001c0 -158.667 -39.167 -288.834 -117.5 -390.501s-173.833 -152.5 -286.5 -152.5c-146 0 -219.333 79.333 -220 238zM984.999 964.002
c-82.667 0 -149.499 -39.332 -200.499 -117.999s-76.5 -176.334 -76.5 -293.001c0 -78.667 17.167 -140.667 51.5 -186s80.166 -68 137.499 -68c82.667 0 148.167 41.167 196.5 123.5s72.5 191.5 72.5 327.5c0 142.667 -60.333 214 -181 214z" />
    <glyph glyph-name="A" unicode="A" horiz-adv-x="1321" 
d="M1298 0h-186l-152 402h-608l-143 -402h-187l550 1434h174zM905 553l-225 611c-7.33301 20 -14.666 52 -21.999 96h-4c-6.66699 -40.667 -14.334 -72.667 -23.001 -96l-223 -611h497z" />
    <glyph glyph-name="B" unicode="B" horiz-adv-x="1174" 
d="M188 0v1434h408c124 0 222.333 -30.333 295 -91s109 -139.667 109 -237c0 -81.333 -22 -152 -66 -212s-104.667 -102.667 -182 -128v-4c96.667 -11.333 174 -47.833 232 -109.5s87 -141.834 87 -240.501c0 -122.667 -44 -222 -132 -298s-199 -114 -333 -114h-418z
M356 1282v-463h172c92 0 164.333 22.167 217 66.5s79 106.833 79 187.5c0 139.333 -91.667 209 -275 209h-193zM356 668.001v-516h228c98.667 0 175.167 23.333 229.5 70s81.5 110.667 81.5 192c0 169.333 -115.333 254 -346 254h-193z" />
    <glyph glyph-name="C" unicode="C" horiz-adv-x="1268" 
d="M1164 60c-106 -56 -238 -83.9971 -396 -83.9971c-204 0 -367.333 65.667 -490 197s-184 303.666 -184 516.999c0 229.333 69 414.666 207 555.999s313 212 525 212c136 0 248.667 -19.667 338 -59v-179c-102.667 57.333 -216 86 -340 86
c-164.667 0 -298.167 -55 -400.5 -165s-153.5 -257 -153.5 -441c0 -174.667 47.833 -313.834 143.5 -417.501s221.167 -155.5 376.5 -155.5c144 0 268.667 32 374 96v-163z" />
    <glyph glyph-name="D" unicode="D" horiz-adv-x="1436" 
d="M188 0l-0.000976562 1434h396c505.333 0 758 -233 758 -699c0 -221.333 -70.167 -399.166 -210.5 -533.499s-328.166 -201.5 -563.499 -201.5h-380zM355.999 1282v-1130h214c188 0 334.333 50.333 439 151s157 243.334 157 428.001c0 367.333 -195.333 551 -586 551h-224
z" />
    <glyph glyph-name="E" unicode="E" horiz-adv-x="1036" 
d="M948 0h-760v1434h728v-152h-560v-477h518v-151h-518v-502h592v-152z" />
    <glyph glyph-name="F" unicode="F" horiz-adv-x="1000" 
d="M916 1282h-560v-496h518v-151h-518v-635h-168v1434h728v-152z" />
    <glyph glyph-name="G" unicode="G" horiz-adv-x="1405" 
d="M1260 98c-144 -81.333 -303.997 -122 -479.997 -122c-204.667 0 -370.167 66 -496.5 198s-189.5 306.667 -189.5 524c0 222 70.167 404.167 210.5 546.5s318.166 213.5 533.499 213.5c156 0 287 -25.333 393 -76v-186c-116 73.333 -253.333 110 -412 110
c-160.667 0 -292.334 -55.333 -395.001 -166s-154 -254 -154 -430c0 -181.333 47.667 -323.833 143 -427.5s224.666 -155.5 387.999 -155.5c112 0 209 22.333 291 67v402h-314v152h482v-650z" />
    <glyph glyph-name="H" unicode="H" horiz-adv-x="1454" 
d="M1266 0h-168v654h-742v-654h-168v1434h168v-629h742v629h168v-1434z" />
    <glyph glyph-name="I" unicode="I" horiz-adv-x="545" 
d="M496 1434v-144h-140v-1146h140v-144h-448v144h140v1146h-140v144h448z" />
    <glyph glyph-name="J" unicode="J" horiz-adv-x="731" 
d="M555 514c0 -170 -36 -302.167 -108 -396.5s-168.333 -141.5 -289 -141.5c-56 0 -102 8 -138 24v166c36 -26 82.667 -39 140 -39c151.333 0 227 128.333 227 385v922h168v-920z" />
    <glyph glyph-name="K" unicode="K" horiz-adv-x="1188" 
d="M1186 0l-233.999 -0.000976562l-554 656c-20.667 24.667 -33.334 41.334 -38.001 50.001h-4v-706h-168v1434h168v-674h4c9.33301 14.667 22 31 38 49l536 625h209l-615 -688z" />
    <glyph glyph-name="L" unicode="L" horiz-adv-x="964" 
d="M932 0h-744v1434h168v-1282h576v-152z" />
    <glyph glyph-name="M" unicode="M" horiz-adv-x="1839" 
d="M1650 0l-167 -0.000976562v962c0 76 4.66699 169 14 279h-4c-16 -64.667 -30.333 -111 -43 -139l-490 -1102h-82l-489 1094c-14 32 -28.333 81 -43 147h-4c5.33301 -57.333 8 -151 8 -281v-960h-162v1434h222l440 -1000c34 -76.667 56 -134 66 -172h6
c28.667 78.667 51.667 137.334 69 176.001l449 996h210v-1434z" />
    <glyph glyph-name="N" unicode="N" horiz-adv-x="1532" 
d="M1344 0l-206 0.00195312l-738 1143c-18.667 28.667 -34 58.667 -46 90h-6c5.33301 -30.667 8 -96.334 8 -197.001v-1036h-168v1434h218l718 -1125c30 -46.667 49.333 -78.667 58 -96h4c-6.66699 41.333 -10 111.666 -10 210.999v1010h168v-1434z" />
    <glyph glyph-name="O" unicode="O" horiz-adv-x="1544" 
d="M766 -24c-203.333 0 -366.168 66.999 -488.501 200.999s-183.5 308.333 -183.5 523c0 230.667 62.333 414.667 187 552s294.334 206 509.001 206c198 0 357.5 -66.667 478.5 -200s181.5 -307.666 181.5 -522.999c0 -234 -62 -419 -186 -555s-290 -204 -498 -204z
M777.998 1306c-150.667 0 -273 -54.3311 -367 -162.998s-141 -251.334 -141 -428.001s45.833 -318.834 137.5 -426.501s211.167 -161.5 358.5 -161.5c157.333 0 281.333 51.333 372 154s136 246.334 136 431.001c0 189.333 -44 335.666 -132 438.999s-209.333 155 -364 155z
" />
    <glyph glyph-name="P" unicode="P" horiz-adv-x="1147" 
d="M356 542l0.000976562 -542h-168v1434h394c153.333 0 272.166 -37.333 356.499 -112s126.5 -180 126.5 -316s-46.833 -247.333 -140.5 -334s-220.167 -130 -379.5 -130h-189zM356.001 1282v-588h176c116 0 204.5 26.5 265.5 79.5s91.5 127.833 91.5 224.5
c0 189.333 -112 284 -336 284h-197z" />
    <glyph glyph-name="Q" unicode="Q" horiz-adv-x="1544" 
d="M756 -24c-42.667 0 -86.001 4.16699 -130.001 12.5s-86.667 21 -128 38s-80.833 38 -118.5 63s-71.834 54.167 -102.501 87.5c-122 133.333 -183 307.666 -183 522.999c0 231.333 62 415.333 186 552c125.333 137.333 296.666 206 513.999 206
c194.667 0 352.667 -66.667 474 -200s182 -307.666 182 -522.999c0 -90.667 -10.167 -176.167 -30.5 -256.5s-51.166 -152.833 -92.499 -217.5s-93.333 -119.5 -156 -164.5s-136.667 -77.167 -222 -96.5c34.667 -37.333 67.167 -70.333 97.5 -99
s60.666 -52.834 90.999 -72.501s61.833 -34.5 94.5 -44.5s68.667 -15 108 -15c10.667 0 22.334 0.5 35.001 1.5s25.5 2.66699 38.5 5s25.5 5 37.5 8s23 6.5 33 10.5v-162c-10.667 -3.33301 -22.667 -6.16602 -36 -8.49902s-26.833 -4.33301 -40.5 -6s-27.167 -3 -40.5 -4
s-25.666 -1.5 -36.999 -1.5c-64 0 -121.5 9.5 -172.5 28.5s-98.667 45 -143 78s-87.166 71.5 -128.499 115.5zM777.999 1306c-150.667 0 -273 -54.333 -367 -163s-141 -251.334 -141 -428.001c0 -176 45.667 -318.333 137 -427c92 -107.333 211.667 -161 359 -161
c157.333 0 281.333 51.333 372 154s136 246.334 136 431.001c0 190 -44 336.333 -132 439c-88 103.333 -209.333 155 -364 155z" />
    <glyph glyph-name="R" unicode="R" horiz-adv-x="1225" 
d="M1216 0l-199.999 0.00390625l-240 402c-22 37.333 -43.333 69.166 -64 95.499s-41.834 47.833 -63.501 64.5s-45 28.834 -70 36.501s-53.167 11.5 -84.5 11.5h-138v-610h-168v1434h428c62.667 0 120.5 -7.83301 173.5 -23.5s99 -39.5 138 -71.5s69.5 -71.833 91.5 -119.5
s33 -103.5 33 -167.5c0 -50 -7.5 -95.833 -22.5 -137.5s-36.333 -78.834 -64 -111.501s-61 -60.5 -100 -83.5s-82.833 -40.833 -131.5 -53.5v-4c24 -10.667 44.833 -22.834 62.5 -36.501s34.5 -29.834 50.5 -48.501s31.833 -39.834 47.5 -63.501l52.5 -82.5zM356.001 1282
v-520.001h228c42 0 80.833 6.33301 116.5 19s66.5 30.834 92.5 54.501s46.333 52.667 61 87s22 72.833 22 115.5c0 76.667 -24.833 136.5 -74.5 179.5s-121.5 64.5 -215.5 64.5h-230z" />
    <glyph glyph-name="S" unicode="S" horiz-adv-x="1088" 
d="M121 58l-0.000976562 198c22.667 -20 49.834 -38 81.501 -54s65 -29.5 100 -40.5s70.167 -19.5 105.5 -25.5s68 -9 98 -9c103.333 0 180.5 19.167 231.5 57.5s76.5 93.5 76.5 165.5c0 38.667 -8.5 72.334 -25.5 101.001s-40.5 54.834 -70.5 78.501
s-65.5 46.334 -106.5 68.001l-132.5 68.5c-50 25.333 -96.667 51 -140 77s-81 54.667 -113 86s-57.167 66.833 -75.5 106.5s-27.5 86.167 -27.5 139.5c0 65.333 14.333 122.166 43 170.499s66.334 88.166 113.001 119.499s99.834 54.666 159.501 69.999s120.5 23 182.5 23
c141.333 0 244.333 -17 309 -51v-189c-84.667 58.667 -193.334 88 -326.001 88c-36.667 0 -73.334 -3.83301 -110.001 -11.5s-69.334 -20.167 -98.001 -37.5s-52 -39.666 -70 -66.999s-27 -60.666 -27 -99.999c0 -36.667 6.83301 -68.334 20.5 -95.001
s33.834 -51 60.501 -73s59.167 -43.333 97.5 -64s82.5 -43.334 132.5 -68.001c51.333 -25.333 100 -52 146 -80s86.333 -59 121 -93s62.167 -71.667 82.5 -113s30.5 -88.666 30.5 -141.999c0 -70.667 -13.833 -130.5 -41.5 -179.5s-65 -88.833 -112 -119.5
s-101.167 -52.834 -162.5 -66.501s-126 -20.5 -194 -20.5c-22.667 0 -50.667 1.83301 -84 5.5s-67.333 9 -102 16s-67.5 15.667 -98.5 26s-55.833 21.833 -74.5 34.5z" />
    <glyph glyph-name="T" unicode="T" horiz-adv-x="1073" 
d="M1036 1282h-414v-1282h-168v1282h-413v152h995v-152z" />
    <glyph glyph-name="U" unicode="U" horiz-adv-x="1407" 
d="M1237 580c0 -402.667 -181.667 -604 -545 -604c-348 0 -522 193.667 -522 581v877h168v-866c0 -294 124 -441 372 -441c239.333 0 359 142 359 426v881h168v-854z" />
    <glyph glyph-name="V" unicode="V" horiz-adv-x="1272" 
d="M1254 1434l-531.001 -1434h-185l-520 1434h187l397 -1137c12.667 -36.667 22.334 -79 29.001 -127h4c5.33301 40 16.333 83 33 129l405 1135h181z" />
    <glyph glyph-name="W" unicode="W" horiz-adv-x="1913" 
d="M1888 1434l-404.998 -1434h-197l-295 1048c-12.667 44.667 -20.334 93.334 -23.001 146.001h-4c-4 -49.333 -12.667 -97.333 -26 -144l-297 -1050h-195l-420 1434h185l305 -1100c12.667 -46 20.667 -94 24 -144h5c3.33301 35.333 13.666 83.333 30.999 144l317 1100h161
l304 -1108c10.667 -38 18.667 -82.667 24 -134h4c2.66699 34.667 11.667 80.667 27 138l293 1104h182z" />
    <glyph glyph-name="X" unicode="X" horiz-adv-x="1208" 
d="M1178 0l-205 -0.00195312l-330 549c-10 16.667 -21 40.334 -33 71.001h-4c-6.66699 -15.333 -18 -39 -34 -71l-340 -549h-206l480 721l-442 713h206l293 -504c19.333 -33.333 36.333 -66.666 51 -99.999h4c21.333 44 40 78.667 56 104l305 500h193l-451 -711z" />
    <glyph glyph-name="Y" unicode="Y" horiz-adv-x="1132" 
d="M1120 1434l-473.001 -904v-530h-168v526l-461 908h191l321 -648c4 -8 15.667 -37.333 35 -88h3c6.66699 22.667 19.334 52 38.001 88l336 648h178z" />
    <glyph glyph-name="Z" unicode="Z" horiz-adv-x="1168" 
d="M1124 1394l-840 -1242h820v-152h-1071v47l833 1235h-766v152h1024v-40z" />
    <glyph glyph-name="bracketleft" unicode="[" horiz-adv-x="618" 
d="M568 -326h-368v1760h368v-119h-222v-1522h222v-119z" />
    <glyph glyph-name="backslash" unicode="\" horiz-adv-x="776" 
d="M798 -240h-151l-673 1674h155z" />
    <glyph glyph-name="bracketright" unicode="]" horiz-adv-x="618" 
d="M420 -326h-367v119h221v1522h-221v119h367v-1760z" />
    <glyph glyph-name="asciicircum" unicode="^" horiz-adv-x="1401" 
d="M1174 624h-150l-332 619h-6l-309 -619h-147l422 834h65z" />
    <glyph glyph-name="underscore" unicode="_" horiz-adv-x="850" 
d="M850 -297h-850v119h850v-119z" />
    <glyph glyph-name="grave" unicode="`" horiz-adv-x="549" 
d="M471 1218h-127l-262 328h168z" />
    <glyph glyph-name="a" unicode="a" horiz-adv-x="1042" 
d="M899 0l-164.001 0.000976562v160h-4c-71.333 -122.667 -176.333 -184 -315 -184c-102 0 -181.833 27 -239.5 81s-86.5 125.667 -86.5 215c0 191.333 112.667 302.666 338 333.999l307 43c0 174 -70.333 261 -211 261c-123.333 0 -234.666 -42 -333.999 -126v168
c100.667 64 216.667 96 348 96c240.667 0 361 -127.333 361 -382v-666zM734.999 518.001l-247 -34c-76 -10.667 -133.333 -29.5 -172 -56.5s-58 -74.833 -58 -143.5c0 -50 17.833 -90.833 53.5 -122.5s83.167 -47.5 142.5 -47.5c81.333 0 148.5 28.5 201.5 85.5
s79.5 129.167 79.5 216.5v102z" />
    <glyph glyph-name="b" unicode="b" horiz-adv-x="1204" 
d="M334 148h-4v-148h-164v1516h164v-672h4c80.667 136 198.667 204 354 204c131.333 0 234.166 -45.833 308.499 -137.5s111.5 -214.5 111.5 -368.5c0 -171.333 -41.667 -308.5 -125 -411.5s-197.333 -154.5 -342 -154.5c-135.333 0 -237.666 57.333 -306.999 172zM330 561
l0.000976562 -143c0 -84.667 27.5 -156.5 82.5 -215.5s124.833 -88.5 209.5 -88.5c99.333 0 177.166 38 233.499 114s84.5 181.667 84.5 317c0 114 -26.333 203.333 -79 268s-124 97 -214 97c-95.333 0 -172 -33.167 -230 -99.5s-87 -149.5 -87 -249.5z" />
    <glyph glyph-name="c" unicode="c" horiz-adv-x="946" 
d="M864 47c-78.667 -47.333 -172 -71 -280 -71c-146 0 -263.833 47.5 -353.5 142.5s-134.5 218.167 -134.5 369.5c0 168.667 48.333 304.167 145 406.5s225.667 153.5 387 153.5c90 0 169.333 -16.667 238 -50v-168c-76 53.333 -157.333 80 -244 80
c-104.667 0 -190.5 -37.5 -257.5 -112.5s-100.5 -173.5 -100.5 -295.5c0 -120 31.5 -214.667 94.5 -284s147.5 -104 253.5 -104c89.333 0 173.333 29.667 252 89v-156z" />
    <glyph glyph-name="d" unicode="d" horiz-adv-x="1206" 
d="M1040 0h-164v174h-4c-76 -132 -193.333 -198 -352 -198c-128.667 0 -231.5 45.833 -308.5 137.5s-115.5 216.5 -115.5 374.5c0 169.333 42.667 305 128 407s199 153 341 153c140.667 0 243 -55.333 307 -166h4v634h164v-1516zM876 463v150.999
c0 82.667 -27.333 152.667 -82 210s-124 86 -208 86c-100 0 -178.667 -36.667 -236 -110s-86 -174.666 -86 -303.999c0 -118 27.5 -211.167 82.5 -279.5s128.833 -102.5 221.5 -102.5c91.333 0 165.5 33 222.5 99s85.5 149.333 85.5 250z" />
    <glyph glyph-name="e" unicode="e" horiz-adv-x="1071" 
d="M989 471l-723.001 0.000976562c2.66699 -114 33.334 -202 92.001 -264s139.334 -93 242.001 -93c115.333 0 221.333 38 318 114v-154c-90 -65.333 -209 -98 -357 -98c-144.667 0 -258.334 46.5 -341.001 139.5s-124 223.833 -124 392.5
c0 159.333 45.167 289.166 135.5 389.499s202.5 150.5 336.5 150.5s237.667 -43.333 311 -130s110 -207 110 -361v-86zM820.999 610.001c-0.666992 94.667 -23.5 168.332 -68.5 220.999s-107.5 79 -187.5 79c-77.333 0 -143 -27.667 -197 -83
s-87.333 -127.666 -100 -216.999h553z" />
    <glyph glyph-name="f" unicode="f" horiz-adv-x="641" 
d="M672 1372c-32 18 -68.333 27.001 -109 27.001c-114.667 0 -172 -72.333 -172 -217v-158h240v-140h-240v-884h-163v884h-175v140h175v166c0 107.333 31 192.166 93 254.499s139.333 93.5 232 93.5c50 0 89.667 -6 119 -18v-148z" />
    <glyph glyph-name="g" unicode="g" horiz-adv-x="1206" 
d="M1040 82c0 -376 -179.999 -564 -539.999 -564c-126.667 0 -237.334 24 -332.001 72v164c115.333 -64 225.333 -96 330 -96c252 0 378 134 378 402v112h-4c-78 -130.667 -195.333 -196 -352 -196c-127.333 0 -229.833 45.5 -307.5 136.5s-116.5 213.167 -116.5 366.5
c0 174 41.833 312.333 125.5 415s198.167 154 343.5 154c138 0 240.333 -55.333 307 -166h4v142h164v-942zM876.001 463l-0.000976562 151.001c0 81.333 -27.5 151 -82.5 209s-123.5 87 -205.5 87c-101.333 0 -180.666 -36.833 -237.999 -110.5s-86 -176.834 -86 -309.501
c0 -114 27.5 -205.167 82.5 -273.5s127.833 -102.5 218.5 -102.5c92 0 166.833 32.667 224.5 98s86.5 149 86.5 251z" />
    <glyph glyph-name="h" unicode="h" horiz-adv-x="1159" 
d="M1016 0l-164 0.000976562v590c0 213.333 -79.333 320 -238 320c-80 0 -147.333 -30.833 -202 -92.5s-82 -140.834 -82 -237.501v-580h-164v1516h164v-662h4c78.667 129.333 190.667 194 336 194c230.667 0 346 -139 346 -417v-631z" />
    <glyph glyph-name="i" unicode="i" horiz-adv-x="496" 
d="M250 1284c-29.333 0 -54.333 10 -75 30s-31 45.333 -31 76s10.333 56.167 31 76.5s45.667 30.5 75 30.5c30 0 55.5 -10.167 76.5 -30.5s31.5 -45.833 31.5 -76.5c0 -29.333 -10.5 -54.333 -31.5 -75s-46.5 -31 -76.5 -31zM330 0h-164v1024h164v-1024z" />
    <glyph glyph-name="j" unicode="j" horiz-adv-x="496" 
d="M330 43c0 -168 -33.833 -297.5 -101.5 -388.5s-164.5 -136.5 -290.5 -136.5c-46.667 0 -92 10.667 -136 32v153c49.333 -30 96 -45 140 -45c149.333 0 224 119.333 224 358v1008h164v-981zM250 1284c-29.333 0 -54.333 10 -75 30s-31 45.333 -31 76
s10.333 56.167 31 76.5s45.667 30.5 75 30.5c30 0 55.5 -10.167 76.5 -30.5s31.5 -45.833 31.5 -76.5c0 -29.333 -10.5 -54.333 -31.5 -75s-46.5 -31 -76.5 -31z" />
    <glyph glyph-name="k" unicode="k" horiz-adv-x="1018" 
d="M1016 0h-230l-452 492h-4v-492h-164v1516h164v-961h4l430 469h215l-475 -494z" />
    <glyph glyph-name="l" unicode="l" horiz-adv-x="496" 
d="M330 0h-164v1516h164v-1516z" />
    <glyph glyph-name="m" unicode="m" horiz-adv-x="1764" 
d="M1620 0h-164v588c0 113.333 -17.5 195.333 -52.5 246s-93.833 76 -176.5 76c-70 0 -129.5 -32 -178.5 -96s-73.5 -140.667 -73.5 -230v-584h-164v608c0 201.333 -77.667 302 -233 302c-72 0 -131.333 -30.167 -178 -90.5s-70 -138.833 -70 -235.5v-584h-164v1024h164
v-162h4c72.667 124 178.667 186 318 186c70 0 131 -19.5 183 -58.5s87.667 -90.167 107 -153.5c76 141.333 189.333 212 340 212c225.333 0 338 -139 338 -417v-631z" />
    <glyph glyph-name="n" unicode="n" horiz-adv-x="1159" 
d="M1016 0h-164v584c0 217.333 -79.333 326 -238 326c-82 0 -149.833 -30.833 -203.5 -92.5s-80.5 -139.5 -80.5 -233.5v-584h-164v1024h164v-170h4c77.333 129.333 189.333 194 336 194c112 0 197.667 -36.167 257 -108.5s89 -176.833 89 -313.5v-626z" />
    <glyph glyph-name="o" unicode="o" horiz-adv-x="1200" 
d="M594 -24c-151.333 0 -272.169 47.832 -362.502 143.499s-135.5 222.5 -135.5 380.5c0 172 47 306.333 141 403s221 145 381 145c152.667 0 271.834 -47 357.501 -141s128.5 -224.333 128.5 -391c0 -163.333 -46.167 -294.166 -138.5 -392.499
s-216.166 -147.5 -371.499 -147.5zM605.997 909.999c-105.333 0 -188.667 -35.834 -250 -107.501s-92 -170.5 -92 -296.5c0 -121.333 31 -217 93 -287s145 -105 249 -105c106 0 187.5 34.333 244.5 103s85.5 166.334 85.5 293.001c0 128 -28.5 226.667 -85.5 296
s-138.5 104 -244.5 104z" />
    <glyph glyph-name="p" unicode="p" horiz-adv-x="1204" 
d="M334 148h-4v-619h-164v1495h164v-180h4c80.667 136 198.667 204 354 204c132 0 235 -45.833 309 -137.5s111 -214.5 111 -368.5c0 -171.333 -41.667 -308.5 -125 -411.5s-197.333 -154.5 -342 -154.5c-132.667 0 -235 57.333 -307 172zM330 561l0.000976562 -143
c0 -84.667 27.5 -156.5 82.5 -215.5s124.833 -88.5 209.5 -88.5c99.333 0 177.166 38 233.499 114s84.5 181.667 84.5 317c0 114 -26.333 203.333 -79 268s-124 97 -214 97c-95.333 0 -172 -33.167 -230 -99.5s-87 -149.5 -87 -249.5z" />
    <glyph glyph-name="q" unicode="q" horiz-adv-x="1206" 
d="M1040 -471h-163.999v647h-4c-71.333 -133.333 -188 -200 -350 -200c-128.667 0 -231.834 45.833 -309.501 137.5s-116.5 216.5 -116.5 374.5c0 170 42.667 305.833 128 407.5s200 152.5 344 152.5c140 0 241.333 -55.333 304 -166h4v142h164v-1495zM876.001 461
l0.000976562 149c0 84 -27.5 155 -82.5 213s-124.833 87 -209.5 87c-98.667 0 -176.667 -36.5 -234 -109.5s-86 -175.833 -86 -308.5c0 -118 27.667 -210.5 83 -277.5s126.666 -100.5 213.999 -100.5c96 0 172.5 32.833 229.5 98.5s85.5 148.5 85.5 248.5z" />
    <glyph glyph-name="r" unicode="r" horiz-adv-x="712" 
d="M700 858c-28.667 22 -70.001 33 -124.001 33c-70 0 -128.5 -33 -175.5 -99s-70.5 -156 -70.5 -270v-522h-164v1024h164v-211h4c23.333 72 59 128.167 107 168.5s101.667 60.5 161 60.5c42.667 0 75.334 -4.66699 98.001 -14v-170z" />
    <glyph glyph-name="s" unicode="s" horiz-adv-x="869" 
d="M104 37l-0.000976562 176c89.333 -66 187.666 -99 294.999 -99c144 0 216 48 216 144c0 27.333 -6.16699 50.5 -18.5 69.5s-29 35.833 -50 50.5s-45.667 27.834 -74 39.501l-91.5 36.5c-45.333 18 -85.166 36.167 -119.499 54.5s-63 39 -86 62s-40.333 49.167 -52 78.5
s-17.5 63.666 -17.5 102.999c0 48 11 90.5 33 127.5s51.333 68 88 93s78.5 43.833 125.5 56.5s95.5 19 145.5 19c88.667 0 168 -15.333 238 -46v-166c-75.333 49.333 -162 74 -260 74c-30.667 0 -58.334 -3.5 -83.001 -10.5s-45.834 -16.833 -63.501 -29.5
s-31.334 -27.834 -41.001 -45.501s-14.5 -37.167 -14.5 -58.5c0 -26.667 4.83301 -49 14.5 -67s23.834 -34 42.501 -48s41.334 -26.667 68.001 -38l91 -37c45.333 -17.333 86 -35.166 122 -53.499s66.667 -39 92 -62s44.833 -49.5 58.5 -79.5s20.5 -65.667 20.5 -107
c0 -50.667 -11.167 -94.667 -33.5 -132s-52.166 -68.333 -89.499 -93s-80.333 -43 -129 -55s-99.667 -18 -153 -18c-105.333 0 -196.666 20.333 -273.999 61z" />
    <glyph glyph-name="t" unicode="t" horiz-adv-x="694" 
d="M641 10c-38.667 -21.333 -89.667 -32 -153 -32c-179.333 0 -269 100 -269 300v606h-176v140h176v250l164 53v-303h258v-140h-258v-577c0 -68.667 11.667 -117.667 35 -147s62 -44 116 -44c41.333 0 77 11.333 107 34v-140z" />
    <glyph glyph-name="u" unicode="u" horiz-adv-x="1159" 
d="M994 0h-164v162h-4c-68 -124 -173.333 -186 -316 -186c-244 0 -366 145.333 -366 436v612h163v-586c0 -216 82.667 -324 248 -324c80 0 145.833 29.5 197.5 88.5s77.5 136.167 77.5 231.5v590h164v-1024z" />
    <glyph glyph-name="v" unicode="v" horiz-adv-x="981" 
d="M971 1024l-408.001 -1024h-161l-388 1024h180l260 -744c19.333 -54.667 31.333 -102.334 36 -143.001h4c6.66699 51.333 17.334 97.666 32.001 138.999l272 748h173z" />
    <glyph glyph-name="w" unicode="w" horiz-adv-x="1480" 
d="M1456 1024l-307.001 -1024h-170l-211 733c-8 28 -13.333 59.667 -16 95h-4c-2 -24 -9 -55 -21 -93l-229 -735h-164l-310 1024h172l212 -770c6.66699 -23.333 11.334 -54 14.001 -92h8c2 29.333 8 60.666 18 93.999l236 768h150l212 -772
c6.66699 -24.667 11.667 -55.334 15 -92.001h8c1.33301 26 7 56.667 17 92l208 772h162z" />
    <glyph glyph-name="x" unicode="x" horiz-adv-x="940" 
d="M914 1024l-344 -518l338 -506h-191l-201 332c-12.667 20.667 -27.667 46.667 -45 78h-4c-3.33301 -6 -19 -32 -47 -78l-205 -332h-189l349 502l-334 522h191l198 -350l43 -80h4l256 430h181z" />
    <glyph glyph-name="y" unicode="y" horiz-adv-x="991" 
d="M981 1024l-470.998 -1188c-84 -212 -202 -318 -354 -318c-42.667 0 -78.334 4.33301 -107.001 13v147c35.333 -12 67.666 -18 96.999 -18c82.667 0 144.667 49.333 186 148l82 194l-400 1022h182l277 -788c3.33301 -10 10.333 -36 21 -78h6c3.33301 16 10 41.333 20 76
l291 790h170z" />
    <glyph glyph-name="z" unicode="z" horiz-adv-x="926" 
d="M880 977l-606 -837h600v-140h-841v51l606 833h-549v140h790v-47z" />
    <glyph glyph-name="braceleft" unicode="{" horiz-adv-x="618" 
d="M555 -326c-204.667 2.66699 -307.001 105.998 -307.001 309.998v300c0 134.667 -52 205.334 -156 212.001v116c104 6.66699 156 78.667 156 216v292c0 206.667 102.333 311.334 307 314.001v-128c-106 -2.66699 -159 -68.667 -159 -198v-293c0 -140 -50 -226 -150 -258
v-4c100 -30 150 -115.333 150 -256v-289c0 -74 11.833 -126.833 35.5 -158.5s64.834 -48.167 123.501 -49.5v-126z" />
    <glyph glyph-name="bar" unicode="|" horiz-adv-x="490" 
d="M320 -482h-148v2048h148v-2048z" />
    <glyph glyph-name="braceright" unicode="}" horiz-adv-x="618" 
d="M528 496c-104 -6.66699 -156 -77.332 -156 -211.999v-300c0 -204 -102 -307.333 -306 -310v126c58 1.33301 99.167 18 123.5 50s36.5 84.667 36.5 158v289c0 140.667 49.667 226 149 256v4c-99.333 32 -149 118 -149 258v293c0 129.333 -53.333 195.333 -160 198v128
c204 -2.66699 306 -107.334 306 -314.001v-292c0 -137.333 52 -209.333 156 -216v-116z" />
    <glyph glyph-name="asciitilde" unicode="~" horiz-adv-x="1401" 
d="M1194 750c-4.66699 -98.667 -31.502 -175 -80.502 -229s-115.5 -81 -199.5 -81c-72.667 0 -161 36.333 -265 109c-64.667 44.667 -117.667 67 -159 67c-93.333 0 -142 -58.667 -146 -176h-135c3.33301 95.333 29.833 170.833 79.5 226.5s116.834 83.5 201.501 83.5
c70.667 0 149 -29.333 235 -88c88 -60 153.667 -90 197 -90c40.667 0 73.334 16.333 98.001 49s37.667 75.667 39 129h135z" />
    <glyph glyph-name="uni00A0" unicode="&#xa0;" horiz-adv-x="561" 
 />
    <glyph glyph-name="exclamdown" unicode="&#xa1;" horiz-adv-x="582" 
d="M291 826c-30.667 0 -56.834 10.667 -78.501 32s-32.5 47.333 -32.5 78s10.833 56.667 32.5 78s47.834 32 78.501 32c30 0 56 -10.667 78 -32s33 -47.333 33 -78s-11 -56.667 -33 -78s-48 -32 -78 -32zM379 -406h-172l19 1030h134z" />
    <glyph glyph-name="cent" unicode="&#xa2;" horiz-adv-x="1104" 
d="M952 209c-64 -39.333 -137.667 -62.334 -221 -69.001v-189h-125v191c-128.667 14.667 -231.167 68.334 -307.5 161.001s-114.5 208 -114.5 346c0 146 38.167 268.167 114.5 366.5s178.833 159.833 307.5 184.5v213h125v-203c82 -1.33301 155.667 -18.333 221 -51v-172
c-67.333 47.333 -141 73.333 -221 78v-785c81.333 8 155 36.667 221 86v-157zM606 290.999v761c-79.333 -20.667 -141.5 -65.167 -186.5 -133.5s-67.5 -152.5 -67.5 -252.5s22.667 -183 68 -249s107.333 -108 186 -126z" />
    <glyph glyph-name="sterling" unicode="&#xa3;" horiz-adv-x="1104" 
d="M1006 0h-900v135c145.333 46 218 150.333 218 313v187h-197v141h197v254c0 125.333 36.333 228 109 308s166.667 120 282 120c78 0 149 -13.667 213 -41v-155c-66.667 38 -137 57 -211 57c-152.667 0 -229 -102.333 -229 -307v-236h296v-141h-296v-156
c0 -161.333 -64.333 -274.333 -193 -339h711v-140z" />
    <glyph glyph-name="currency" unicode="&#xa4;" horiz-adv-x="1138" 
d="M1038 354l-92 -96l-137 138c-70 -50.667 -149.667 -76 -239 -76c-90.667 0 -170.667 25.333 -240 76l-138 -138l-92 96l138 134c-50.667 75.333 -76 154.333 -76 237c0 86 25.333 165 76 237l-138 136l92 96l138 -137c73.333 51.333 153.333 77 240 77
c86 0 165 -25.667 237 -77l139 137l92 -96l-137 -136c52 -74.667 78 -153.667 78 -237c0 -80.667 -26 -159.667 -78 -237zM570 1002c-77.333 0 -142.5 -27 -195.5 -81s-79.5 -118.667 -79.5 -194s26.833 -140 80.5 -194s118.5 -81 194.5 -81c75.333 0 140.166 27 194.499 81
s81.5 118.667 81.5 194s-27.667 140 -83 194s-119.666 81 -192.999 81z" />
    <glyph glyph-name="yen" unicode="&#xa5;" horiz-adv-x="1104" 
d="M1042 1434l-356.001 -656h285v-139h-334v-207h334v-139h-334v-293h-164v293h-344v139h344v207h-344v139h291l-352 656h192l250 -514c18.667 -38.667 34.334 -75.667 47.001 -111h4c8.66699 28 25 67 49 117l252 508h180z" />
    <glyph glyph-name="brokenbar" unicode="&#xa6;" horiz-adv-x="490" 
d="M320 715h-148v851h148v-851zM320 -482h-148v852h148v-852z" />
    <glyph glyph-name="section" unicode="&#xa7;" horiz-adv-x="918" 
d="M658 416c60 -49.333 90 -111.331 90 -185.998c0 -88 -33.333 -159.333 -100 -214s-151.667 -82 -255 -82c-87.333 0 -167 18.667 -239 56v158c86.667 -49.333 170 -74 250 -74c56 0 99.333 13.167 130 39.5s46 59.5 46 99.5c0 35.333 -11.833 65.166 -35.5 89.499
s-83.834 62.166 -180.501 113.499c-155.333 81.333 -233 187 -233 317c0 108.667 49 190 147 244c-70.667 55.333 -106 129.666 -106 222.999c0 84.667 31.167 154.334 93.5 209.001s144.5 82 246.5 82c86.667 0 159.667 -14.333 219 -43v-158
c-67.333 41.333 -141.666 62 -222.999 62c-112 0 -168 -48 -168 -144c0 -36.667 13.5 -70 40.5 -100s94.833 -71 203.5 -123c148.667 -71.333 223 -169 223 -293c0 -113.333 -49.667 -205.333 -149 -276zM398 905.002c-67.333 -34 -101 -87 -101 -159
c0 -48 18.833 -90.167 56.5 -126.5s103.5 -75.5 197.5 -117.5c58.667 45.333 88 102.666 88 171.999c0 48 -17.5 88.833 -52.5 122.5s-97.833 69.834 -188.5 108.501z" />
    <glyph glyph-name="dieresis" unicode="&#xa8;" horiz-adv-x="848" 
d="M610 1218c-26.667 0 -49.668 9.33105 -69.001 27.998s-29 42.334 -29 71.001c0 28 9.33301 51.333 28 70s41.334 28 68.001 28c28 0 51.667 -9.5 71 -28.5s29 -42.167 29 -69.5s-9.33301 -50.666 -28 -69.999s-42 -29 -70 -29zM225.999 1218
c-28 0 -51.833 9.83105 -71.5 29.498s-29.5 42.834 -29.5 69.501c0 28 9.5 51.333 28.5 70s42.167 28 69.5 28s51 -9.5 71 -28.5s30 -42.167 30 -69.5s-9.66699 -50.666 -29 -69.999s-42.333 -29 -69 -29z" />
    <glyph glyph-name="copyright" unicode="&#xa9;" horiz-adv-x="1823" 
d="M912 -33c-207.333 0 -384.166 73.167 -530.499 219.5s-219.5 323.166 -219.5 530.499s73.167 384.166 219.5 530.499s323.166 219.5 530.499 219.5c206.667 0 383.167 -73.167 529.5 -219.5s219.5 -323.166 219.5 -530.499s-73.167 -384.166 -219.5 -530.499
s-322.833 -219.5 -529.5 -219.5zM912 1379c-182.667 0 -338.667 -64.667 -468 -194s-194 -285.333 -194 -468s64.667 -338.5 194 -467.5s285.333 -193.5 468 -193.5s338.5 64.5 467.5 193.5s193.5 284.833 193.5 467.5s-64.5 338.667 -193.5 468s-284.833 194 -467.5 194z
M1213 266c-76 -46 -165.666 -68.999 -268.999 -68.999c-139.333 0 -256 47.167 -350 141.5s-141 212.166 -141 353.499c0 164.667 48.167 296 144.5 394s221.5 147 375.5 147c88 0 166.667 -17.667 236 -53v-150c-63.333 48 -148 72 -254 72
c-104 0 -189.833 -35.5 -257.5 -106.5s-101.5 -166.5 -101.5 -286.5c0 -116 34.5 -209.167 103.5 -279.5s156.833 -105.5 263.5 -105.5c97.333 0 180.666 26 249.999 78v-136z" />
    <glyph glyph-name="ordfeminine" unicode="&#xaa;" horiz-adv-x="803" 
d="M688 717h-128.999v100h-4c-52.667 -79.333 -129.667 -119 -231 -119c-72.667 0 -131.167 19.833 -175.5 59.5s-66.5 90.5 -66.5 152.5c0 134.667 82.667 213 248 235l229 31c0 112 -50.333 168 -151 168c-90.667 0 -175.334 -28.667 -254.001 -86v128
c74 46.667 162.667 70 266 70c84 0 149.667 -24 197 -72s71 -115.333 71 -202v-465zM559.001 1075l-180.002 -25.001c-112 -15.333 -168 -60 -168 -134c0 -34 12.833 -61.667 38.5 -83s59.834 -32 102.501 -32c54.667 0 102.834 20.333 144.501 61s62.5 89.334 62.5 146.001
v67z" />
    <glyph glyph-name="guillemotleft" unicode="&#xab;" horiz-adv-x="1036" 
d="M946 200h-168l-299 336l299 344h170l-307 -344zM557 200h-166l-299 336l299 344h166l-303 -344z" />
    <glyph glyph-name="logicalnot" unicode="&#xac;" horiz-adv-x="1401" 
d="M1172 254h-132v430h-808v133h940v-563z" />
    <glyph glyph-name="uni00AD" unicode="&#xad;" horiz-adv-x="819" 
d="M690 506h-546v129h546v-129z" />
    <glyph glyph-name="registered" unicode="&#xae;" horiz-adv-x="1823" 
d="M912 -33c-207.333 0 -384.166 73.167 -530.499 219.5s-219.5 323.166 -219.5 530.499s73.167 384.166 219.5 530.499s323.166 219.5 530.499 219.5c206.667 0 383.167 -73.167 529.5 -219.5s219.5 -323.166 219.5 -530.499s-73.167 -384.166 -219.5 -530.499
s-322.833 -219.5 -529.5 -219.5zM912 1379c-182.667 0 -338.667 -64.667 -468 -194s-194 -285.333 -194 -468s64.667 -338.5 194 -467.5s285.333 -193.5 468 -193.5s338.5 64.5 467.5 193.5s193.5 284.833 193.5 467.5s-64.5 338.667 -193.5 468s-284.833 194 -467.5 194z
M1276 248h-161.998l-104 229c-52.667 114.667 -109.334 172 -170.001 172h-88v-401h-133v954h268c111.333 0 197.166 -23.333 257.499 -70s90.5 -110 90.5 -190c0 -65.333 -21.167 -121 -63.5 -167s-101.5 -77 -177.5 -93v-4c52.667 -11.333 105 -70 157 -176zM752.002 1088
v-326.001h143c131.333 0 197 54.667 197 164c0 58.667 -17.667 100.334 -53 125.001s-91.333 37 -168 37h-119z" />
    <glyph glyph-name="macron" unicode="&#xaf;" horiz-adv-x="1200" 
d="M1174 1048l-168 -179.999c65.333 -92 98 -207.333 98 -346c0 -168 -46.333 -301 -139 -399s-216.334 -147 -371.001 -147c-128 0 -234 34 -318 102l-145 -160l-82 78l149 164c-68 91.333 -102 204.666 -102 339.999c0 172 47.333 306.333 142 403s222 145 382 145
c122.667 0 225.334 -32.667 308.001 -98l162 176zM821 836.001c-52.667 49.333 -124.333 74 -215 74c-106 0 -189.5 -35.833 -250.5 -107.5s-91.5 -170.5 -91.5 -296.5c0 -88 16.667 -162.667 50 -224zM891.001 742.001l-508 -552c58 -50.667 131.667 -76 221 -76
c108.667 0 191.5 34.667 248.5 104s85.5 167.333 85.5 294c0 89.333 -15.667 166 -47 230z" />
    <glyph glyph-name="degree" unicode="&#xb0;" horiz-adv-x="772" 
d="M385 897c-76.667 0 -141.999 27.167 -195.999 81.5s-81 120.166 -81 197.499c0 76.667 26.667 141.5 80 194.5s118.333 79.5 195 79.5c77.333 0 143.166 -26.667 197.499 -80s81.5 -118 81.5 -194c0 -77.333 -27 -143.166 -81 -197.499s-119.333 -81.5 -196 -81.5z
M385.001 1333c-43.333 0 -80.332 -15.332 -110.999 -45.999s-46 -67.667 -46 -111c0 -44.667 15 -82.834 45 -114.501s66.667 -47.5 110 -47.5s80.666 16 111.999 48s47 70 47 114s-15.333 81.167 -46 111.5s-67.667 45.5 -111 45.5z" />
    <glyph glyph-name="plusminus" unicode="&#xb1;" horiz-adv-x="1401" 
d="M1172 652h-404v-404h-131v404h-405v132h405v404h131v-404h404v-132zM1172 0h-940v133h940v-133z" />
    <glyph glyph-name="uni00B2" unicode="&#xb2;" horiz-adv-x="750" 
d="M658 584h-554.001v114l240 236c69.333 68 113.333 120.167 132 156.5s28 72.833 28 109.5c0 38.667 -12.667 70.167 -38 94.5s-58.666 36.5 -99.999 36.5c-78.667 0 -150.667 -34 -216 -102v149c56 50.667 134.333 76 235 76c78.667 0 141 -22 187 -66s69 -102 69 -174
c0 -102 -68.333 -218 -205 -348l-164 -156v-4h386v-122z" />
    <glyph glyph-name="uni00B3" unicode="&#xb3;" horiz-adv-x="750" 
d="M129 616l0.000976562 142c68.667 -50.667 141 -76 217 -76c53.333 0 95.333 12.5 126 37.5s46 58.833 46 101.5c0 94 -73 141 -219 141h-84v118h80c131.333 0 197 44.667 197 134c0 79.333 -48 119 -144 119c-62.667 0 -124.667 -23 -186 -69v139c58 34 129 51 213 51
c75.333 0 135.333 -19.833 180 -59.5s67 -91.5 67 -155.5c0 -100.667 -48.333 -169 -145 -205v-4c118 -28 177 -95.333 177 -202c0 -78 -28.333 -141.667 -85 -191s-132.334 -74 -227.001 -74c-91.333 0 -162.333 17.667 -213 53z" />
    <glyph glyph-name="acute" unicode="&#xb4;" horiz-adv-x="578" 
d="M524 1546l-262 -328h-127l223 328h166z" />
    <glyph glyph-name="uni00B5" unicode="&#xb5;" horiz-adv-x="1182" 
d="M1048 0l-170.001 -0.000976562c-15.333 48 -23 104 -23 168h-5c-56 -127.333 -149 -191 -279 -191c-111.333 0 -190.666 41 -237.999 123h-4v-496h-163v1420h163v-626c0 -84.667 23 -152 69 -202s106 -75 180 -75c80.667 0 146.167 28.667 196.5 86
s75.5 134.333 75.5 231v586h166v-759c0 -125.333 10.667 -213.666 32 -264.999z" />
    <glyph glyph-name="paragraph" unicode="&#xb6;" horiz-adv-x="938" 
d="M834 1331l-128 -0.000976562v-1331h-106v1331h-158v-1331h-108v903c-72 0 -131.667 25.333 -179 76s-71 114.334 -71 191.001c0 78 24.833 141.5 74.5 190.5s110.167 73.5 181.5 73.5h494v-103z" />
    <glyph glyph-name="periodcentered" unicode="&#xb7;" horiz-adv-x="444" 
d="M223 510c-30.667 0 -56.834 11 -78.501 33s-32.5 48.333 -32.5 79c0 31.333 10.833 58 32.5 80s47.834 33 78.501 33c31.333 0 58 -11 80 -33s33 -48.667 33 -80c0 -30.667 -11 -57 -33 -79s-48.667 -33 -80 -33z" />
    <glyph glyph-name="cedilla" unicode="&#xb8;" horiz-adv-x="420" 
d="M391 -256c0 -117.333 -91.666 -176 -274.999 -176c-25.333 0 -47 0.666992 -65 2v90c28.667 -4 52 -6 70 -6c94 0 141 30 141 90c0 52 -43 78 -129 78c-6.66699 0 -20.334 -1.33301 -41.001 -4v182h108v-104c58.667 0 105.167 -13.333 139.5 -40s51.5 -64 51.5 -112z" />
    <glyph glyph-name="uni00B9" unicode="&#xb9;" horiz-adv-x="719" 
d="M639 584h-504v112h185v594l-193 -55v125l323 96v-760h189v-112z" />
    <glyph glyph-name="ordmasculine" unicode="&#xba;" horiz-adv-x="882" 
d="M436 696c-111.333 0 -198.834 33.5 -262.501 100.5s-95.5 157.833 -95.5 272.5c0 120.667 34.167 215 102.5 283s158.833 102 271.5 102c108.667 0 194.334 -33.167 257.001 -99.5s94 -156.5 94 -270.5c0 -118.667 -33.167 -213 -99.5 -283s-155.5 -105 -267.5 -105z
M443.999 1344c-70.667 0 -126.833 -23.999 -168.5 -71.999s-62.5 -114.333 -62.5 -199c0 -82.667 19.833 -147.334 59.5 -194.001s96.167 -70 169.5 -70c70 0 125.5 23.833 166.5 71.5s61.5 112.5 61.5 194.5c0 84 -20.167 149.833 -60.5 197.5s-95.5 71.5 -165.5 71.5z" />
    <glyph glyph-name="guillemotright" unicode="&#xbb;" horiz-adv-x="1036" 
d="M948 538l-301 -338h-165l302 338l-302 342h165zM559 538l-299 -338h-170l308 338l-308 342h170z" />
    <glyph glyph-name="onequarter" unicode="&#xbc;" horiz-adv-x="1856" 
d="M639 584h-504v112h185v594l-193 -55v125l323 96v-760h189v-112zM1393 1434l-858 -1434h-144l859 1434h143zM1706 204h-110v-204h-132v204h-393v92l369 554h156v-537h110v-109zM1468 724l-4 0.000976562c-8 -20.667 -20.667 -45 -38 -73l-218 -338h256v323
c0 21.333 1.33301 50.666 4 87.999z" />
    <glyph glyph-name="onehalf" unicode="&#xbd;" horiz-adv-x="1906" 
d="M639 584h-504v112h185v594l-193 -55v125l323 96v-760h189v-112zM1393 1434l-858 -1434h-144l859 1434h143zM1748 1h-554.001v114l240 236c69.333 68 113.333 120.167 132 156.5s28 72.833 28 109.5c0 38.667 -12.667 70.167 -38 94.5s-58.666 36.5 -99.999 36.5
c-78.667 0 -150.667 -34 -216 -102v149c56 50.667 134.333 76 235 76c78.667 0 141 -22 187 -66s69 -102 69 -174c0 -102 -68.333 -218 -205 -348l-164 -156v-4h386v-122z" />
    <glyph glyph-name="threequarters" unicode="&#xbe;" horiz-adv-x="1950" 
d="M129 616l0.000976562 142c68.667 -50.667 141 -76 217 -76c53.333 0 95.333 12.5 126 37.5s46 58.833 46 101.5c0 94 -73 141 -219 141h-84v118h80c131.333 0 197 44.667 197 134c0 79.333 -48 119 -144 119c-62.667 0 -124.667 -23 -186 -69v139c58 34 129 51 213 51
c75.333 0 135.333 -19.833 180 -59.5s67 -91.5 67 -155.5c0 -100.667 -48.333 -169 -145 -205v-4c118 -28 177 -95.333 177 -202c0 -78 -28.333 -141.667 -85 -191s-132.334 -74 -227.001 -74c-91.333 0 -162.333 17.667 -213 53zM1464 1434l-858 -1434h-144l859 1434h143z
M1771 204h-110v-204h-132v204h-393v92l369 554h156v-537h110v-109zM1533 724l-4 0.000976562c-8 -20.667 -20.667 -45 -38 -73l-218 -338h256v323c0 21.333 1.33301 50.666 4 87.999z" />
    <glyph glyph-name="questiondown" unicode="&#xbf;" horiz-adv-x="918" 
d="M625 630c6 -17.333 11.335 -39.8301 16.002 -67.4971s7 -55.167 7 -82.5c0 -42.667 -8.5 -81.167 -25.5 -115.5s-38.167 -66.5 -63.5 -96.5s-53 -58.833 -83 -86.5s-57.667 -55.667 -83 -84s-46.5 -58 -63.5 -89s-25.5 -65.167 -25.5 -102.5
c0 -32 6.16699 -60.333 18.5 -85s29.166 -45.334 50.499 -62.001s46 -29.167 74 -37.5s57.667 -12.5 89 -12.5c112.667 0 210.334 44.333 293.001 133v-176c-102 -64 -207.667 -96 -317 -96c-50.667 0 -98.334 6.66699 -143.001 20s-83.667 33.166 -117 59.499
s-59.833 59.166 -79.5 98.499s-29.5 85 -29.5 137c0 49.333 8.66699 93.333 26 132s39.166 74.167 65.499 106.5s54.833 62.5 85.5 90.5s59.167 55.833 85.5 83.5s48.166 56.5 65.499 86.5s26 63 26 99c0 30.667 -3.66699 58.5 -11 83.5s-14.666 46.167 -21.999 63.5h161z
M535.002 1046c29.333 0 55.333 -10.667 78 -32c22 -20.667 33 -46.667 33 -78c0 -30.667 -11 -56.667 -33 -78c-22 -22 -48 -33 -78 -33s-56 11 -78 33c-22 21.333 -33 47.333 -33 78c0 31.333 11 57.333 33 78c22.667 21.333 48.667 32 78 32z" />
    <glyph glyph-name="Agrave" unicode="&#xc0;" horiz-adv-x="1321" 
d="M1298 0h-186l-152 402h-608l-143 -402h-187l550 1434h174zM905 553l-225 611c-7.33301 20 -14.666 52 -21.999 96h-4c-6.66699 -40.667 -14.334 -72.667 -23.001 -96l-223 -611h497zM758 1566h-127l-262 328h168z" />
    <glyph glyph-name="Aacute" unicode="&#xc1;" horiz-adv-x="1321" 
d="M1298 0h-186l-152 402h-608l-143 -402h-187l550 1434h174zM905 553l-225 611c-7.33301 20 -14.666 52 -21.999 96h-4c-6.66699 -40.667 -14.334 -72.667 -23.001 -96l-223 -611h497zM867 1894l-262 -328h-127l223 328h166z" />
    <glyph glyph-name="Acircumflex" unicode="&#xc2;" horiz-adv-x="1321" 
d="M1298 0h-186l-152 402h-608l-143 -402h-187l550 1434h174zM905 553l-225 611c-7.33301 20 -14.666 52 -21.999 96h-4c-6.66699 -40.667 -14.334 -72.667 -23.001 -96l-223 -611h497zM927 1565h-122l-164 230l-165 -230h-113l215 332h133z" />
    <glyph glyph-name="Atilde" unicode="&#xc3;" horiz-adv-x="1321" 
d="M1298 0h-186l-152 402h-608l-143 -402h-187l550 1434h174zM905 553l-225 611c-7.33301 20 -14.666 52 -21.999 96h-4c-6.66699 -40.667 -14.334 -72.667 -23.001 -96l-223 -611h497zM977 1803c0 -70 -16 -127.167 -48 -171.5s-75.333 -66.5 -130 -66.5
c-47.333 0 -101.333 17.333 -162 52c-51.333 28.667 -91 43 -119 43c-58.667 0 -88 -37.667 -88 -113h-94c0 71.333 16 128.5 48 171.5s76.667 64.5 134 64.5c43.333 0 93 -17.333 149 -52c49.333 -29.333 92 -44 128 -44c56 0 84 38.667 84 116h98z" />
    <glyph glyph-name="Adieresis" unicode="&#xc4;" horiz-adv-x="1321" 
d="M1298 0h-186l-152 402h-608l-143 -402h-187l550 1434h174zM905 553l-225 611c-7.33301 20 -14.666 52 -21.999 96h-4c-6.66699 -40.667 -14.334 -72.667 -23.001 -96l-223 -611h497zM840 1565c-26.667 0 -49.668 9.33105 -69.001 27.998s-29 42.334 -29 71.001
c0 28 9.33301 51.333 28 70s41.334 28 68.001 28c28 0 51.667 -9.5 71 -28.5s29 -42.167 29 -69.5s-9.33301 -50.666 -28 -69.999s-42 -29 -70 -29zM455.999 1565c-28 0 -51.833 9.83105 -71.5 29.498s-29.5 42.834 -29.5 69.501c0 28 9.5 51.333 28.5 70s42.167 28 69.5 28
s51 -9.5 71 -28.5s30 -42.167 30 -69.5s-9.66699 -50.666 -29 -69.999s-42.333 -29 -69 -29z" />
    <glyph glyph-name="Aring" unicode="&#xc5;" horiz-adv-x="1321" 
d="M1298 0l-186 -0.000976562l-152 402h-608l-143 -402h-187l529 1378c-67.333 34.667 -101 89.334 -101 164.001c0 59.333 20 107.333 60 144s90.667 55 152 55c58.667 0 106.667 -18.167 144 -54.5s56 -82.5 56 -138.5c0 -74.667 -32 -130 -96 -166zM656 1659
c-33.333 0 -60.667 -10.501 -82 -31.501s-32 -47.5 -32 -79.5c0 -76 38 -114 114 -114c32 0 59 11 81 33s33 49 33 81c0 32.667 -11 59.334 -33 80.001s-49 31 -81 31zM904.999 552.998l-225 611c-7.33301 20 -14.666 52 -21.999 96h-4
c-6.66699 -40.667 -14.334 -72.667 -23.001 -96l-223 -611h497z" />
    <glyph glyph-name="AE" unicode="&#xc6;" horiz-adv-x="1762" 
d="M1667 0h-759v402h-510l-193 -402h-195l700 1434h924v-152h-559v-477h519v-151h-519v-502h592v-152zM908 553v729h-95l-346 -729h441z" />
    <glyph glyph-name="Ccedilla" unicode="&#xc7;" horiz-adv-x="1268" 
d="M1164 60c-106 -56 -238 -83.9971 -396 -83.9971c-204 0 -367.333 65.667 -490 197s-184 303.666 -184 516.999c0 229.333 69 414.666 207 555.999s313 212 525 212c136 0 248.667 -19.667 338 -59v-179c-102.667 57.333 -216 86 -340 86
c-164.667 0 -298.167 -55 -400.5 -165s-153.5 -257 -153.5 -441c0 -174.667 47.833 -313.834 143.5 -417.501s221.167 -155.5 376.5 -155.5c144 0 268.667 32 374 96v-163zM960 -255.997c0 -117.333 -91.666 -176 -274.999 -176c-25.333 0 -47 0.666992 -65 2v90
c28.667 -4 52 -6 70 -6c94 0 141 30 141 90c0 52 -43 78 -129 78c-6.66699 0 -20.334 -1.33301 -41.001 -4v182h108v-104c58.667 0 105.167 -13.333 139.5 -40s51.5 -64 51.5 -112z" />
    <glyph glyph-name="Egrave" unicode="&#xc8;" horiz-adv-x="1036" 
d="M948 0h-760v1434h728v-152h-560v-477h518v-151h-518v-502h592v-152zM703 1566h-127l-262 328h168z" />
    <glyph glyph-name="Eacute" unicode="&#xc9;" horiz-adv-x="1036" 
d="M948 0h-760v1434h728v-152h-560v-477h518v-151h-518v-502h592v-152zM803 1893l-262 -328h-127l223 328h166z" />
    <glyph glyph-name="Ecircumflex" unicode="&#xca;" horiz-adv-x="1036" 
d="M948 0h-760v1434h728v-152h-560v-477h518v-151h-518v-502h592v-152zM827 1567h-122l-164 230l-165 -230h-113l215 332h133z" />
    <glyph glyph-name="Edieresis" unicode="&#xcb;" horiz-adv-x="1036" 
d="M948 0h-760v1434h728v-152h-560v-477h518v-151h-518v-502h592v-152zM749 1566c-26.667 0 -49.668 9.33105 -69.001 27.998s-29 42.334 -29 71.001c0 28 9.33301 51.333 28 70s41.334 28 68.001 28c28 0 51.667 -9.5 71 -28.5s29 -42.167 29 -69.5
s-9.33301 -50.666 -28 -69.999s-42 -29 -70 -29zM364.999 1566c-28 0 -51.833 9.83105 -71.5 29.498s-29.5 42.834 -29.5 69.501c0 28 9.5 51.333 28.5 70s42.167 28 69.5 28s51 -9.5 71 -28.5s30 -42.167 30 -69.5s-9.66699 -50.666 -29 -69.999s-42.333 -29 -69 -29z" />
    <glyph glyph-name="Igrave" unicode="&#xcc;" horiz-adv-x="545" 
d="M496 1434v-144h-140v-1146h140v-144h-448v144h140v1146h-140v144h448zM416 1566h-127l-262 328h168z" />
    <glyph glyph-name="Iacute" unicode="&#xcd;" horiz-adv-x="545" 
d="M496 1434v-144h-140v-1146h140v-144h-448v144h140v1146h-140v144h448zM509 1894l-262 -328h-127l223 328h166z" />
    <glyph glyph-name="Icircumflex" unicode="&#xce;" horiz-adv-x="545" 
d="M496 1434v-144h-140v-1146h140v-144h-448v144h140v1146h-140v144h448zM560 1567h-122l-164 230l-165 -230h-113l215 332h133z" />
    <glyph glyph-name="Idieresis" unicode="&#xcf;" horiz-adv-x="545" 
d="M496 1434v-144h-140v-1146h140v-144h-448v144h140v1146h-140v144h448zM470 1566c-26.667 0 -49.668 9.33105 -69.001 27.998s-29 42.334 -29 71.001c0 28 9.33301 51.333 28 70s41.334 28 68.001 28c28 0 51.667 -9.5 71 -28.5s29 -42.167 29 -69.5
s-9.33301 -50.666 -28 -69.999s-42 -29 -70 -29zM85.999 1566c-28 0 -51.833 9.83105 -71.5 29.498s-29.5 42.834 -29.5 69.501c0 28 9.5 51.333 28.5 70s42.167 28 69.5 28s51 -9.5 71 -28.5s30 -42.167 30 -69.5s-9.66699 -50.666 -29 -69.999s-42.333 -29 -69 -29z" />
    <glyph glyph-name="Eth" unicode="&#xd0;" horiz-adv-x="1436" 
d="M188 0l-0.000976562 641.001h-160v155h160v638h396c505.333 0 758 -233 758 -699c0 -222.667 -70.167 -400.834 -210.5 -534.501s-328.166 -200.5 -563.499 -200.5h-380zM355.999 1282v-486.001h336v-155h-336v-489h214c188 0 334.333 50.333 439 151
s157 243.334 157 428.001c0 367.333 -195.333 551 -586 551h-224z" />
    <glyph glyph-name="Ntilde" unicode="&#xd1;" horiz-adv-x="1532" 
d="M1344 0l-206 0.00195312l-738 1143c-18.667 28.667 -34 58.667 -46 90h-6c5.33301 -30.667 8 -96.334 8 -197.001v-1036h-168v1434h218l718 -1125c30 -46.667 49.333 -78.667 58 -96h4c-6.66699 41.333 -10 111.666 -10 210.999v1010h168v-1434zM1113 1803
c0 -70 -16 -127.167 -48 -171.5s-75.333 -66.5 -130 -66.5c-47.333 0 -101.333 17.333 -162 52c-51.333 28.667 -91 43 -119 43c-58.667 0 -88 -37.667 -88 -113h-94c0 71.333 16 128.5 48 171.5s76.667 64.5 134 64.5c43.333 0 93 -17.333 149 -52
c49.333 -29.333 92 -44 128 -44c56 0 84 38.667 84 116h98z" />
    <glyph glyph-name="Ograve" unicode="&#xd2;" horiz-adv-x="1544" 
d="M766 -24c-203.333 0 -366.168 66.999 -488.501 200.999s-183.5 308.333 -183.5 523c0 230.667 62.333 414.667 187 552s294.334 206 509.001 206c198 0 357.5 -66.667 478.5 -200s181.5 -307.666 181.5 -522.999c0 -234 -62 -419 -186 -555s-290 -204 -498 -204z
M777.998 1306c-150.667 0 -273 -54.3311 -367 -162.998s-141 -251.334 -141 -428.001s45.833 -318.834 137.5 -426.501s211.167 -161.5 358.5 -161.5c157.333 0 281.333 51.333 372 154s136 246.334 136 431.001c0 189.333 -44 335.666 -132 438.999s-209.333 155 -364 155z
M879.998 1566h-127l-262 328h168z" />
    <glyph glyph-name="Oacute" unicode="&#xd3;" horiz-adv-x="1544" 
d="M766 -24c-203.333 0 -366.168 66.999 -488.501 200.999s-183.5 308.333 -183.5 523c0 230.667 62.333 414.667 187 552s294.334 206 509.001 206c198 0 357.5 -66.667 478.5 -200s181.5 -307.666 181.5 -522.999c0 -234 -62 -419 -186 -555s-290 -204 -498 -204z
M777.998 1306c-150.667 0 -273 -54.3311 -367 -162.998s-141 -251.334 -141 -428.001s45.833 -318.834 137.5 -426.501s211.167 -161.5 358.5 -161.5c157.333 0 281.333 51.333 372 154s136 246.334 136 431.001c0 189.333 -44 335.666 -132 438.999s-209.333 155 -364 155z
M1028 1894l-262 -328h-127l223 328h166z" />
    <glyph glyph-name="Ocircumflex" unicode="&#xd4;" horiz-adv-x="1544" 
d="M766 -24c-203.333 0 -366.168 66.999 -488.501 200.999s-183.5 308.333 -183.5 523c0 230.667 62.333 414.667 187 552s294.334 206 509.001 206c198 0 357.5 -66.667 478.5 -200s181.5 -307.666 181.5 -522.999c0 -234 -62 -419 -186 -555s-290 -204 -498 -204z
M777.998 1306c-150.667 0 -273 -54.3311 -367 -162.998s-141 -251.334 -141 -428.001s45.833 -318.834 137.5 -426.501s211.167 -161.5 358.5 -161.5c157.333 0 281.333 51.333 372 154s136 246.334 136 431.001c0 189.333 -44 335.666 -132 438.999s-209.333 155 -364 155z
M1063 1566h-122l-164 230l-165 -230h-113l215 332h133z" />
    <glyph glyph-name="Otilde" unicode="&#xd5;" horiz-adv-x="1544" 
d="M766 -24c-203.333 0 -366.168 66.999 -488.501 200.999s-183.5 308.333 -183.5 523c0 230.667 62.333 414.667 187 552s294.334 206 509.001 206c198 0 357.5 -66.667 478.5 -200s181.5 -307.666 181.5 -522.999c0 -234 -62 -419 -186 -555s-290 -204 -498 -204z
M777.998 1306c-150.667 0 -273 -54.3311 -367 -162.998s-141 -251.334 -141 -428.001s45.833 -318.834 137.5 -426.501s211.167 -161.5 358.5 -161.5c157.333 0 281.333 51.333 372 154s136 246.334 136 431.001c0 189.333 -44 335.666 -132 438.999s-209.333 155 -364 155z
M1103 1802c0 -70 -16 -127.167 -48 -171.5s-75.333 -66.5 -130 -66.5c-47.333 0 -101.333 17.333 -162 52c-51.333 28.667 -91 43 -119 43c-58.667 0 -88 -37.667 -88 -113h-94c0 71.333 16 128.5 48 171.5s76.667 64.5 134 64.5c43.333 0 93 -17.333 149 -52
c49.333 -29.333 92 -44 128 -44c56 0 84 38.667 84 116h98z" />
    <glyph glyph-name="Odieresis" unicode="&#xd6;" horiz-adv-x="1544" 
d="M766 -24c-203.333 0 -366.168 66.999 -488.501 200.999s-183.5 308.333 -183.5 523c0 230.667 62.333 414.667 187 552s294.334 206 509.001 206c198 0 357.5 -66.667 478.5 -200s181.5 -307.666 181.5 -522.999c0 -234 -62 -419 -186 -555s-290 -204 -498 -204z
M777.998 1306c-150.667 0 -273 -54.3311 -367 -162.998s-141 -251.334 -141 -428.001s45.833 -318.834 137.5 -426.501s211.167 -161.5 358.5 -161.5c157.333 0 281.333 51.333 372 154s136 246.334 136 431.001c0 189.333 -44 335.666 -132 438.999s-209.333 155 -364 155z
M967.998 1563c-26.667 0 -49.668 9.33105 -69.001 27.998s-29 42.334 -29 71.001c0 28 9.33301 51.333 28 70s41.334 28 68.001 28c28 0 51.667 -9.5 71 -28.5s29 -42.167 29 -69.5s-9.33301 -50.666 -28 -69.999s-42 -29 -70 -29zM583.997 1563
c-28 0 -51.833 9.83105 -71.5 29.498s-29.5 42.834 -29.5 69.501c0 28 9.5 51.333 28.5 70s42.167 28 69.5 28s51 -9.5 71 -28.5s30 -42.167 30 -69.5s-9.66699 -50.666 -29 -69.999s-42.333 -29 -69 -29z" />
    <glyph glyph-name="multiply" unicode="&#xd7;" horiz-adv-x="1401" 
d="M1134 258l-94 -94l-340 340l-338 -340l-94 94l340 338l-340 340l94 94l338 -340l340 340l94 -94l-340 -340z" />
    <glyph glyph-name="Oslash" unicode="&#xd8;" horiz-adv-x="1544" 
d="M324 131l-152 -182l-78 65l158 191c-105.333 130 -158 295 -158 495c0 228.667 62.167 412.167 186.5 550.5s294.166 207.5 509.499 207.5c156 0 290 -43 402 -129l135 162l78 -63l-139 -166c122.667 -133.333 184 -309 184 -527c0 -234 -62 -419 -186 -555
s-290 -204 -498 -204c-177.333 0 -324.666 51.667 -441.999 155zM1090 1204c-84 68 -188 101.999 -312 101.999c-151.333 0 -273.833 -54.667 -367.5 -164s-140.5 -251.666 -140.5 -426.999c0 -148.667 32.667 -273 98 -373zM1157 1130l-724.999 -865.999
c87.333 -91.333 198.666 -137 333.999 -137c157.333 0 281.333 51.5 372 154.5s136 246.5 136 430.5c0 173.333 -39 312.666 -117 417.999z" />
    <glyph glyph-name="Ugrave" unicode="&#xd9;" horiz-adv-x="1407" 
d="M1237 580c0 -402.667 -181.667 -604 -545 -604c-348 0 -522 193.667 -522 581v877h168v-866c0 -294 124 -441 372 -441c239.333 0 359 142 359 426v881h168v-854zM830 1566h-127l-262 328h168z" />
    <glyph glyph-name="Uacute" unicode="&#xda;" horiz-adv-x="1407" 
d="M1237 580c0 -402.667 -181.667 -604 -545 -604c-348 0 -522 193.667 -522 581v877h168v-866c0 -294 124 -441 372 -441c239.333 0 359 142 359 426v881h168v-854zM960 1893l-262 -328h-127l223 328h166z" />
    <glyph glyph-name="Ucircumflex" unicode="&#xdb;" horiz-adv-x="1407" 
d="M1237 580c0 -402.667 -181.667 -604 -545 -604c-348 0 -522 193.667 -522 581v877h168v-866c0 -294 124 -441 372 -441c239.333 0 359 142 359 426v881h168v-854zM987 1567h-122l-164 230l-165 -230h-113l215 332h133z" />
    <glyph glyph-name="Udieresis" unicode="&#xdc;" horiz-adv-x="1407" 
d="M1237 580c0 -402.667 -181.667 -604 -545 -604c-348 0 -522 193.667 -522 581v877h168v-866c0 -294 124 -441 372 -441c239.333 0 359 142 359 426v881h168v-854zM895 1567c-26.667 0 -49.668 9.33105 -69.001 27.998s-29 42.334 -29 71.001c0 28 9.33301 51.333 28 70
s41.334 28 68.001 28c28 0 51.667 -9.5 71 -28.5s29 -42.167 29 -69.5s-9.33301 -50.666 -28 -69.999s-42 -29 -70 -29zM510.999 1567c-28 0 -51.833 9.83105 -71.5 29.498s-29.5 42.834 -29.5 69.501c0 28 9.5 51.333 28.5 70s42.167 28 69.5 28s51 -9.5 71 -28.5
s30 -42.167 30 -69.5s-9.66699 -50.666 -29 -69.999s-42.333 -29 -69 -29z" />
    <glyph glyph-name="Yacute" unicode="&#xdd;" horiz-adv-x="1132" 
d="M1120 1434l-473.001 -904v-530h-168v526l-461 908h191l321 -648c4 -8 15.667 -37.333 35 -88h3c6.66699 22.667 19.334 52 38.001 88l336 648h178zM830.999 1894l-262 -328h-127l223 328h166z" />
    <glyph glyph-name="Thorn" unicode="&#xde;" horiz-adv-x="1147" 
d="M356 318l-0.000976562 -318h-168v1434h168v-226h226c154.667 0 273.834 -37.167 357.501 -111.5s125.5 -179.833 125.5 -316.5c0 -136 -47.167 -247 -141.5 -333s-221.5 -129 -381.5 -129h-186zM355.999 1057l0.000976562 -588h176c115.333 0 203.666 26 264.999 78
s92 126.333 92 223c0 191.333 -112 287 -336 287h-197z" />
    <glyph glyph-name="germandbls" unicode="&#xdf;" horiz-adv-x="1114" 
d="M461 2v160.002c50 -32 106.667 -48 170 -48c72.667 0 131.667 24.5 177 73.5s68 114.833 68 197.5c0 100 -33.333 181.167 -100 243.5s-159.334 100.166 -278.001 113.499v130c78.667 13.333 143.334 47.666 194.001 102.999s76 121 76 197
c0 72 -18.333 127.833 -55 167.5s-87.334 59.5 -152.001 59.5c-154 0 -231 -103 -231 -309v-1090h-164v1114c0 128 36.667 230.667 110 308s172 116 296 116c110.667 0 199 -31.667 265 -95s99 -147 99 -251c0 -84.667 -25 -160.667 -75 -228s-115 -114 -195 -140v-5
c252 -50 378 -192 378 -426c0 -118 -37 -217 -111 -297s-172 -120 -294 -120c-67.333 0 -126.666 8.66699 -177.999 26z" />
    <glyph glyph-name="agrave" unicode="&#xe0;" horiz-adv-x="1042" 
d="M899 0l-164.001 0.000976562v160h-4c-71.333 -122.667 -176.333 -184 -315 -184c-102 0 -181.833 27 -239.5 81s-86.5 125.667 -86.5 215c0 191.333 112.667 302.666 338 333.999l307 43c0 174 -70.333 261 -211 261c-123.333 0 -234.666 -42 -333.999 -126v168
c100.667 64 216.667 96 348 96c240.667 0 361 -127.333 361 -382v-666zM734.999 518.001l-247 -34c-76 -10.667 -133.333 -29.5 -172 -56.5s-58 -74.833 -58 -143.5c0 -50 17.833 -90.833 53.5 -122.5s83.167 -47.5 142.5 -47.5c81.333 0 148.5 28.5 201.5 85.5
s79.5 129.167 79.5 216.5v102zM673.999 1218h-127l-262 328h168z" />
    <glyph glyph-name="aacute" unicode="&#xe1;" horiz-adv-x="1042" 
d="M899 0l-164.001 0.000976562v160h-4c-71.333 -122.667 -176.333 -184 -315 -184c-102 0 -181.833 27 -239.5 81s-86.5 125.667 -86.5 215c0 191.333 112.667 302.666 338 333.999l307 43c0 174 -70.333 261 -211 261c-123.333 0 -234.666 -42 -333.999 -126v168
c100.667 64 216.667 96 348 96c240.667 0 361 -127.333 361 -382v-666zM734.999 518.001l-247 -34c-76 -10.667 -133.333 -29.5 -172 -56.5s-58 -74.833 -58 -143.5c0 -50 17.833 -90.833 53.5 -122.5s83.167 -47.5 142.5 -47.5c81.333 0 148.5 28.5 201.5 85.5
s79.5 129.167 79.5 216.5v102zM756.999 1546l-262 -328h-127l223 328h166z" />
    <glyph glyph-name="acircumflex" unicode="&#xe2;" horiz-adv-x="1042" 
d="M899 0l-164.001 0.000976562v160h-4c-71.333 -122.667 -176.333 -184 -315 -184c-102 0 -181.833 27 -239.5 81s-86.5 125.667 -86.5 215c0 191.333 112.667 302.666 338 333.999l307 43c0 174 -70.333 261 -211 261c-123.333 0 -234.666 -42 -333.999 -126v168
c100.667 64 216.667 96 348 96c240.667 0 361 -127.333 361 -382v-666zM734.999 518.001l-247 -34c-76 -10.667 -133.333 -29.5 -172 -56.5s-58 -74.833 -58 -143.5c0 -50 17.833 -90.833 53.5 -122.5s83.167 -47.5 142.5 -47.5c81.333 0 148.5 28.5 201.5 85.5
s79.5 129.167 79.5 216.5v102zM805.999 1218h-122l-164 230l-165 -230h-113l215 332h133z" />
    <glyph glyph-name="atilde" unicode="&#xe3;" horiz-adv-x="1042" 
d="M899 0l-164.001 0.000976562v160h-4c-71.333 -122.667 -176.333 -184 -315 -184c-102 0 -181.833 27 -239.5 81s-86.5 125.667 -86.5 215c0 191.333 112.667 302.666 338 333.999l307 43c0 174 -70.333 261 -211 261c-123.333 0 -234.666 -42 -333.999 -126v168
c100.667 64 216.667 96 348 96c240.667 0 361 -127.333 361 -382v-666zM734.999 518.001l-247 -34c-76 -10.667 -133.333 -29.5 -172 -56.5s-58 -74.833 -58 -143.5c0 -50 17.833 -90.833 53.5 -122.5s83.167 -47.5 142.5 -47.5c81.333 0 148.5 28.5 201.5 85.5
s79.5 129.167 79.5 216.5v102zM843.999 1458c0 -70 -16 -127.167 -48 -171.5s-75.333 -66.5 -130 -66.5c-47.333 0 -101.333 17.333 -162 52c-51.333 28.667 -91 43 -119 43c-58.667 0 -88 -37.667 -88 -113h-94c0 71.333 16 128.5 48 171.5s76.667 64.5 134 64.5
c43.333 0 93 -17.333 149 -52c49.333 -29.333 92 -44 128 -44c56 0 84 38.667 84 116h98z" />
    <glyph glyph-name="adieresis" unicode="&#xe4;" horiz-adv-x="1042" 
d="M899 0l-164.001 0.000976562v160h-4c-71.333 -122.667 -176.333 -184 -315 -184c-102 0 -181.833 27 -239.5 81s-86.5 125.667 -86.5 215c0 191.333 112.667 302.666 338 333.999l307 43c0 174 -70.333 261 -211 261c-123.333 0 -234.666 -42 -333.999 -126v168
c100.667 64 216.667 96 348 96c240.667 0 361 -127.333 361 -382v-666zM734.999 518.001l-247 -34c-76 -10.667 -133.333 -29.5 -172 -56.5s-58 -74.833 -58 -143.5c0 -50 17.833 -90.833 53.5 -122.5s83.167 -47.5 142.5 -47.5c81.333 0 148.5 28.5 201.5 85.5
s79.5 129.167 79.5 216.5v102zM707.999 1218c-26.667 0 -49.668 9.33105 -69.001 27.998s-29 42.334 -29 71.001c0 28 9.33301 51.333 28 70s41.334 28 68.001 28c28 0 51.667 -9.5 71 -28.5s29 -42.167 29 -69.5s-9.33301 -50.666 -28 -69.999s-42 -29 -70 -29z
M323.998 1218c-28 0 -51.833 9.83105 -71.5 29.498s-29.5 42.834 -29.5 69.501c0 28 9.5 51.333 28.5 70s42.167 28 69.5 28s51 -9.5 71 -28.5s30 -42.167 30 -69.5s-9.66699 -50.666 -29 -69.999s-42.333 -29 -69 -29z" />
    <glyph glyph-name="aring" unicode="&#xe5;" horiz-adv-x="1042" 
d="M899 0l-164.001 0.000976562v160h-4c-71.333 -122.667 -176.333 -184 -315 -184c-102 0 -181.833 27 -239.5 81s-86.5 125.667 -86.5 215c0 191.333 112.667 302.666 338 333.999l307 43c0 174 -70.333 261 -211 261c-123.333 0 -234.666 -42 -333.999 -126v168
c100.667 64 216.667 96 348 96c240.667 0 361 -127.333 361 -382v-666zM734.999 518.001l-247 -34c-76 -10.667 -133.333 -29.5 -172 -56.5s-58 -74.833 -58 -143.5c0 -50 17.833 -90.833 53.5 -122.5s83.167 -47.5 142.5 -47.5c81.333 0 148.5 28.5 201.5 85.5
s79.5 129.167 79.5 216.5v102zM516.999 1176c-58 0 -106.166 17.5 -144.499 52.5s-57.5 80.833 -57.5 137.5c0 60 19.667 108 59 144s89.333 54 150 54c59.333 0 108 -18 146 -54s57 -82 57 -138s-20.333 -102.667 -61 -140s-90.334 -56 -149.001 -56zM517 1483
c-32 0 -58.667 -10.833 -80 -32.5s-32 -48.5 -32 -80.5c0 -74.667 37.333 -112 112 -112c33.333 0 61 10.667 83 32s33 48 33 80c0 32.667 -11 59.667 -33 81s-49.667 32 -83 32z" />
    <glyph glyph-name="ae" unicode="&#xe6;" horiz-adv-x="1704" 
d="M1622 471h-725c2 -114 32.333 -202 91 -264s139 -93 241 -93c118 0 225 38 321 114v-154c-88 -65.333 -207.333 -98 -358 -98c-180 0 -307.667 76.333 -383 229h-4c-96.667 -152.667 -225.667 -229 -387 -229c-102 0 -182.167 26.833 -240.5 80.5
s-87.5 125.5 -87.5 215.5c0 200 127.667 308 383 324l262 16c0 198.667 -71.667 298 -215 298c-116.667 0 -226.667 -40.667 -330 -122v164c98.667 64 214.667 96 348 96c154.667 0 254.667 -66.667 300 -200h4c77.333 133.333 196 200 356 200
c134.667 0 239 -43.5 313 -130.5s111 -207.833 111 -362.5v-84zM1454 610c-1.33301 96 -24.1689 170.001 -68.502 222.001s-106.166 78 -185.499 78c-77.333 0 -143.666 -27.333 -198.999 -82s-89.333 -127.334 -102 -218.001h555zM734.997 410.001l0.000976562 62.999
l-203 -12c-92.667 -5.33301 -161.834 -21.666 -207.501 -48.999s-68.5 -72.666 -68.5 -135.999c0 -48.667 17.667 -87.834 53 -117.501s83 -44.5 143 -44.5c79.333 0 146.333 28.167 201 84.5s82 126.833 82 211.5z" />
    <glyph glyph-name="ccedilla" unicode="&#xe7;" horiz-adv-x="946" 
d="M864 47c-78.667 -47.333 -172 -71 -280 -71c-146 0 -263.833 47.5 -353.5 142.5s-134.5 218.167 -134.5 369.5c0 168.667 48.333 304.167 145 406.5s225.667 153.5 387 153.5c90 0 169.333 -16.667 238 -50v-168c-76 53.333 -157.333 80 -244 80
c-104.667 0 -190.5 -37.5 -257.5 -112.5s-100.5 -173.5 -100.5 -295.5c0 -120 31.5 -214.667 94.5 -284s147.5 -104 253.5 -104c89.333 0 173.333 29.667 252 89v-156zM778 -256c0 -117.333 -91.666 -176 -274.999 -176c-25.333 0 -47 0.666992 -65 2v90
c28.667 -4 52 -6 70 -6c94 0 141 30 141 90c0 52 -43 78 -129 78c-6.66699 0 -20.334 -1.33301 -41.001 -4v182h108v-104c58.667 0 105.167 -13.333 139.5 -40s51.5 -64 51.5 -112z" />
    <glyph glyph-name="egrave" unicode="&#xe8;" horiz-adv-x="1071" 
d="M989 471l-723.001 0.000976562c2.66699 -114 33.334 -202 92.001 -264s139.334 -93 242.001 -93c115.333 0 221.333 38 318 114v-154c-90 -65.333 -209 -98 -357 -98c-144.667 0 -258.334 46.5 -341.001 139.5s-124 223.833 -124 392.5
c0 159.333 45.167 289.166 135.5 389.499s202.5 150.5 336.5 150.5s237.667 -43.333 311 -130s110 -207 110 -361v-86zM820.999 610.001c-0.666992 94.667 -23.5 168.332 -68.5 220.999s-107.5 79 -187.5 79c-77.333 0 -143 -27.667 -197 -83
s-87.333 -127.666 -100 -216.999h553zM724.999 1218h-127l-262 328h168z" />
    <glyph glyph-name="eacute" unicode="&#xe9;" horiz-adv-x="1071" 
d="M989 471l-723.001 0.000976562c2.66699 -114 33.334 -202 92.001 -264s139.334 -93 242.001 -93c115.333 0 221.333 38 318 114v-154c-90 -65.333 -209 -98 -357 -98c-144.667 0 -258.334 46.5 -341.001 139.5s-124 223.833 -124 392.5
c0 159.333 45.167 289.166 135.5 389.499s202.5 150.5 336.5 150.5s237.667 -43.333 311 -130s110 -207 110 -361v-86zM820.999 610.001c-0.666992 94.667 -23.5 168.332 -68.5 220.999s-107.5 79 -187.5 79c-77.333 0 -143 -27.667 -197 -83
s-87.333 -127.666 -100 -216.999h553zM794.999 1546l-262 -328h-127l223 328h166z" />
    <glyph glyph-name="ecircumflex" unicode="&#xea;" horiz-adv-x="1071" 
d="M989 471l-723.001 0.000976562c2.66699 -114 33.334 -202 92.001 -264s139.334 -93 242.001 -93c115.333 0 221.333 38 318 114v-154c-90 -65.333 -209 -98 -357 -98c-144.667 0 -258.334 46.5 -341.001 139.5s-124 223.833 -124 392.5
c0 159.333 45.167 289.166 135.5 389.499s202.5 150.5 336.5 150.5s237.667 -43.333 311 -130s110 -207 110 -361v-86zM820.999 610.001c-0.666992 94.667 -23.5 168.332 -68.5 220.999s-107.5 79 -187.5 79c-77.333 0 -143 -27.667 -197 -83
s-87.333 -127.666 -100 -216.999h553zM839.999 1218h-122l-164 230l-165 -230h-113l215 332h133z" />
    <glyph glyph-name="edieresis" unicode="&#xeb;" horiz-adv-x="1071" 
d="M989 471l-723.001 0.000976562c2.66699 -114 33.334 -202 92.001 -264s139.334 -93 242.001 -93c115.333 0 221.333 38 318 114v-154c-90 -65.333 -209 -98 -357 -98c-144.667 0 -258.334 46.5 -341.001 139.5s-124 223.833 -124 392.5
c0 159.333 45.167 289.166 135.5 389.499s202.5 150.5 336.5 150.5s237.667 -43.333 311 -130s110 -207 110 -361v-86zM820.999 610.001c-0.666992 94.667 -23.5 168.332 -68.5 220.999s-107.5 79 -187.5 79c-77.333 0 -143 -27.667 -197 -83
s-87.333 -127.666 -100 -216.999h553zM745.999 1218c-26.667 0 -49.668 9.33105 -69.001 27.998s-29 42.334 -29 71.001c0 28 9.33301 51.333 28 70s41.334 28 68.001 28c28 0 51.667 -9.5 71 -28.5s29 -42.167 29 -69.5s-9.33301 -50.666 -28 -69.999s-42 -29 -70 -29z
M361.998 1218c-28 0 -51.833 9.83105 -71.5 29.498s-29.5 42.834 -29.5 69.501c0 28 9.5 51.333 28.5 70s42.167 28 69.5 28s51 -9.5 71 -28.5s30 -42.167 30 -69.5s-9.66699 -50.666 -29 -69.999s-42.333 -29 -69 -29z" />
    <glyph glyph-name="igrave" unicode="&#xec;" horiz-adv-x="496" 
d="M330 0h-164v1024h164v-1024zM369 1218h-127l-262 328h168z" />
    <glyph glyph-name="iacute" unicode="&#xed;" horiz-adv-x="496" 
d="M330 0h-164v1024h164v-1024zM477 1546l-262 -328h-127l223 328h166z" />
    <glyph glyph-name="icircumflex" unicode="&#xee;" horiz-adv-x="496" 
d="M330 0h-164v1024h164v-1024zM519 1218h-122l-164 230l-165 -230h-113l215 332h133z" />
    <glyph glyph-name="idieresis" unicode="&#xef;" horiz-adv-x="496" 
d="M330 0h-164v1024h164v-1024zM430 1218c-26.667 0 -49.668 9.33105 -69.001 27.998s-29 42.334 -29 71.001c0 28 9.33301 51.333 28 70s41.334 28 68.001 28c28 0 51.667 -9.5 71 -28.5s29 -42.167 29 -69.5s-9.33301 -50.666 -28 -69.999s-42 -29 -70 -29zM45.999 1218
c-28 0 -51.833 9.83105 -71.5 29.498s-29.5 42.834 -29.5 69.501c0 28 9.5 51.333 28.5 70s42.167 28 69.5 28s51 -9.5 71 -28.5s30 -42.167 30 -69.5s-9.66699 -50.666 -29 -69.999s-42.333 -29 -69 -29z" />
    <glyph glyph-name="eth" unicode="&#xf0;" horiz-adv-x="1145" 
d="M786 968l3.99902 3.00098c-60 108 -126 196.667 -198 266l-299 -151l-51 98l270 131c-78.667 70 -166.667 137 -264 201h221c50 -34.667 107.333 -80 172 -136l289 144l55 -94l-264 -130c218 -204.667 327 -462.667 327 -774c0 -160 -43 -291.333 -129 -394
s-203 -154 -351 -154s-263.667 46.667 -347 140s-125 220.666 -125 381.999c0 162 43.333 293.5 130 394.5s203.334 151.5 350.001 151.5c82 0 152 -26 210 -78zM581.999 910.001c-98.667 0 -176.333 -36.167 -233 -108.5s-85 -170.833 -85 -295.5
c0 -120.667 27.667 -216.167 83 -286.5s132.333 -105.5 231 -105.5c92.667 0 166.167 36 220.5 108s81.5 168 81.5 288c0 266.667 -99.333 400 -298 400z" />
    <glyph glyph-name="ntilde" unicode="&#xf1;" horiz-adv-x="1159" 
d="M1016 0h-164v584c0 217.333 -79.333 326 -238 326c-82 0 -149.833 -30.833 -203.5 -92.5s-80.5 -139.5 -80.5 -233.5v-584h-164v1024h164v-170h4c77.333 129.333 189.333 194 336 194c112 0 197.667 -36.167 257 -108.5s89 -176.833 89 -313.5v-626zM908 1458
c0 -70 -16 -127.167 -48 -171.5s-75.333 -66.5 -130 -66.5c-47.333 0 -101.333 17.333 -162 52c-51.333 28.667 -91 43 -119 43c-58.667 0 -88 -37.667 -88 -113h-94c0 71.333 16 128.5 48 171.5s76.667 64.5 134 64.5c43.333 0 93 -17.333 149 -52
c49.333 -29.333 92 -44 128 -44c56 0 84 38.667 84 116h98z" />
    <glyph glyph-name="ograve" unicode="&#xf2;" horiz-adv-x="1200" 
d="M594 -24c-151.333 0 -272.169 47.832 -362.502 143.499s-135.5 222.5 -135.5 380.5c0 172 47 306.333 141 403s221 145 381 145c152.667 0 271.834 -47 357.501 -141s128.5 -224.333 128.5 -391c0 -163.333 -46.167 -294.166 -138.5 -392.499
s-216.166 -147.5 -371.499 -147.5zM605.997 909.999c-105.333 0 -188.667 -35.834 -250 -107.501s-92 -170.5 -92 -296.5c0 -121.333 31 -217 93 -287s145 -105 249 -105c106 0 187.5 34.333 244.5 103s85.5 166.334 85.5 293.001c0 128 -28.5 226.667 -85.5 296
s-138.5 104 -244.5 104zM746.996 1218h-127l-262 328h168z" />
    <glyph glyph-name="oacute" unicode="&#xf3;" horiz-adv-x="1200" 
d="M594 -24c-151.333 0 -272.169 47.832 -362.502 143.499s-135.5 222.5 -135.5 380.5c0 172 47 306.333 141 403s221 145 381 145c152.667 0 271.834 -47 357.501 -141s128.5 -224.333 128.5 -391c0 -163.333 -46.167 -294.166 -138.5 -392.499
s-216.166 -147.5 -371.499 -147.5zM605.997 909.999c-105.333 0 -188.667 -35.834 -250 -107.501s-92 -170.5 -92 -296.5c0 -121.333 31 -217 93 -287s145 -105 249 -105c106 0 187.5 34.333 244.5 103s85.5 166.334 85.5 293.001c0 128 -28.5 226.667 -85.5 296
s-138.5 104 -244.5 104zM845.996 1546l-262 -328h-127l223 328h166z" />
    <glyph glyph-name="ocircumflex" unicode="&#xf4;" horiz-adv-x="1200" 
d="M594 -24c-151.333 0 -272.169 47.832 -362.502 143.499s-135.5 222.5 -135.5 380.5c0 172 47 306.333 141 403s221 145 381 145c152.667 0 271.834 -47 357.501 -141s128.5 -224.333 128.5 -391c0 -163.333 -46.167 -294.166 -138.5 -392.499
s-216.166 -147.5 -371.499 -147.5zM605.997 909.999c-105.333 0 -188.667 -35.834 -250 -107.501s-92 -170.5 -92 -296.5c0 -121.333 31 -217 93 -287s145 -105 249 -105c106 0 187.5 34.333 244.5 103s85.5 166.334 85.5 293.001c0 128 -28.5 226.667 -85.5 296
s-138.5 104 -244.5 104zM884.996 1218h-122l-164 230l-165 -230h-113l215 332h133z" />
    <glyph glyph-name="otilde" unicode="&#xf5;" horiz-adv-x="1200" 
d="M594 -24c-151.333 0 -272.169 47.832 -362.502 143.499s-135.5 222.5 -135.5 380.5c0 172 47 306.333 141 403s221 145 381 145c152.667 0 271.834 -47 357.501 -141s128.5 -224.333 128.5 -391c0 -163.333 -46.167 -294.166 -138.5 -392.499
s-216.166 -147.5 -371.499 -147.5zM605.997 909.999c-105.333 0 -188.667 -35.834 -250 -107.501s-92 -170.5 -92 -296.5c0 -121.333 31 -217 93 -287s145 -105 249 -105c106 0 187.5 34.333 244.5 103s85.5 166.334 85.5 293.001c0 128 -28.5 226.667 -85.5 296
s-138.5 104 -244.5 104zM930.996 1458c0 -70 -16 -127.167 -48 -171.5s-75.333 -66.5 -130 -66.5c-47.333 0 -101.333 17.333 -162 52c-51.333 28.667 -91 43 -119 43c-58.667 0 -88 -37.667 -88 -113h-94c0 71.333 16 128.5 48 171.5s76.667 64.5 134 64.5
c43.333 0 93 -17.333 149 -52c49.333 -29.333 92 -44 128 -44c56 0 84 38.667 84 116h98z" />
    <glyph glyph-name="odieresis" unicode="&#xf6;" horiz-adv-x="1200" 
d="M594 -24c-151.333 0 -272.169 47.832 -362.502 143.499s-135.5 222.5 -135.5 380.5c0 172 47 306.333 141 403s221 145 381 145c152.667 0 271.834 -47 357.501 -141s128.5 -224.333 128.5 -391c0 -163.333 -46.167 -294.166 -138.5 -392.499
s-216.166 -147.5 -371.499 -147.5zM605.997 909.999c-105.333 0 -188.667 -35.834 -250 -107.501s-92 -170.5 -92 -296.5c0 -121.333 31 -217 93 -287s145 -105 249 -105c106 0 187.5 34.333 244.5 103s85.5 166.334 85.5 293.001c0 128 -28.5 226.667 -85.5 296
s-138.5 104 -244.5 104zM792.996 1218c-26.667 0 -49.668 9.33105 -69.001 27.998s-29 42.334 -29 71.001c0 28 9.33301 51.333 28 70s41.334 28 68.001 28c28 0 51.667 -9.5 71 -28.5s29 -42.167 29 -69.5s-9.33301 -50.666 -28 -69.999s-42 -29 -70 -29zM408.995 1218
c-28 0 -51.833 9.83105 -71.5 29.498s-29.5 42.834 -29.5 69.501c0 28 9.5 51.333 28.5 70s42.167 28 69.5 28s51 -9.5 71 -28.5s30 -42.167 30 -69.5s-9.66699 -50.666 -29 -69.999s-42.333 -29 -69 -29z" />
    <glyph glyph-name="divide" unicode="&#xf7;" horiz-adv-x="1401" 
d="M708 868c-29.333 0 -54 10.168 -74 30.501s-30 45.166 -30 74.499c0 30 9.66699 55.667 29 77s44.333 32 75 32c68.667 0 103 -35.667 103 -107c0 -31.333 -10.167 -57 -30.5 -77s-44.5 -30 -72.5 -30zM1172 530.001h-940v134h940v-134zM704 112.001
c-29.333 0 -54.333 10 -75 30s-31 44.333 -31 73c0 30 10 56 30 78s45.333 33 76 33c67.333 0 101 -36.333 101 -109c0 -30 -9.66699 -55 -29 -75s-43.333 -30 -72 -30z" />
    <glyph glyph-name="ugrave" unicode="&#xf9;" horiz-adv-x="1159" 
d="M994 0h-164v162h-4c-68 -124 -173.333 -186 -316 -186c-244 0 -366 145.333 -366 436v612h163v-586c0 -216 82.667 -324 248 -324c80 0 145.833 29.5 197.5 88.5s77.5 136.167 77.5 231.5v590h164v-1024zM705 1218h-127l-262 328h168z" />
    <glyph glyph-name="uacute" unicode="&#xfa;" horiz-adv-x="1159" 
d="M994 0h-164v162h-4c-68 -124 -173.333 -186 -316 -186c-244 0 -366 145.333 -366 436v612h163v-586c0 -216 82.667 -324 248 -324c80 0 145.833 29.5 197.5 88.5s77.5 136.167 77.5 231.5v590h164v-1024zM840 1546l-262 -328h-127l223 328h166z" />
    <glyph glyph-name="ucircumflex" unicode="&#xfb;" horiz-adv-x="1159" 
d="M994 0h-164v162h-4c-68 -124 -173.333 -186 -316 -186c-244 0 -366 145.333 -366 436v612h163v-586c0 -216 82.667 -324 248 -324c80 0 145.833 29.5 197.5 88.5s77.5 136.167 77.5 231.5v590h164v-1024zM854 1218h-122l-164 230l-165 -230h-113l215 332h133z" />
    <glyph glyph-name="udieresis" unicode="&#xfc;" horiz-adv-x="1159" 
d="M994 0h-164v162h-4c-68 -124 -173.333 -186 -316 -186c-244 0 -366 145.333 -366 436v612h163v-586c0 -216 82.667 -324 248 -324c80 0 145.833 29.5 197.5 88.5s77.5 136.167 77.5 231.5v590h164v-1024zM770 1218c-26.667 0 -49.668 9.33105 -69.001 27.998
s-29 42.334 -29 71.001c0 28 9.33301 51.333 28 70s41.334 28 68.001 28c28 0 51.667 -9.5 71 -28.5s29 -42.167 29 -69.5s-9.33301 -50.666 -28 -69.999s-42 -29 -70 -29zM385.999 1218c-28 0 -51.833 9.83105 -71.5 29.498s-29.5 42.834 -29.5 69.501
c0 28 9.5 51.333 28.5 70s42.167 28 69.5 28s51 -9.5 71 -28.5s30 -42.167 30 -69.5s-9.66699 -50.666 -29 -69.999s-42.333 -29 -69 -29z" />
    <glyph glyph-name="yacute" unicode="&#xfd;" horiz-adv-x="991" 
d="M981 1024l-470.998 -1188c-84 -212 -202 -318 -354 -318c-42.667 0 -78.334 4.33301 -107.001 13v147c35.333 -12 67.666 -18 96.999 -18c82.667 0 144.667 49.333 186 148l82 194l-400 1022h182l277 -788c3.33301 -10 10.333 -36 21 -78h6c3.33301 16 10 41.333 20 76
l291 790h170zM762.002 1546l-262 -328h-127l223 328h166z" />
    <glyph glyph-name="thorn" unicode="&#xfe;" horiz-adv-x="1204" 
d="M334 148h-4v-619h-164v1987h164v-672h4c80.667 136 198.667 204 354 204c132 0 235 -45.833 309 -137.5s111 -214.5 111 -368.5c0 -171.333 -41.667 -308.5 -125 -411.5s-197.333 -154.5 -342 -154.5c-132.667 0 -235 57.333 -307 172zM330 561l0.000976562 -143
c0 -84.667 27.5 -156.5 82.5 -215.5s124.833 -88.5 209.5 -88.5c99.333 0 177.166 38 233.499 114s84.5 181.667 84.5 317c0 114 -26.333 203.333 -79 268s-124 97 -214 97c-95.333 0 -172 -33.167 -230 -99.5s-87 -149.5 -87 -249.5z" />
    <glyph glyph-name="ydieresis" unicode="&#xff;" horiz-adv-x="991" 
d="M981 1024l-470.998 -1188c-84 -212 -202 -318 -354 -318c-42.667 0 -78.334 4.33301 -107.001 13v147c35.333 -12 67.666 -18 96.999 -18c82.667 0 144.667 49.333 186 148l82 194l-400 1022h182l277 -788c3.33301 -10 10.333 -36 21 -78h6c3.33301 16 10 41.333 20 76
l291 790h170zM689.002 1218c-26.667 0 -49.668 9.33105 -69.001 27.998s-29 42.334 -29 71.001c0 28 9.33301 51.333 28 70s41.334 28 68.001 28c28 0 51.667 -9.5 71 -28.5s29 -42.167 29 -69.5s-9.33301 -50.666 -28 -69.999s-42 -29 -70 -29zM305.001 1218
c-28 0 -51.833 9.83105 -71.5 29.498s-29.5 42.834 -29.5 69.501c0 28 9.5 51.333 28.5 70s42.167 28 69.5 28s51 -9.5 71 -28.5s30 -42.167 30 -69.5s-9.66699 -50.666 -29 -69.999s-42.333 -29 -69 -29z" />
    <glyph glyph-name="dotlessi" unicode="&#x131;" horiz-adv-x="496" 
d="M330 0h-164v1024h164v-1024z" />
    <glyph glyph-name="Lslash" unicode="&#x141;" horiz-adv-x="964" 
d="M932 0h-744v547l-155 -97v152l155 96v736h168v-631l328 203v-154l-328 -200v-500h576v-152z" />
    <glyph glyph-name="lslash" unicode="&#x142;" horiz-adv-x="561" 
d="M530 811l-174 -123v-688h-164v578l-170 -119v157l170 119v781h164v-670l174 122v-157z" />
    <glyph glyph-name="OE" unicode="&#x152;" horiz-adv-x="1906" 
d="M1810 0h-720c-10.667 -0 -56.667 -4.66699 -138 -14c-65.333 -6.66699 -126 -10 -182 -10c-208 0 -372.667 67 -494 201s-182 308.333 -182 523c0 230.667 63.167 414.667 189.5 552s297.833 206 514.5 206c60 0 119.333 -3.33301 178 -10
c74.667 -9.33301 112.667 -14 114 -14h688v-152h-560v-477h518v-151h-518v-502h592v-152zM1050 160l0.000976562 1118c-106.667 18.667 -196 28 -268 28c-152.667 0 -276.167 -55.333 -370.5 -166s-141.5 -252.334 -141.5 -425.001c0 -172 46.5 -313 139.5 -423
s215.167 -165 366.5 -165c77.333 0 168.666 11 273.999 33z" />
    <glyph glyph-name="oe" unicode="&#x153;" horiz-adv-x="1900" 
d="M1825 471l-724.999 0.00195312c2 -114 32.5 -202 91.5 -264s139.833 -93 242.5 -93c116.667 0 223 38 319 114v-154c-90.667 -65.333 -209.667 -98 -357 -98c-180 0 -307.333 79 -382 237h-4c-87.333 -158 -226 -237 -416 -237c-152.667 0 -273.834 47.667 -363.501 143
s-134.5 221.666 -134.5 378.999c0 172 47.333 306.667 142 404s222 146 382 146c196 0 330 -78.333 402 -235h4c79.333 156.667 207.666 235 384.999 235c130.667 0 232.334 -43.833 305.001 -131.5s109 -206.834 109 -357.501v-88zM1657 610.002
c-1.33301 94.667 -24.332 168.333 -68.999 221s-105.667 79 -183 79c-80 0 -147.833 -28.5 -203.5 -85.5s-88.834 -128.5 -99.501 -214.5h555zM606.002 910.001c-105.333 0 -188.666 -36.167 -249.999 -108.5s-92 -172.166 -92 -299.499c0 -120 30.667 -214.667 92 -284
s144 -104 248 -104c106 0 187.833 34.167 245.5 102.5s86.5 165.5 86.5 291.5c0 129.333 -28.833 228.666 -86.5 297.999s-138.834 104 -243.501 104z" />
    <glyph glyph-name="Scaron" unicode="&#x160;" horiz-adv-x="1088" 
d="M121 58l-0.000976562 198c22.667 -20 49.834 -38 81.501 -54s65 -29.5 100 -40.5s70.167 -19.5 105.5 -25.5s68 -9 98 -9c103.333 0 180.5 19.167 231.5 57.5s76.5 93.5 76.5 165.5c0 38.667 -8.5 72.334 -25.5 101.001s-40.5 54.834 -70.5 78.501
s-65.5 46.334 -106.5 68.001l-132.5 68.5c-50 25.333 -96.667 51 -140 77s-81 54.667 -113 86s-57.167 66.833 -75.5 106.5s-27.5 86.167 -27.5 139.5c0 65.333 14.333 122.166 43 170.499s66.334 88.166 113.001 119.499s99.834 54.666 159.501 69.999s120.5 23 182.5 23
c141.333 0 244.333 -17 309 -51v-189c-84.667 58.667 -193.334 88 -326.001 88c-36.667 0 -73.334 -3.83301 -110.001 -11.5s-69.334 -20.167 -98.001 -37.5s-52 -39.666 -70 -66.999s-27 -60.666 -27 -99.999c0 -36.667 6.83301 -68.334 20.5 -95.001
s33.834 -51 60.501 -73s59.167 -43.333 97.5 -64s82.5 -43.334 132.5 -68.001c51.333 -25.333 100 -52 146 -80s86.333 -59 121 -93s62.167 -71.667 82.5 -113s30.5 -88.666 30.5 -141.999c0 -70.667 -13.833 -130.5 -41.5 -179.5s-65 -88.833 -112 -119.5
s-101.167 -52.834 -162.5 -66.501s-126 -20.5 -194 -20.5c-22.667 0 -50.667 1.83301 -84 5.5s-67.333 9 -102 16s-67.5 15.667 -98.5 26s-55.833 21.833 -74.5 34.5zM825.999 1898l-214 -330h-132l-216 330h115l164 -229l164 229h119z" />
    <glyph glyph-name="scaron" unicode="&#x161;" horiz-adv-x="869" 
d="M104 37l-0.000976562 176c89.333 -66 187.666 -99 294.999 -99c144 0 216 48 216 144c0 27.333 -6.16699 50.5 -18.5 69.5s-29 35.833 -50 50.5s-45.667 27.834 -74 39.501l-91.5 36.5c-45.333 18 -85.166 36.167 -119.499 54.5s-63 39 -86 62s-40.333 49.167 -52 78.5
s-17.5 63.666 -17.5 102.999c0 48 11 90.5 33 127.5s51.333 68 88 93s78.5 43.833 125.5 56.5s95.5 19 145.5 19c88.667 0 168 -15.333 238 -46v-166c-75.333 49.333 -162 74 -260 74c-30.667 0 -58.334 -3.5 -83.001 -10.5s-45.834 -16.833 -63.501 -29.5
s-31.334 -27.834 -41.001 -45.501s-14.5 -37.167 -14.5 -58.5c0 -26.667 4.83301 -49 14.5 -67s23.834 -34 42.501 -48s41.334 -26.667 68.001 -38l91 -37c45.333 -17.333 86 -35.166 122 -53.499s66.667 -39 92 -62s44.833 -49.5 58.5 -79.5s20.5 -65.667 20.5 -107
c0 -50.667 -11.167 -94.667 -33.5 -132s-52.166 -68.333 -89.499 -93s-80.333 -43 -129 -55s-99.667 -18 -153 -18c-105.333 0 -196.666 20.333 -273.999 61zM681.999 1548l-214 -330h-132l-216 330h115l164 -229l164 229h119z" />
    <glyph glyph-name="Ydieresis" unicode="&#x178;" horiz-adv-x="1132" 
d="M1120 1434l-473.001 -904v-530h-168v526l-461 908h191l321 -648c4 -8 15.667 -37.333 35 -88h3c6.66699 22.667 19.334 52 38.001 88l336 648h178zM758.999 1565c-26.667 0 -49.668 9.33105 -69.001 27.998s-29 42.334 -29 71.001c0 28 9.33301 51.333 28 70
s41.334 28 68.001 28c28 0 51.667 -9.5 71 -28.5s29 -42.167 29 -69.5s-9.33301 -50.666 -28 -69.999s-42 -29 -70 -29zM374.998 1565c-28 0 -51.833 9.83105 -71.5 29.498s-29.5 42.834 -29.5 69.501c0 28 9.5 51.333 28.5 70s42.167 28 69.5 28s51 -9.5 71 -28.5
s30 -42.167 30 -69.5s-9.66699 -50.666 -29 -69.999s-42.333 -29 -69 -29z" />
    <glyph glyph-name="Zcaron" unicode="&#x17d;" horiz-adv-x="1168" 
d="M1124 1394l-840 -1242h820v-152h-1071v47l833 1235h-766v152h1024v-40zM900 1895l-214 -330h-132l-216 330h115l164 -229l164 229h119z" />
    <glyph glyph-name="zcaron" unicode="&#x17e;" horiz-adv-x="926" 
d="M880 977l-606 -837h600v-140h-841v51l606 833h-549v140h790v-47zM782 1548l-214 -330h-132l-216 330h115l164 -229l164 229h119z" />
    <glyph glyph-name="florin" unicode="&#x192;" horiz-adv-x="1104" 
d="M952 1266c-32 18.667 -67.999 28 -107.999 28c-97.333 0 -154 -53.333 -170 -160l-31 -208h166v-138h-187l-90 -648c-38.667 -278.667 -154.667 -418 -348 -418c-20.667 0 -50.667 5.33301 -90 16v143c24 -14 52.667 -21 86 -21c100 0 163.333 97.333 190 292l91 636
h-103v138h124l28 219c11.333 87.333 46.166 157.333 104.499 210s132.166 79 221.499 79c42.667 0 81.334 -6.33301 116.001 -19v-149z" />
    <glyph glyph-name="circumflex" unicode="&#x2c6;" horiz-adv-x="760" 
d="M656 1218h-122l-164 230l-165 -230h-113l215 332h133z" />
    <glyph glyph-name="caron" unicode="&#x2c7;" horiz-adv-x="760" 
d="M664 1548l-214 -330h-132l-216 330h115l164 -229l164 229h119z" />
    <glyph glyph-name="uni02C9" unicode="&#x2c9;" horiz-adv-x="635" 
d="M570 1218h-508v109h508v-109z" />
    <glyph glyph-name="ring" unicode="&#x2da;" horiz-adv-x="574" 
d="M284 1176c-58 0 -106.166 17.5 -144.499 52.5s-57.5 80.833 -57.5 137.5c0 60 19.667 108 59 144s89.333 54 150 54c59.333 0 108 -18 146 -54s57 -82 57 -138s-20.333 -102.667 -61 -140s-90.334 -56 -149.001 -56zM284.001 1483c-32 0 -58.667 -10.833 -80 -32.5
s-32 -48.5 -32 -80.5c0 -74.667 37.333 -112 112 -112c33.333 0 61 10.667 83 32s33 48 33 80c0 32.667 -11 59.667 -33 81s-49.667 32 -83 32z" />
    <glyph glyph-name="tilde" unicode="&#x2dc;" horiz-adv-x="690" 
d="M676 1458c0 -70 -16 -127.167 -48 -171.5s-75.333 -66.5 -130 -66.5c-47.333 0 -101.333 17.333 -162 52c-51.333 28.667 -91 43 -119 43c-58.667 0 -88 -37.667 -88 -113h-94c0 71.333 16 128.5 48 171.5s76.667 64.5 134 64.5c43.333 0 93 -17.333 149 -52
c49.333 -29.333 92 -44 128 -44c56 0 84 38.667 84 116h98z" />
    <glyph glyph-name="uni2002" unicode="&#x2002;" horiz-adv-x="1024" 
 />
    <glyph glyph-name="uni2003" unicode="&#x2003;" 
 />
    <glyph glyph-name="uni2005" unicode="&#x2005;" horiz-adv-x="512" 
 />
    <glyph glyph-name="endash" unicode="&#x2013;" horiz-adv-x="1024" 
d="M1024 506h-1024v129h1024v-129z" />
    <glyph glyph-name="emdash" unicode="&#x2014;" 
d="M2048 506h-2048v129h2048v-129z" />
    <glyph glyph-name="quoteleft" unicode="&#x2018;" horiz-adv-x="469" 
d="M364 1458l-108 -446h-150l140 446h118z" />
    <glyph glyph-name="quoteright" unicode="&#x2019;" horiz-adv-x="469" 
d="M368 1458l-140 -446h-118l111 446h147z" />
    <glyph glyph-name="quotesinglbase" unicode="&#x201a;" horiz-adv-x="469" 
d="M346 217l-141 -445h-117l110 445h148z" />
    <glyph glyph-name="quotedblleft" unicode="&#x201c;" horiz-adv-x="772" 
d="M668 1458l-111 -446h-147l141 446h117zM364 1458l-108 -446h-150l140 446h118z" />
    <glyph glyph-name="quotedblright" unicode="&#x201d;" horiz-adv-x="772" 
d="M672 1458l-140 -446h-118l108 446h150zM368 1458l-140 -446h-118l111 446h147z" />
    <glyph glyph-name="quotedblbase" unicode="&#x201e;" horiz-adv-x="772" 
d="M649 217l-139 -445h-119l109 445h149zM346 217l-141 -445h-117l110 445h148z" />
    <glyph glyph-name="dagger" unicode="&#x2020;" horiz-adv-x="768" 
d="M728 893l-262 30l-40 -694h-76l-40 694l-262 -30v150l302 -20l-40 410h156l-40 -410l302 20v-150z" />
    <glyph glyph-name="daggerdbl" unicode="&#x2021;" horiz-adv-x="768" 
d="M728 519l-302 20l40 -310h-156l40 310l-302 -20v150l262 -30l58 192l-58 192l-262 -30v150l302 -20l-40 310h156l-40 -310l302 20v-150l-262 30l-58 -192l58 -192l262 30v-150z" />
    <glyph glyph-name="bullet" unicode="&#x2022;" horiz-adv-x="832" 
d="M418 408c-69.333 0 -129 24.333 -179 73s-75 107.667 -75 177c0 68.667 25 128.167 75 178.5s109.667 75.5 179 75.5s128.333 -25 177 -75s73 -109.667 73 -179s-24.333 -128.333 -73 -177s-107.667 -73 -177 -73z" />
    <glyph glyph-name="ellipsis" unicode="&#x2026;" horiz-adv-x="1501" 
d="M1252 -18c-30.667 0 -56.5 10.667 -77.5 32s-31.5 47.333 -31.5 78s10.5 57.167 31.5 79.5s46.833 33.5 77.5 33.5c30 0 55.833 -11.167 77.5 -33.5s32.5 -48.833 32.5 -79.5s-10.833 -56.667 -32.5 -78s-47.5 -32 -77.5 -32zM750 -18
c-30.667 0 -56.834 10.667 -78.501 32s-32.5 47.333 -32.5 78s10.833 57.167 32.5 79.5s47.834 33.5 78.501 33.5c30 0 55.833 -11.167 77.5 -33.5s32.5 -48.833 32.5 -79.5s-10.833 -56.667 -32.5 -78s-47.5 -32 -77.5 -32zM248 -18c-30.667 0 -56.334 10.667 -77.001 32
s-31 47.333 -31 78s10.333 57.167 31 79.5s46.334 33.5 77.001 33.5c30 0 55.833 -11.167 77.5 -33.5s32.5 -48.833 32.5 -79.5s-10.667 -56.667 -32 -78s-47.333 -32 -78 -32z" />
    <glyph glyph-name="perthousand" unicode="&#x2030;" horiz-adv-x="2478" 
d="M404 715c-98.667 0 -177.333 32.5 -236 97.5s-88 151.833 -88 260.5c0 118.667 31 212.167 93 280.5s145.667 102.5 251 102.5c102 0 181.167 -31.667 237.5 -95s84.5 -152.333 84.5 -267s-31.5 -206.5 -94.5 -275.5s-145.5 -103.5 -247.5 -103.5zM418.001 1346
c-63.333 0 -113.333 -23.501 -150 -70.501s-55 -111.5 -55 -193.5c0 -80.667 18 -143.5 54 -188.5s85 -67.5 147 -67.5c62.667 0 111.667 23.333 147 70s53 111.334 53 194.001c0 80.667 -17.5 143.5 -52.5 188.5s-82.833 67.5 -143.5 67.5zM1366 1434l-922 -1444h-143
l921 1444h144zM2056 -22.001c-98.667 0 -177.332 32.667 -235.999 98s-88 152 -88 260c0 118 31.5 211.667 94.5 281s146.167 104 249.5 104c102 0 181.167 -31.833 237.5 -95.5s84.5 -153.5 84.5 -269.5c0 -114 -31.333 -205.5 -94 -274.5s-145.334 -103.5 -248.001 -103.5
zM2070 607.999c-64 0 -113.999 -23.5 -149.999 -70.5s-54 -111.5 -54 -193.5c0 -80 17.833 -142.333 53.5 -187s84.5 -67 146.5 -67c63.333 0 112.666 23.5 147.999 70.5s53 111.5 53 193.5c0 80.667 -17.667 143.167 -53 187.5s-83.333 66.5 -144 66.5zM1258 -22.001
c-98.667 0 -177.333 32.667 -236 98s-88 152 -88 260c0 118.667 31.333 212.5 94 281.5s146 103.5 250 103.5c101.333 0 180.333 -32 237 -96s85 -153.667 85 -269c0 -114 -31.5 -205.5 -94.5 -274.5s-145.5 -103.5 -247.5 -103.5zM1272 607.999
c-64 0 -114.167 -23.332 -150.5 -69.999s-54.5 -111.334 -54.5 -194.001c0 -79.333 18 -141.5 54 -186.5s85 -67.5 147 -67.5c62.667 0 111.667 23.5 147 70.5s53 111.5 53 193.5c0 81.333 -17.5 144 -52.5 188s-82.833 66 -143.5 66z" />
    <glyph glyph-name="guilsinglleft" unicode="&#x2039;" horiz-adv-x="647" 
d="M557 200h-166l-299 336l299 344h168l-305 -344z" />
    <glyph glyph-name="guilsinglright" unicode="&#x203a;" horiz-adv-x="647" 
d="M559 538l-301 -338h-166l304 338l-304 342h166z" />
    <glyph glyph-name="exclamdbl" unicode="&#x203c;" horiz-adv-x="983" 
d="M375 1434l-19 -1030h-135l-18 1030h172zM291 -18c-30.667 0 -56.834 10.667 -78.501 32s-32.5 47.333 -32.5 78s10.833 56.834 32.5 78.501s47.834 32.5 78.501 32.5c30 0 56 -10.833 78 -32.5s33 -47.834 33 -78.501s-11 -56.667 -33 -78s-48 -32 -78 -32zM776 1434
l-19 -1030h-135l-18 1030h172zM692 -18c-30.667 0 -56.834 10.667 -78.501 32s-32.5 47.333 -32.5 78s10.833 56.834 32.5 78.501s47.834 32.5 78.501 32.5c30 0 56 -10.833 78 -32.5s33 -47.834 33 -78.501s-11 -56.667 -33 -78s-48 -32 -78 -32z" />
    <glyph glyph-name="fraction" unicode="&#x2044;" horiz-adv-x="354" 
d="M690 1434l-858 -1434h-144l859 1434h143z" />
    <glyph glyph-name="uni2049" unicode="&#x2049;" horiz-adv-x="1339" 
d="M375 1434l-19 -1030h-135l-18 1030h172zM291 -18c-30.667 0 -56.834 10.667 -78.501 32s-32.5 47.333 -32.5 78s10.833 56.834 32.5 78.501s47.834 32.5 78.501 32.5c30 0 56 -10.833 78 -32.5s33 -47.834 33 -78.501s-11 -56.667 -33 -78s-48 -32 -78 -32zM756 398
c-6 17.333 -11.3359 39.8301 -16.0029 67.4971s-7 55.167 -7 82.5c0 42.667 8.5 81.167 25.5 115.5s38.167 66.5 63.5 96.5s53 58.833 83 86.5s57.667 55.667 83 84s46.5 58 63.5 89s25.5 65.167 25.5 102.5c0 32 -6.16699 60.333 -18.5 85s-29.166 45.334 -50.499 62.001
s-46 29.167 -74 37.5s-57.667 12.5 -89 12.5c-112.667 0 -210.334 -44.333 -293.001 -133v176c102 64 207.667 96 317 96c50.667 0 98.334 -6.66699 143.001 -20s83.834 -33.166 117.501 -59.499s60.167 -59.166 79.5 -98.499s29 -85 29 -137
c0 -49.333 -8.66699 -93.333 -26 -132s-39.166 -74.167 -65.499 -106.5s-54.833 -62.5 -85.5 -90.5s-59.167 -55.833 -85.5 -83.5s-48.166 -56.5 -65.499 -86.5s-26 -63 -26 -99c0 -30.667 3.66699 -58.5 11 -83.5s14.666 -46.167 21.999 -63.5h-161zM845.997 -18.0029
c-29.333 0 -55.333 10.667 -78 32c-22 21.333 -33 47.333 -33 78c0 31.333 11 57.333 33 78c22 22 48 33 78 33s56 -11 78 -33c22 -20.667 33 -46.667 33 -78c0 -30.667 -11 -56.667 -33 -78c-22.667 -21.333 -48.667 -32 -78 -32z" />
    <glyph glyph-name="Euro" unicode="&#x20ac;" horiz-adv-x="1104" 
d="M1014 50c-88.667 -49.333 -182.667 -74.001 -282 -74.001c-284.667 0 -454.334 168.667 -509.001 506h-121v140h108c-2.66699 20.667 -4 46.334 -4 77.001c0 32 2 68 6 108h-110v140h131c34 160 98.167 285.167 192.5 375.5s208.833 135.5 343.5 135.5
c91.333 0 173 -18.667 245 -56v-162c-76 52 -161.333 78 -256 78c-83.333 0 -157.5 -33.5 -222.5 -100.5s-110.5 -157.167 -136.5 -270.5h497v-140h-519c-5.33301 -66 -5.66602 -127.667 -0.999023 -185h520v-140h-504c48 -244 164.667 -366 350 -366
c87.333 0 178 29 272 87v-153z" />
    <glyph glyph-name="uni20E3" unicode="&#x20e3;" horiz-adv-x="0" 
d="M-717 1434h1434v-1434h-1434v1434zM-593 124h1186v1186h-1186v-1186z" />
    <glyph glyph-name="trademark" unicode="&#x2122;" horiz-adv-x="1583" 
d="M1396 772h-108v478h-4l-219 -478h-59l-214 478h-4v-478h-102v662h127l225 -496h4l228 496h126v-662zM602 1336h-209v-564h-111v564h-206v98h526v-98z" />
    <glyph glyph-name="uni2126" unicode="&#x2126;" horiz-adv-x="1546" 
d="M1449 0l-518.999 -0.000976562v147c230 170 345 381 345 633c0 163.333 -46.333 292.5 -139 387.5s-212 142.5 -358 142.5c-148 0 -269 -47.333 -363 -142s-141 -223.667 -141 -387c0 -252 115.333 -463.333 346 -634v-147h-520v148l348 -1
c-232 156.667 -348 369.334 -348 638.001c0 208.667 61.667 373 185 493s285.666 180 486.999 180c206 0 370.333 -59.5 493 -178.5s184 -283.5 184 -493.5c0 -268 -115.667 -481 -347 -639l347 1v-148z" />
    <glyph glyph-name="uni2139" unicode="&#x2139;" horiz-adv-x="1691" 
d="M845 1411c68.667 0 134.834 -9 198.501 -27s123.167 -43.167 178.5 -75.5s105.833 -71.333 151.5 -117s84.667 -96.5 117 -152.5s57.333 -115.667 75 -179s26.5 -129.666 26.5 -198.999c0 -68.667 -8.83301 -134.667 -26.5 -198s-42.667 -122.833 -75 -178.5
s-71.333 -106.167 -117 -151.5s-96.167 -84.333 -151.5 -117s-114.833 -57.834 -178.5 -75.501s-129.834 -26.5 -198.501 -26.5s-134.834 8.83301 -198.501 26.5s-123.167 42.834 -178.5 75.501s-105.833 71.667 -151.5 117s-84.667 95.833 -117 151.5
s-57.5 115.167 -75.5 178.5s-27 129.333 -27 198c0 69.333 9 135.666 27 198.999s43.167 123 75.5 179s71.333 106.833 117 152.5s96.167 84.667 151.5 117s114.833 57.5 178.5 75.5s129.834 27 198.501 27zM948 255v613h-185v-613h185zM857 956
c34 0 61.332 10.3301 81.999 30.9971s31 47.334 31 80.001s-10.333 58.834 -31 78.501s-48 29.5 -82 29.5c-33.333 0 -60.5 -9.83301 -81.5 -29.5s-31.5 -45.834 -31.5 -78.501c0 -15.333 2.83301 -29.666 8.5 -42.999s13.5 -25.166 23.5 -35.499s21.833 -18.333 35.5 -24
s28.834 -8.5 45.501 -8.5z" />
    <glyph glyph-name="arrowleft" unicode="&#x2190;" horiz-adv-x="1767" 
d="M1565 515h-1082l284 -284h-226l-399 363l399 376h226l-284 -286h1082v-169z" />
    <glyph glyph-name="arrowup" unicode="&#x2191;" horiz-adv-x="967" 
d="M400 -30v1082l-284 -284v226l363 399l376 -399v-226l-286 284v-1082h-169z" />
    <glyph glyph-name="arrowright" unicode="&#x2192;" horiz-adv-x="1767" 
d="M200 685h1082l-284 284h226l399 -363l-399 -376h-226l284 286h-1082v169z" />
    <glyph glyph-name="arrowdown" unicode="&#x2193;" horiz-adv-x="967" 
d="M567 1392v-1082l284 284v-226l-363 -399l-376 399v226l286 -284v1082h169z" />
    <glyph glyph-name="arrowboth" unicode="&#x2194;" horiz-adv-x="1765" 
d="M1366 970l399 -373l-399 -366h-226l283 284h-1082l284 -284h-226l-399 363l399 376h226l-284 -286h1082l-283 286h226z" />
    <glyph glyph-name="arrowupdn" unicode="&#x2195;" horiz-adv-x="967" 
d="M853 116l-373 -399l-366 399v226l284 -283v1082l-284 -284v226l363 399l376 -399v-226l-286 284v-1082l286 283v-226z" />
    <glyph glyph-name="uni2196" unicode="&#x2196;" horiz-adv-x="1501" 
d="M1253 232l-145 -146l-642 645v-482l-219 192v652h650l194 -212h-482z" />
    <glyph glyph-name="uni2197" unicode="&#x2197;" horiz-adv-x="1499" 
d="M891 881h-482l194 212h650v-652l-219 -192v482l-642 -645l-145 146z" />
    <glyph glyph-name="uni2198" unicode="&#x2198;" horiz-adv-x="1501" 
d="M247 946l145 146l642 -645v482l219 -192v-652h-650l-194 212h482z" />
    <glyph glyph-name="uni2199" unicode="&#x2199;" horiz-adv-x="1501" 
d="M609 297h482l-194 -212h-650v652l219 192v-482l642 645l145 -146z" />
    <glyph glyph-name="uni21A9" unicode="&#x21a9;" horiz-adv-x="1767" 
d="M1224 697c42.667 0 82.667 8.33105 120 24.998s69.833 39.167 97.5 67.5s49.5 61.333 65.5 99s24 77.834 24 120.501s-8 82.667 -24 120s-37.833 70 -65.5 98s-60.167 50 -97.5 66s-77.333 24 -120 24l-32 -3v207h32c70.667 0 137.167 -13.333 199.5 -40
s116.833 -63.167 163.5 -109.5s83.5 -100.666 110.5 -162.999s40.5 -128.833 40.5 -199.5s-13.5 -137.167 -40.5 -199.5s-63.833 -116.833 -110.5 -163.5s-101.167 -83.5 -163.5 -110.5s-128.833 -40.5 -199.5 -40.5h-792l349 -344h-275l-478 450l478 440h275l-349 -344h792
z" />
    <glyph glyph-name="uni21AA" unicode="&#x21aa;" horiz-adv-x="1767" 
d="M1334 697l-349 344.002h275l478 -440l-478 -450h-275l349 344h-792c-70.667 0 -137.167 13.5 -199.5 40.5s-116.833 63.833 -163.5 110.5s-83.5 101.167 -110.5 163.5s-40.5 128.833 -40.5 199.5s13.5 137.167 40.5 199.5s63.833 116.666 110.5 162.999
s101.167 82.833 163.5 109.5s128.833 40 199.5 40h32v-207l-32 3c-42.667 0 -82.667 -8 -120 -24s-69.833 -38 -97.5 -66s-49.5 -60.667 -65.5 -98s-24 -77.333 -24 -120s8 -82.834 24 -120.501s37.833 -70.667 65.5 -99s60.167 -50.833 97.5 -67.5s77.333 -25 120 -25h792z
" />
    <glyph glyph-name="uni2206" unicode="&#x2206;" horiz-adv-x="1320" 
d="M1272 0h-1221v76l521 1358h174l526 -1358v-76zM1057 152l-361 968c-22 58.667 -34.667 106 -38 142h-4c-4 -32 -17.333 -79.333 -40 -142l-352 -968h795z" />
    <glyph glyph-name="product" unicode="&#x220f;" horiz-adv-x="1544" 
d="M1362 -469h-168v1749h-838v-1749h-168v1903h1174v-1903z" />
    <glyph glyph-name="summation" unicode="&#x2211;" horiz-adv-x="1263" 
d="M1210 -469h-1159v78l676 883l-639 852v90h1082v-154h-836l594 -784l-625 -812h907v-153z" />
    <glyph glyph-name="minus" unicode="&#x2212;" horiz-adv-x="1401" 
d="M1172 530h-940v134h940v-134z" />
    <glyph glyph-name="approxequal" unicode="&#x2248;" horiz-adv-x="1403" 
d="M1194 960c-4.66699 -97.333 -31.502 -173 -80.502 -227s-115.5 -81 -199.5 -81c-72.667 0 -161 36 -265 108c-64.667 45.333 -117.667 68 -159 68c-93.333 0 -142 -58.667 -146 -176h-135c3.33301 96 29.833 171.333 79.5 226s116.834 82 201.501 82
c70.667 0 149 -29.333 235 -88c88 -60 153.667 -90 197 -90c40.667 0 73.334 16.333 98.001 49s37.667 75.667 39 129h135zM1194 549c-4.66699 -98 -31.502 -173.999 -80.502 -227.999s-115.5 -81 -199.5 -81c-72.667 0 -161 36 -265 108c-62.667 44 -115.667 66 -159 66
c-93.333 0 -142 -58 -146 -174h-135c3.33301 95.333 29.833 170.666 79.5 225.999s116.834 83 201.501 83c70.667 0 149 -29.333 235 -88c88 -60.667 153.667 -91 197 -91c40.667 0 73.334 16.667 98.001 50s37.667 76.333 39 129h135z" />
    <glyph glyph-name="uni231A" unicode="&#x231a;" horiz-adv-x="1726" 
d="M1097 1713v-342h-475v342h475zM1097 3v-334h-475v334h475zM1456 697c0 -55.333 -7.33301 -107 -22 -155l-145 -608h-86v175h-689v-175h-71l-145 608h2c-14.667 48 -22 99.667 -22 155c0 27.333 1.83301 54.333 5.5 81s9.16699 53 16.5 79h-2l145 603h71v-187h689v187h86
l145 -603c6.66699 -26 12 -52.333 16 -79s6 -53.667 6 -81zM866 239c63.333 0 122.833 12 178.5 36s104.334 56.667 146.001 98s74.667 89.833 99 145.5s36.5 115.167 36.5 178.5c0 62.667 -12.167 121.667 -36.5 177s-57.333 103.833 -99 145.5s-90.334 74.5 -146.001 98.5
s-115.167 36 -178.5 36c-62.667 0 -121.834 -12 -177.501 -36s-104.167 -56.833 -145.5 -98.5s-74.166 -90.167 -98.499 -145.5s-36.5 -114.333 -36.5 -177c0 -63.333 12.167 -122.833 36.5 -178.5s57.166 -104.167 98.499 -145.5s89.833 -74 145.5 -98
s114.834 -36 177.501 -36zM1041 726c13.333 0 25.166 -5.66797 35.499 -17.001s15.5 -23.666 15.5 -36.999c0 -14.667 -5.16699 -26.834 -15.5 -36.501s-22.166 -14.5 -35.499 -14.5h-197c-15.333 0 -28.166 4.83301 -38.499 14.5s-15.5 21.834 -15.5 36.501v315
c0 15.333 5.16699 27.833 15.5 37.5s23.166 14.5 38.499 14.5c14.667 0 27 -4.83301 37 -14.5s15 -22.167 15 -37.5v-261h145z" />
    <glyph glyph-name="uni231B" unicode="&#x231b;" horiz-adv-x="1220" 
d="M1074 1591c-0.666992 -47.333 -3.33691 -94.833 -8.00391 -142.5s-12.167 -95 -22.5 -142s-24 -93.333 -41 -139s-37.833 -89.834 -62.5 -132.501c-16.667 -28.667 -32.167 -53 -46.5 -73l-38.5 -52.5l-30.5 -41c-9 -12.333 -16.5 -25.166 -22.5 -38.499
s-10.5 -28.5 -13.5 -45.5s-4.5 -37.5 -4.5 -61.5c0 -24.667 1.5 -45.5 4.5 -62.5s7.5 -32.333 13.5 -46s13.5 -26.667 22.5 -39l31 -41l39 -52.5c14.333 -20 29.833 -44.667 46.5 -74c24.667 -43.333 45.334 -87.666 62.001 -132.999s30.167 -91.5 40.5 -138.5
s17.833 -94.333 22.5 -142s7.33398 -95.167 8.00098 -142.5v-12c0 -10 -3.66699 -18.667 -11 -26s-16 -11 -26 -11h-851c-11.333 0 -20.333 3.66699 -27 11s-10 16 -10 26v12c0 47.333 2.16699 94.833 6.5 142.5s11.5 95 21.5 142s23.333 93.167 40 138.5
s37.334 89.666 62.001 132.999c16.667 29.333 32.334 54 47.001 74l39.5 52.5l31.5 41c9.33301 12.333 17 25.333 23 39s10.667 29 14 46s5 37.833 5 62.5c0 24 -1.66699 44.5 -5 61.5s-8 32.333 -14 46s-13.667 26.5 -23 38.5l-31.5 41l-39 53
c-14.333 20 -29.833 44.333 -46.5 73c-24.667 42.667 -45.334 86.667 -62.001 132s-30.167 91.5 -40.5 138.5s-17.666 94.333 -21.999 142s-6.5 95.167 -6.5 142.5v13c0 11.333 3.33301 20.166 10 26.499s15 9.5 25 9.5h853c10 0 18.667 -3.16699 26 -9.5
s11 -15.166 11 -26.499v-13zM886.997 265l-71.5 74.5029l-73 72l-64.5 58.5c-19.333 16.667 -35 28 -47 34l-5 2h-2c-2.66699 1.33301 -4.83398 2.16602 -6.50098 2.49902s-4.5 0.5 -8.5 0.5c-1.33301 0 -3 -0.5 -5 -1.5s-4.33301 -1.5 -7 -1.5h-5l-3 -2
c-11.333 -6 -26.833 -17.333 -46.5 -34s-41 -36.167 -64 -58.5l-72 -72l-70.5 -74.5l-2 -2l-8 -20c-2.66699 -8.66699 -5.16699 -16.334 -7.5 -23.001l-7.5 -21c-9.33301 -34 -16.333 -64.5 -21 -91.5s-8.16699 -50.167 -10.5 -69.5s-3.66602 -34.333 -3.99902 -45
s-0.5 -16.667 -0.5 -18v-20h674v22c0 0.666992 -0.166992 6.16699 -0.5 16.5s-1.83301 25 -4.5 44s-6.66699 42.167 -12 69.5s-13 58.666 -23 93.999c-2.66699 6.66699 -4.66699 13.5 -6 20.5s-3.33301 14.167 -6 21.5l-7 20z" />
    <glyph glyph-name="uni23CF" unicode="&#x23cf;" horiz-adv-x="1400" 
d="M1170 567v-415h-940v415h940zM700 1318l470 -601h-940z" />
    <glyph glyph-name="uni23E9" unicode="&#x23e9;" horiz-adv-x="1530" 
d="M1430 638l-639 -638v1280zM741 638l-641 -638v1280z" />
    <glyph glyph-name="uni23EA" unicode="&#x23ea;" horiz-adv-x="1530" 
d="M1430 0l-639 638l639 642v-1280zM739 0l-639 638l639 642v-1280z" />
    <glyph glyph-name="uni23EB" unicode="&#x23eb;" horiz-adv-x="1480" 
d="M1380 691h-1280l642 639zM1380 0h-1280l642 639z" />
    <glyph glyph-name="uni23EC" unicode="&#x23ec;" horiz-adv-x="1480" 
d="M1380 1330l-638 -639l-642 639h1280zM1380 639l-638 -639l-642 639h1280z" />
    <glyph glyph-name="uni23ED" unicode="&#x23ed;" horiz-adv-x="1684" 
d="M1584 -64h-128v1280h128v-1280zM1430 576l-640 -640v1280zM740 576l-640 -640v1280z" />
    <glyph glyph-name="uni23EE" unicode="&#x23ee;" horiz-adv-x="1684" 
d="M1584 -64l-640 640l640 640v-1280zM894 -64l-640 640l640 640v-1280zM228 -64h-128v1280h128v-1280z" />
    <glyph glyph-name="uni23EF" unicode="&#x23ef;" horiz-adv-x="1247" 
d="M894 -64h-128v1280h128v-1280zM740 576l-640 -640v1280zM1147 -64h-128v1280h128v-1280z" />
    <glyph glyph-name="uni23F0" unicode="&#x23f0;" 
d="M1191 1558c34.667 46 74 82.667 118 110s92.667 41 146 41c32.667 0 66.667 -5.83301 102 -17.5s72.333 -30.834 111 -57.501c59.333 -40.667 101.833 -84.167 127.5 -130.5s38.5 -93.5 38.5 -141.5c0 -30 -4.33301 -59.667 -13 -89s-21 -58.333 -37 -87
c-34 48.667 -72.5 93.667 -115.5 135s-89.667 77.833 -140 109.5s-104 58.334 -161 80.001s-115.833 37.5 -176.5 47.5zM1051 -110c-72 0 -141.5 9.33301 -208.5 28s-129.5 45 -187.5 79s-111 75 -159 123s-89 101 -123 159s-60.333 120.5 -79 187.5s-28 136.5 -28 208.5
c0 71.333 9.33301 140.333 28 207s45 129 79 187s75 111 123 159s101 89.167 159 123.5s120.5 60.833 187.5 79.5s136.5 28 208.5 28s141.5 -9.33301 208.5 -28s129.5 -45.167 187.5 -79.5s111 -75.5 159 -123.5s89 -101 123 -159s60.333 -120.333 79 -187
s28 -135.667 28 -207c0 -72 -9.33301 -141.5 -28 -208.5s-45 -129.5 -79 -187.5s-75 -111 -123 -159s-101 -89 -159 -123s-120.5 -60.333 -187.5 -79s-136.5 -28 -208.5 -28zM1051 1285c-84 0 -163.167 -16 -237.5 -48s-139 -75.5 -194 -130.5s-98.5 -119.667 -130.5 -194
s-48 -153.5 -48 -237.5c0 -56 7.33301 -110.167 22 -162.5s35.167 -101.166 61.5 -146.499s58 -86.666 95 -123.999s78.167 -69.333 123.5 -96s94 -47.334 146 -62.001s106 -22 162 -22s109.833 7.33301 161.5 22s100.167 35.334 145.5 62.001s86.5 58.667 123.5 96
s68.833 78.666 95.5 123.999s47.334 94.166 62.001 146.499s22 106.5 22 162.5s-7.33301 110 -22 162s-35.334 100.667 -62.001 146s-58.5 86.5 -95.5 123.5s-78.167 68.667 -123.5 95s-93.833 46.833 -145.5 61.5s-105.5 22 -161.5 22zM1390 584h-338.999
c-24.667 0 -45.167 9 -61.5 27s-24.5 39.333 -24.5 64v403c0 24.667 8.16699 45.167 24.5 61.5s36.833 24.5 61.5 24.5c23.333 0 42.666 -8.16699 57.999 -24.5s23 -36.833 23 -61.5v-317h258c25.333 0 46.166 -8.5 62.499 -25.5s24.5 -37.167 24.5 -60.5
c0 -24.667 -8.16699 -46 -24.5 -64s-37.166 -27 -62.499 -27zM869.001 1551c-60 -12.667 -117.835 -31 -173.502 -55s-108 -53.167 -157 -87.5s-94.167 -73 -135.5 -116s-78 -89.833 -110 -140.5c-22.667 33.333 -40.167 67.5 -52.5 102.5s-18.5 70.5 -18.5 106.5
c0 48.667 12.833 96.167 38.5 142.5s67.834 89.5 126.501 129.5c38.667 26.667 75.834 46.167 111.501 58.5s70.167 18.5 103.5 18.5c54 0 103.5 -14.5 148.5 -43.5s84.5 -67.5 118.5 -115.5z" />
    <glyph glyph-name="uni23F3" unicode="&#x23f3;" horiz-adv-x="1220" 
d="M1084 1624c-0.666992 -48 -3.33398 -96.0039 -8.00098 -144.004s-12 -95.5 -22 -142.5s-23.333 -93.167 -40 -138.5s-37.334 -89.333 -62.001 -132c-17.333 -29.333 -33.166 -54 -47.499 -74l-39 -52.5l-31 -41c-9 -12.333 -16.5 -25.333 -22.5 -39s-10.5 -29 -13.5 -46
s-4.5 -37.5 -4.5 -61.5s1.5 -44.5 4.5 -61.5s7.5 -32.167 13.5 -45.5s13.5 -26.166 22.5 -38.499l31 -41l39 -52.5c14.333 -20 29.833 -44.333 46.5 -73c25.333 -43.333 46.333 -87.666 63 -132.999s30 -91.666 40 -138.999s17.333 -95 22 -143s7.33398 -96 8.00098 -144
v-12c0 -10 -3.66699 -17.833 -11 -23.5s-16 -8.5 -26 -8.5h-851c-10 0 -18.667 2.83301 -26 8.5s-11 13.5 -11 23.5v12c0.666992 48 3.16699 96 7.5 144s11.5 95.5 21.5 142.5s23.333 93.333 40 139s37.334 89.834 62.001 132.501c16.667 28.667 32.167 53 46.5 73l39 53
l31.5 41c9.33301 12 17 24.833 23 38.5s10.667 29 14 46s5 37.5 5 61.5s-1.66699 44.5 -5 61.5s-8 32.333 -14 46s-13.667 26.667 -23 39l-31.5 41.5l-39.5 53c-14.667 20 -30.334 44.667 -47.001 74c-24.667 42.667 -45.167 86.5 -61.5 131.5s-29.5 91 -39.5 138
s-17.167 94.5 -21.5 142.5s-6.83301 96 -7.5 144v12c0 10 3.66699 18.667 11 26s16 11 26 11h851c10 0 18.667 -3.66699 26 -11s11 -16 11 -26v-12zM949 14.9961l-44.998 47.5l-60.5 63l-67.5 68c-23.333 23 -45.333 43.667 -66 62s-39 33.333 -55 45s-27.333 17.5 -34 17.5
s-17.834 -5.83301 -33.501 -17.5s-33.834 -26.667 -54.501 -45s-42.667 -39 -66 -62l-67.5 -68l-60.5 -63l-45 -47.5l-17 -17h686zM899.002 1260l9.99414 30l-24 -18c-2 -1.33301 -9.16699 -4.16602 -21.5 -8.49902s-29.666 -9 -51.999 -14s-49.5 -9.5 -81.5 -13.5
s-68.333 -6 -109 -6s-76.834 2 -108.501 6s-58.667 8.5 -81 13.5s-39.666 9.66699 -51.999 14s-19.5 7.16602 -21.5 8.49902l-27 20l10 -32c2 -4.66699 4.33301 -10.667 7 -18c2.66699 -6 5.5 -13.167 8.5 -21.5s6.83301 -17.166 11.5 -26.499
c7.33301 -16 16.833 -34.833 28.5 -56.5s26.834 -44.834 45.501 -69.501c5.33301 -8.66699 9.83301 -15.667 13.5 -21s6.83398 -9.66602 9.50098 -12.999l7 -9l7 -9c16 -20.667 31 -41.667 45 -63s26.167 -44.333 36.5 -69s18.5 -51.334 24.5 -80.001s9 -60.334 9 -95.001
c0 -15.333 3 -25.666 9 -30.999s12 -8 18 -8c6.66699 0 12.834 2.66699 18.501 8s8.5 15.666 8.5 30.999c0 34.667 3 66.334 9 95.001s14.333 55.334 25 80.001s23 48 37 70s29 43.667 45 65l33 44.5c8.66699 11.667 15.834 21.667 21.501 30s10.334 15.5 14.001 21.5
l10.5 17l16.5 32l15.5 30c4 9.33301 7.5 18.166 10.5 26.499l7.5 21.5z" />
    <glyph glyph-name="uni24B6" unicode="&#x24b6;" horiz-adv-x="1764" 
d="M1278 266h-117l-96 253h-383l-90 -253h-118l346 903h110zM1030 614l-142 385c-4.66699 12.667 -9 33 -13 61h-3c-4 -26 -8.66699 -46.333 -14 -61l-141 -385h313zM140 716c0 67.333 9 132.5 27 195.5s43.167 122 75.5 177s71.166 105.167 116.499 150.5
s95.333 84.166 150 116.499s113.5 57.5 176.5 75.5s128.167 27 195.5 27s132.5 -9 195.5 -27s122 -43.167 177 -75.5s105.333 -71.166 151 -116.499s84.667 -95.5 117 -150.5s57.5 -114 75.5 -177s27 -128.167 27 -195.5c0 -68 -9 -133.333 -27 -196
s-43.167 -121.5 -75.5 -176.5s-71.333 -105.167 -117 -150.5s-96 -84.166 -151 -116.499s-114 -57.333 -177 -75s-128.167 -26.5 -195.5 -26.5c-68 0 -133.333 8.83301 -196 26.5s-121.5 42.667 -176.5 75s-105.167 71.166 -150.5 116.499s-84.166 95.5 -116.499 150.5
s-57.333 114 -75 177s-26.5 128.167 -26.5 195.5zM264 716c0 -84.667 16.167 -164.501 48.5 -239.501s76.5 -140.5 132.5 -196.5s121.5 -100.167 196.5 -132.5s154.833 -48.5 239.5 -48.5s164.5 16.333 239.5 49s140.667 77 197 133s100.833 121.333 133.5 196
s49 154.334 49 239.001c0 56.667 -7.5 111.167 -22.5 163.5s-36 101.5 -63 147.5s-59.5 87.833 -97.5 125.5s-79.833 70 -125.5 97s-94.667 47.833 -147 62.5s-106.833 22 -163.5 22c-84.667 0 -164.5 -16.333 -239.5 -49s-140.5 -77 -196.5 -133
s-100.167 -121.5 -132.5 -196.5s-48.5 -154.833 -48.5 -239.5z" />
    <glyph glyph-name="uni24B7" unicode="&#x24b7;" horiz-adv-x="1764" 
d="M658 266l-0.000976562 903h257c78.667 0 140.834 -19 186.501 -57s68.5 -87.667 68.5 -149c0 -51.333 -13.833 -95.833 -41.5 -133.5s-65.834 -64.5 -114.501 -80.5v-3c60.667 -7.33301 109.334 -30.333 146.001 -69s55 -89 55 -151c0 -77.333 -27.833 -140 -83.5 -188
s-125.5 -72 -209.5 -72h-264zM763.999 1074v-292h109c58 0 103.5 14 136.5 42s49.5 67.333 49.5 118c0 88 -57.667 132 -173 132h-122zM763.999 687v-324.999h144c62 0 110.167 14.667 144.5 44s51.5 69.666 51.5 120.999c0 106.667 -72.667 160 -218 160h-122z
M139.999 716.001c0 67.333 9 132.5 27 195.5s43.167 122 75.5 177s71.166 105.167 116.499 150.5s95.333 84.166 150 116.499s113.5 57.5 176.5 75.5s128.167 27 195.5 27s132.5 -9 195.5 -27s122 -43.167 177 -75.5s105.333 -71.166 151 -116.499s84.667 -95.5 117 -150.5
s57.5 -114 75.5 -177s27 -128.167 27 -195.5c0 -68 -9 -133.333 -27 -196s-43.167 -121.5 -75.5 -176.5s-71.333 -105.167 -117 -150.5s-96 -84.166 -151 -116.499s-114 -57.333 -177 -75s-128.167 -26.5 -195.5 -26.5c-68 0 -133.333 8.83301 -196 26.5
s-121.5 42.667 -176.5 75s-105.167 71.166 -150.5 116.499s-84.166 95.5 -116.499 150.5s-57.333 114 -75 177s-26.5 128.167 -26.5 195.5zM263.999 716.001c0 -84.667 16.167 -164.501 48.5 -239.501s76.5 -140.5 132.5 -196.5s121.5 -100.167 196.5 -132.5
s154.833 -48.5 239.5 -48.5s164.5 16.333 239.5 49s140.667 77 197 133s100.833 121.333 133.5 196s49 154.334 49 239.001c0 56.667 -7.5 111.167 -22.5 163.5s-36 101.5 -63 147.5s-59.5 87.833 -97.5 125.5s-79.833 70 -125.5 97s-94.667 47.833 -147 62.5
s-106.833 22 -163.5 22c-84.667 0 -164.5 -16.333 -239.5 -49s-140.5 -77 -196.5 -133s-100.167 -121.5 -132.5 -196.5s-48.5 -154.833 -48.5 -239.5z" />
    <glyph glyph-name="uni24B8" unicode="&#x24b8;" horiz-adv-x="1764" 
d="M1143 304c-66.667 -35.333 -149.667 -53.001 -249 -53.001c-128.667 0 -231.667 41.333 -309 124s-116 191.334 -116 326.001c0 144 43.5 260.667 130.5 350s197.167 134 330.5 134c86 0 157 -12.667 213 -38v-112c-64.667 36 -136 54 -214 54
c-103.333 0 -187.333 -34.667 -252 -104s-97 -162 -97 -278c0 -110 30.167 -197.667 90.5 -263s139.5 -98 237.5 -98c90.667 0 169 20 235 60v-102zM140 715.999c0 67.333 9 132.5 27 195.5s43.167 122 75.5 177s71.166 105.167 116.499 150.5s95.333 84.166 150 116.499
s113.5 57.5 176.5 75.5s128.167 27 195.5 27s132.5 -9 195.5 -27s122 -43.167 177 -75.5s105.333 -71.166 151 -116.499s84.667 -95.5 117 -150.5s57.5 -114 75.5 -177s27 -128.167 27 -195.5c0 -68 -9 -133.333 -27 -196s-43.167 -121.5 -75.5 -176.5
s-71.333 -105.167 -117 -150.5s-96 -84.166 -151 -116.499s-114 -57.333 -177 -75s-128.167 -26.5 -195.5 -26.5c-68 0 -133.333 8.83301 -196 26.5s-121.5 42.667 -176.5 75s-105.167 71.166 -150.5 116.499s-84.166 95.5 -116.499 150.5s-57.333 114 -75 177
s-26.5 128.167 -26.5 195.5zM264 715.999c0 -84.667 16.167 -164.501 48.5 -239.501s76.5 -140.5 132.5 -196.5s121.5 -100.167 196.5 -132.5s154.833 -48.5 239.5 -48.5s164.5 16.333 239.5 49s140.667 77 197 133s100.833 121.333 133.5 196s49 154.334 49 239.001
c0 56.667 -7.5 111.167 -22.5 163.5s-36 101.5 -63 147.5s-59.5 87.833 -97.5 125.5s-79.833 70 -125.5 97s-94.667 47.833 -147 62.5s-106.833 22 -163.5 22c-84.667 0 -164.5 -16.333 -239.5 -49s-140.5 -77 -196.5 -133s-100.167 -121.5 -132.5 -196.5
s-48.5 -154.833 -48.5 -239.5z" />
    <glyph glyph-name="uni24B9" unicode="&#x24b9;" horiz-adv-x="1764" 
d="M598 266v903h250c318 0 477 -146.667 477 -440c0 -139.333 -44.167 -251.333 -132.5 -336s-206.5 -127 -354.5 -127h-240zM704 1074v-712h135c118.667 0 211 31.667 277 95s99 153.333 99 270c0 231.333 -123.333 347 -370 347h-141zM140 716c0 67.333 9 132.5 27 195.5
s43.167 122 75.5 177s71.166 105.167 116.499 150.5s95.333 84.166 150 116.499s113.5 57.5 176.5 75.5s128.167 27 195.5 27s132.5 -9 195.5 -27s122 -43.167 177 -75.5s105.333 -71.166 151 -116.499s84.667 -95.5 117 -150.5s57.5 -114 75.5 -177s27 -128.167 27 -195.5
c0 -68 -9 -133.333 -27 -196s-43.167 -121.5 -75.5 -176.5s-71.333 -105.167 -117 -150.5s-96 -84.166 -151 -116.499s-114 -57.333 -177 -75s-128.167 -26.5 -195.5 -26.5c-68 0 -133.333 8.83301 -196 26.5s-121.5 42.667 -176.5 75s-105.167 71.166 -150.5 116.499
s-84.166 95.5 -116.499 150.5s-57.333 114 -75 177s-26.5 128.167 -26.5 195.5zM264 716c0 -84.667 16.167 -164.501 48.5 -239.501s76.5 -140.5 132.5 -196.5s121.5 -100.167 196.5 -132.5s154.833 -48.5 239.5 -48.5s164.5 16.333 239.5 49s140.667 77 197 133
s100.833 121.333 133.5 196s49 154.334 49 239.001c0 56.667 -7.5 111.167 -22.5 163.5s-36 101.5 -63 147.5s-59.5 87.833 -97.5 125.5s-79.833 70 -125.5 97s-94.667 47.833 -147 62.5s-106.833 22 -163.5 22c-84.667 0 -164.5 -16.333 -239.5 -49s-140.5 -77 -196.5 -133
s-100.167 -121.5 -132.5 -196.5s-48.5 -154.833 -48.5 -239.5z" />
    <glyph glyph-name="uni24BA" unicode="&#x24ba;" horiz-adv-x="1764" 
d="M1127 266h-479v903h459v-95h-353v-301h327v-95h-327v-316h373v-96zM140 716c0 67.333 9 132.5 27 195.5s43.167 122 75.5 177s71.166 105.167 116.499 150.5s95.333 84.166 150 116.499s113.5 57.5 176.5 75.5s128.167 27 195.5 27s132.5 -9 195.5 -27
s122 -43.167 177 -75.5s105.333 -71.166 151 -116.499s84.667 -95.5 117 -150.5s57.5 -114 75.5 -177s27 -128.167 27 -195.5c0 -68 -9 -133.333 -27 -196s-43.167 -121.5 -75.5 -176.5s-71.333 -105.167 -117 -150.5s-96 -84.166 -151 -116.499s-114 -57.333 -177 -75
s-128.167 -26.5 -195.5 -26.5c-68 0 -133.333 8.83301 -196 26.5s-121.5 42.667 -176.5 75s-105.167 71.166 -150.5 116.499s-84.166 95.5 -116.499 150.5s-57.333 114 -75 177s-26.5 128.167 -26.5 195.5zM264 716c0 -84.667 16.167 -164.501 48.5 -239.501
s76.5 -140.5 132.5 -196.5s121.5 -100.167 196.5 -132.5s154.833 -48.5 239.5 -48.5s164.5 16.333 239.5 49s140.667 77 197 133s100.833 121.333 133.5 196s49 154.334 49 239.001c0 56.667 -7.5 111.167 -22.5 163.5s-36 101.5 -63 147.5s-59.5 87.833 -97.5 125.5
s-79.833 70 -125.5 97s-94.667 47.833 -147 62.5s-106.833 22 -163.5 22c-84.667 0 -164.5 -16.333 -239.5 -49s-140.5 -77 -196.5 -133s-100.167 -121.5 -132.5 -196.5s-48.5 -154.833 -48.5 -239.5z" />
    <glyph glyph-name="uni24BB" unicode="&#x24bb;" horiz-adv-x="1764" 
d="M1117 1074h-353v-313h327v-95h-327v-400h-106v903h459v-95zM140 716c0 67.333 9 132.5 27 195.5s43.167 122 75.5 177s71.166 105.167 116.499 150.5s95.333 84.166 150 116.499s113.5 57.5 176.5 75.5s128.167 27 195.5 27s132.5 -9 195.5 -27s122 -43.167 177 -75.5
s105.333 -71.166 151 -116.499s84.667 -95.5 117 -150.5s57.5 -114 75.5 -177s27 -128.167 27 -195.5c0 -68 -9 -133.333 -27 -196s-43.167 -121.5 -75.5 -176.5s-71.333 -105.167 -117 -150.5s-96 -84.166 -151 -116.499s-114 -57.333 -177 -75
s-128.167 -26.5 -195.5 -26.5c-68 0 -133.333 8.83301 -196 26.5s-121.5 42.667 -176.5 75s-105.167 71.166 -150.5 116.499s-84.166 95.5 -116.499 150.5s-57.333 114 -75 177s-26.5 128.167 -26.5 195.5zM264 716c0 -84.667 16.167 -164.501 48.5 -239.501
s76.5 -140.5 132.5 -196.5s121.5 -100.167 196.5 -132.5s154.833 -48.5 239.5 -48.5s164.5 16.333 239.5 49s140.667 77 197 133s100.833 121.333 133.5 196s49 154.334 49 239.001c0 56.667 -7.5 111.167 -22.5 163.5s-36 101.5 -63 147.5s-59.5 87.833 -97.5 125.5
s-79.833 70 -125.5 97s-94.667 47.833 -147 62.5s-106.833 22 -163.5 22c-84.667 0 -164.5 -16.333 -239.5 -49s-140.5 -77 -196.5 -133s-100.167 -121.5 -132.5 -196.5s-48.5 -154.833 -48.5 -239.5z" />
    <glyph glyph-name="uni24BC" unicode="&#x24bc;" horiz-adv-x="1764" 
d="M1174 328c-90.667 -51.333 -191.666 -77 -302.999 -77c-128.667 0 -232.834 41.5 -312.501 124.5s-119.5 193.167 -119.5 330.5c0 140 44.167 254.833 132.5 344.5s200.5 134.5 336.5 134.5c98 0 180.667 -16 248 -48v-118c-73.333 46.667 -160 70 -260 70
c-101.333 0 -184.333 -34.833 -249 -104.5s-97 -160.167 -97 -271.5c0 -114 30 -203.667 90 -269s141.667 -98 245 -98c70 0 131 14 183 42v253h-198v96h304v-409zM140.001 716c0 67.333 9 132.5 27 195.5s43.167 122 75.5 177s71.166 105.167 116.499 150.5
s95.333 84.166 150 116.499s113.5 57.5 176.5 75.5s128.167 27 195.5 27s132.5 -9 195.5 -27s122 -43.167 177 -75.5s105.333 -71.166 151 -116.499s84.667 -95.5 117 -150.5s57.5 -114 75.5 -177s27 -128.167 27 -195.5c0 -68 -9 -133.333 -27 -196
s-43.167 -121.5 -75.5 -176.5s-71.333 -105.167 -117 -150.5s-96 -84.166 -151 -116.499s-114 -57.333 -177 -75s-128.167 -26.5 -195.5 -26.5c-68 0 -133.333 8.83301 -196 26.5s-121.5 42.667 -176.5 75s-105.167 71.166 -150.5 116.499s-84.166 95.5 -116.499 150.5
s-57.333 114 -75 177s-26.5 128.167 -26.5 195.5zM264.001 716c0 -84.667 16.167 -164.501 48.5 -239.501s76.5 -140.5 132.5 -196.5s121.5 -100.167 196.5 -132.5s154.833 -48.5 239.5 -48.5s164.5 16.333 239.5 49s140.667 77 197 133s100.833 121.333 133.5 196
s49 154.334 49 239.001c0 56.667 -7.5 111.167 -22.5 163.5s-36 101.5 -63 147.5s-59.5 87.833 -97.5 125.5s-79.833 70 -125.5 97s-94.667 47.833 -147 62.5s-106.833 22 -163.5 22c-84.667 0 -164.5 -16.333 -239.5 -49s-140.5 -77 -196.5 -133
s-100.167 -121.5 -132.5 -196.5s-48.5 -154.833 -48.5 -239.5z" />
    <glyph glyph-name="uni24BD" unicode="&#x24bd;" horiz-adv-x="1764" 
d="M1218 266h-106v412h-468v-412h-106v903h106v-396h468v396h106v-903zM140 716c0 67.333 9 132.5 27 195.5s43.167 122 75.5 177s71.166 105.167 116.499 150.5s95.333 84.166 150 116.499s113.5 57.5 176.5 75.5s128.167 27 195.5 27s132.5 -9 195.5 -27
s122 -43.167 177 -75.5s105.333 -71.166 151 -116.499s84.667 -95.5 117 -150.5s57.5 -114 75.5 -177s27 -128.167 27 -195.5c0 -68 -9 -133.333 -27 -196s-43.167 -121.5 -75.5 -176.5s-71.333 -105.167 -117 -150.5s-96 -84.166 -151 -116.499s-114 -57.333 -177 -75
s-128.167 -26.5 -195.5 -26.5c-68 0 -133.333 8.83301 -196 26.5s-121.5 42.667 -176.5 75s-105.167 71.166 -150.5 116.499s-84.166 95.5 -116.499 150.5s-57.333 114 -75 177s-26.5 128.167 -26.5 195.5zM264 716c0 -84.667 16.167 -164.501 48.5 -239.501
s76.5 -140.5 132.5 -196.5s121.5 -100.167 196.5 -132.5s154.833 -48.5 239.5 -48.5s164.5 16.333 239.5 49s140.667 77 197 133s100.833 121.333 133.5 196s49 154.334 49 239.001c0 56.667 -7.5 111.167 -22.5 163.5s-36 101.5 -63 147.5s-59.5 87.833 -97.5 125.5
s-79.833 70 -125.5 97s-94.667 47.833 -147 62.5s-106.833 22 -163.5 22c-84.667 0 -164.5 -16.333 -239.5 -49s-140.5 -77 -196.5 -133s-100.167 -121.5 -132.5 -196.5s-48.5 -154.833 -48.5 -239.5z" />
    <glyph glyph-name="uni24BE" unicode="&#x24be;" horiz-adv-x="1764" 
d="M1022 1169v-90h-88v-722h88v-91h-282v91h88v722h-88v90h282zM140 716c0 67.333 9 132.5 27 195.5s43.167 122 75.5 177s71.166 105.167 116.499 150.5s95.333 84.166 150 116.499s113.5 57.5 176.5 75.5s128.167 27 195.5 27s132.5 -9 195.5 -27s122 -43.167 177 -75.5
s105.333 -71.166 151 -116.499s84.667 -95.5 117 -150.5s57.5 -114 75.5 -177s27 -128.167 27 -195.5c0 -68 -9 -133.333 -27 -196s-43.167 -121.5 -75.5 -176.5s-71.333 -105.167 -117 -150.5s-96 -84.166 -151 -116.499s-114 -57.333 -177 -75
s-128.167 -26.5 -195.5 -26.5c-68 0 -133.333 8.83301 -196 26.5s-121.5 42.667 -176.5 75s-105.167 71.166 -150.5 116.499s-84.166 95.5 -116.499 150.5s-57.333 114 -75 177s-26.5 128.167 -26.5 195.5zM264 716c0 -84.667 16.167 -164.501 48.5 -239.501
s76.5 -140.5 132.5 -196.5s121.5 -100.167 196.5 -132.5s154.833 -48.5 239.5 -48.5s164.5 16.333 239.5 49s140.667 77 197 133s100.833 121.333 133.5 196s49 154.334 49 239.001c0 56.667 -7.5 111.167 -22.5 163.5s-36 101.5 -63 147.5s-59.5 87.833 -97.5 125.5
s-79.833 70 -125.5 97s-94.667 47.833 -147 62.5s-106.833 22 -163.5 22c-84.667 0 -164.5 -16.333 -239.5 -49s-140.5 -77 -196.5 -133s-100.167 -121.5 -132.5 -196.5s-48.5 -154.833 -48.5 -239.5z" />
    <glyph glyph-name="uni24BF" unicode="&#x24bf;" horiz-adv-x="1764" 
d="M1010 590c0 -107.333 -22.667 -190.667 -68 -250s-106 -89 -182 -89c-35.333 0 -64.333 5 -87 15v105c22.667 -16.667 52 -25 88 -25c95.333 0 143 81 143 243v580h106v-579zM140 715.999c0 67.333 9 132.5 27 195.5s43.167 122 75.5 177s71.166 105.167 116.499 150.5
s95.333 84.166 150 116.499s113.5 57.5 176.5 75.5s128.167 27 195.5 27s132.5 -9 195.5 -27s122 -43.167 177 -75.5s105.333 -71.166 151 -116.499s84.667 -95.5 117 -150.5s57.5 -114 75.5 -177s27 -128.167 27 -195.5c0 -68 -9 -133.333 -27 -196
s-43.167 -121.5 -75.5 -176.5s-71.333 -105.167 -117 -150.5s-96 -84.166 -151 -116.499s-114 -57.333 -177 -75s-128.167 -26.5 -195.5 -26.5c-68 0 -133.333 8.83301 -196 26.5s-121.5 42.667 -176.5 75s-105.167 71.166 -150.5 116.499s-84.166 95.5 -116.499 150.5
s-57.333 114 -75 177s-26.5 128.167 -26.5 195.5zM264 715.999c0 -84.667 16.167 -164.501 48.5 -239.501s76.5 -140.5 132.5 -196.5s121.5 -100.167 196.5 -132.5s154.833 -48.5 239.5 -48.5s164.5 16.333 239.5 49s140.667 77 197 133s100.833 121.333 133.5 196
s49 154.334 49 239.001c0 56.667 -7.5 111.167 -22.5 163.5s-36 101.5 -63 147.5s-59.5 87.833 -97.5 125.5s-79.833 70 -125.5 97s-94.667 47.833 -147 62.5s-106.833 22 -163.5 22c-84.667 0 -164.5 -16.333 -239.5 -49s-140.5 -77 -196.5 -133
s-100.167 -121.5 -132.5 -196.5s-48.5 -154.833 -48.5 -239.5z" />
    <glyph glyph-name="uni24C0" unicode="&#x24c0;" horiz-adv-x="1764" 
d="M1207 266l-147 0.000976562l-349 413c-13.333 16 -21.333 26.667 -24 32h-3v-445h-106v903h106v-424h3c6 9.33301 14 19.666 24 30.999l337 393h132l-387 -433zM140 716.001c0 67.333 9 132.5 27 195.5s43.167 122 75.5 177s71.166 105.167 116.499 150.5
s95.333 84.166 150 116.499s113.5 57.5 176.5 75.5s128.167 27 195.5 27s132.5 -9 195.5 -27s122 -43.167 177 -75.5s105.333 -71.166 151 -116.499s84.667 -95.5 117 -150.5s57.5 -114 75.5 -177s27 -128.167 27 -195.5c0 -68 -9 -133.333 -27 -196
s-43.167 -121.5 -75.5 -176.5s-71.333 -105.167 -117 -150.5s-96 -84.166 -151 -116.499s-114 -57.333 -177 -75s-128.167 -26.5 -195.5 -26.5c-68 0 -133.333 8.83301 -196 26.5s-121.5 42.667 -176.5 75s-105.167 71.166 -150.5 116.499s-84.166 95.5 -116.499 150.5
s-57.333 114 -75 177s-26.5 128.167 -26.5 195.5zM264 716.001c0 -84.667 16.167 -164.501 48.5 -239.501s76.5 -140.5 132.5 -196.5s121.5 -100.167 196.5 -132.5s154.833 -48.5 239.5 -48.5s164.5 16.333 239.5 49s140.667 77 197 133s100.833 121.333 133.5 196
s49 154.334 49 239.001c0 56.667 -7.5 111.167 -22.5 163.5s-36 101.5 -63 147.5s-59.5 87.833 -97.5 125.5s-79.833 70 -125.5 97s-94.667 47.833 -147 62.5s-106.833 22 -163.5 22c-84.667 0 -164.5 -16.333 -239.5 -49s-140.5 -77 -196.5 -133
s-100.167 -121.5 -132.5 -196.5s-48.5 -154.833 -48.5 -239.5z" />
    <glyph glyph-name="uni24C1" unicode="&#x24c1;" horiz-adv-x="1764" 
d="M1137 266h-469v903h106v-807h363v-96zM140 716c0 67.333 9 132.5 27 195.5s43.167 122 75.5 177s71.166 105.167 116.499 150.5s95.333 84.166 150 116.499s113.5 57.5 176.5 75.5s128.167 27 195.5 27s132.5 -9 195.5 -27s122 -43.167 177 -75.5
s105.333 -71.166 151 -116.499s84.667 -95.5 117 -150.5s57.5 -114 75.5 -177s27 -128.167 27 -195.5c0 -68 -9 -133.333 -27 -196s-43.167 -121.5 -75.5 -176.5s-71.333 -105.167 -117 -150.5s-96 -84.166 -151 -116.499s-114 -57.333 -177 -75
s-128.167 -26.5 -195.5 -26.5c-68 0 -133.333 8.83301 -196 26.5s-121.5 42.667 -176.5 75s-105.167 71.166 -150.5 116.499s-84.166 95.5 -116.499 150.5s-57.333 114 -75 177s-26.5 128.167 -26.5 195.5zM264 716c0 -84.667 16.167 -164.501 48.5 -239.501
s76.5 -140.5 132.5 -196.5s121.5 -100.167 196.5 -132.5s154.833 -48.5 239.5 -48.5s164.5 16.333 239.5 49s140.667 77 197 133s100.833 121.333 133.5 196s49 154.334 49 239.001c0 56.667 -7.5 111.167 -22.5 163.5s-36 101.5 -63 147.5s-59.5 87.833 -97.5 125.5
s-79.833 70 -125.5 97s-94.667 47.833 -147 62.5s-106.833 22 -163.5 22c-84.667 0 -164.5 -16.333 -239.5 -49s-140.5 -77 -196.5 -133s-100.167 -121.5 -132.5 -196.5s-48.5 -154.833 -48.5 -239.5z" />
    <glyph glyph-name="uni24C2" unicode="&#x24c2;" horiz-adv-x="1764" 
d="M140 716c0 67.333 9 132.5 27 195.5s43.167 122 75.5 177s71.166 105.167 116.499 150.5s95.333 84.166 150 116.499s113.5 57.5 176.5 75.5s128.167 27 195.5 27s132.5 -9 195.5 -27s122 -43.167 177 -75.5s105.333 -71.166 151 -116.499s84.667 -95.5 117 -150.5
s57.5 -114 75.5 -177s27 -128.167 27 -195.5c0 -68 -9 -133.333 -27 -196s-43.167 -121.5 -75.5 -176.5s-71.333 -105.167 -117 -150.5s-96 -84.166 -151 -116.499s-114 -57.333 -177 -75s-128.167 -26.5 -195.5 -26.5c-68 0 -133.333 8.83301 -196 26.5
s-121.5 42.667 -176.5 75s-105.167 71.166 -150.5 116.499s-84.166 95.5 -116.499 150.5s-57.333 114 -75 177s-26.5 128.167 -26.5 195.5zM264 716c0 -84.667 16.167 -164.501 48.5 -239.501s76.5 -140.5 132.5 -196.5s121.5 -100.167 196.5 -132.5
s154.833 -48.5 239.5 -48.5s164.5 16.333 239.5 49s140.667 77 197 133s100.833 121.333 133.5 196s49 154.334 49 239.001c0 56.667 -7.5 111.167 -22.5 163.5s-36 101.5 -63 147.5s-59.5 87.833 -97.5 125.5s-79.833 70 -125.5 97s-94.667 47.833 -147 62.5
s-106.833 22 -163.5 22c-84.667 0 -164.5 -16.333 -239.5 -49s-140.5 -77 -196.5 -133s-100.167 -121.5 -132.5 -196.5s-48.5 -154.833 -48.5 -239.5zM1258 265.999h-105v710l-241 -710h-52l-245 710v-710h-102v903h141l233 -694l239 694h132v-903z" />
    <glyph glyph-name="uni24C3" unicode="&#x24c3;" horiz-adv-x="1764" 
d="M1247 266l-130 -0.00195312l-465 720c-12 18 -21.667 37 -29 57h-4c3.33301 -19.333 5 -60.666 5 -123.999v-653h-106v903h138l452 -708c18.667 -29.333 31 -49.666 37 -60.999h2c-4 26 -6 70.333 -6 133v636h106v-903zM140 715.998c0 67.333 9 132.5 27 195.5
s43.167 122 75.5 177s71.166 105.167 116.499 150.5s95.333 84.166 150 116.499s113.5 57.5 176.5 75.5s128.167 27 195.5 27s132.5 -9 195.5 -27s122 -43.167 177 -75.5s105.333 -71.166 151 -116.499s84.667 -95.5 117 -150.5s57.5 -114 75.5 -177s27 -128.167 27 -195.5
c0 -68 -9 -133.333 -27 -196s-43.167 -121.5 -75.5 -176.5s-71.333 -105.167 -117 -150.5s-96 -84.166 -151 -116.499s-114 -57.333 -177 -75s-128.167 -26.5 -195.5 -26.5c-68 0 -133.333 8.83301 -196 26.5s-121.5 42.667 -176.5 75s-105.167 71.166 -150.5 116.499
s-84.166 95.5 -116.499 150.5s-57.333 114 -75 177s-26.5 128.167 -26.5 195.5zM264 715.998c0 -84.667 16.167 -164.501 48.5 -239.501s76.5 -140.5 132.5 -196.5s121.5 -100.167 196.5 -132.5s154.833 -48.5 239.5 -48.5s164.5 16.333 239.5 49s140.667 77 197 133
s100.833 121.333 133.5 196s49 154.334 49 239.001c0 56.667 -7.5 111.167 -22.5 163.5s-36 101.5 -63 147.5s-59.5 87.833 -97.5 125.5s-79.833 70 -125.5 97s-94.667 47.833 -147 62.5s-106.833 22 -163.5 22c-84.667 0 -164.5 -16.333 -239.5 -49s-140.5 -77 -196.5 -133
s-100.167 -121.5 -132.5 -196.5s-48.5 -154.833 -48.5 -239.5z" />
    <glyph glyph-name="uni24C4" unicode="&#x24c4;" horiz-adv-x="1764" 
d="M883 251c-128.667 0 -231.5 42.168 -308.5 126.501s-115.5 194.166 -115.5 329.499c0 145.333 39.333 261.333 118 348s185.667 130 321 130c124.667 0 225 -42 301 -126s114 -194 114 -330c0 -147.333 -39 -263.833 -117 -349.5s-182.333 -128.5 -313 -128.5zM890 1089
c-94.667 0 -171.667 -34.334 -231 -103.001s-89 -158.667 -89 -270s28.833 -200.833 86.5 -268.5s133.167 -101.5 226.5 -101.5c98.667 0 176.667 32.333 234 97s86 155.334 86 272.001c0 118.667 -27.833 210.667 -83.5 276s-132.167 98 -229.5 98zM140 716
c0 67.333 9 132.5 27 195.5s43.167 122 75.5 177s71.166 105.167 116.499 150.5s95.333 84.166 150 116.499s113.5 57.5 176.5 75.5s128.167 27 195.5 27s132.5 -9 195.5 -27s122 -43.167 177 -75.5s105.333 -71.166 151 -116.499s84.667 -95.5 117 -150.5
s57.5 -114 75.5 -177s27 -128.167 27 -195.5c0 -68 -9 -133.333 -27 -196s-43.167 -121.5 -75.5 -176.5s-71.333 -105.167 -117 -150.5s-96 -84.166 -151 -116.499s-114 -57.333 -177 -75s-128.167 -26.5 -195.5 -26.5c-68 0 -133.333 8.83301 -196 26.5
s-121.5 42.667 -176.5 75s-105.167 71.166 -150.5 116.499s-84.166 95.5 -116.499 150.5s-57.333 114 -75 177s-26.5 128.167 -26.5 195.5zM264 716c0 -84.667 16.167 -164.501 48.5 -239.501s76.5 -140.5 132.5 -196.5s121.5 -100.167 196.5 -132.5
s154.833 -48.5 239.5 -48.5s164.5 16.333 239.5 49s140.667 77 197 133s100.833 121.333 133.5 196s49 154.334 49 239.001c0 56.667 -7.5 111.167 -22.5 163.5s-36 101.5 -63 147.5s-59.5 87.833 -97.5 125.5s-79.833 70 -125.5 97s-94.667 47.833 -147 62.5
s-106.833 22 -163.5 22c-84.667 0 -164.5 -16.333 -239.5 -49s-140.5 -77 -196.5 -133s-100.167 -121.5 -132.5 -196.5s-48.5 -154.833 -48.5 -239.5z" />
    <glyph glyph-name="uni24C5" unicode="&#x24c5;" horiz-adv-x="1764" 
d="M774 607v-341h-106v903h249c96.667 0 171.5 -23.5 224.5 -70.5s79.5 -113.167 79.5 -198.5c0 -86 -29.5 -156.333 -88.5 -211s-138.833 -82 -239.5 -82h-119zM774 1074l0.000976562 -370.999h111c73.333 0 129.166 16.667 167.499 50s57.5 80.666 57.5 141.999
c0 119.333 -70.667 179 -212 179h-124zM140.001 716.001c0 67.333 9 132.5 27 195.5s43.167 122 75.5 177s71.166 105.167 116.499 150.5s95.333 84.166 150 116.499s113.5 57.5 176.5 75.5s128.167 27 195.5 27s132.5 -9 195.5 -27s122 -43.167 177 -75.5
s105.333 -71.166 151 -116.499s84.667 -95.5 117 -150.5s57.5 -114 75.5 -177s27 -128.167 27 -195.5c0 -68 -9 -133.333 -27 -196s-43.167 -121.5 -75.5 -176.5s-71.333 -105.167 -117 -150.5s-96 -84.166 -151 -116.499s-114 -57.333 -177 -75
s-128.167 -26.5 -195.5 -26.5c-68 0 -133.333 8.83301 -196 26.5s-121.5 42.667 -176.5 75s-105.167 71.166 -150.5 116.499s-84.166 95.5 -116.499 150.5s-57.333 114 -75 177s-26.5 128.167 -26.5 195.5zM264.001 716.001c0 -84.667 16.167 -164.501 48.5 -239.501
s76.5 -140.5 132.5 -196.5s121.5 -100.167 196.5 -132.5s154.833 -48.5 239.5 -48.5s164.5 16.333 239.5 49s140.667 77 197 133s100.833 121.333 133.5 196s49 154.334 49 239.001c0 56.667 -7.5 111.167 -22.5 163.5s-36 101.5 -63 147.5s-59.5 87.833 -97.5 125.5
s-79.833 70 -125.5 97s-94.667 47.833 -147 62.5s-106.833 22 -163.5 22c-84.667 0 -164.5 -16.333 -239.5 -49s-140.5 -77 -196.5 -133s-100.167 -121.5 -132.5 -196.5s-48.5 -154.833 -48.5 -239.5z" />
    <glyph glyph-name="uni24C6" unicode="&#x24c6;" horiz-adv-x="1764" 
d="M876 251c-64 0 -121.831 12.002 -173.498 36.002s-95.5 56.667 -131.5 98s-63.667 89.666 -83 144.999s-29 114.333 -29 177c0 70 9.66699 134.167 29 192.5s47.666 108.666 84.999 150.999s83.333 75.333 138 99s117.667 35.5 189 35.5
c64.667 0 122.667 -11.833 174 -35.5s94.666 -56 129.999 -97s62.333 -89.333 81 -145s28 -115.167 28 -178.5c0 -56.667 -6.33301 -110.5 -19 -161.5s-32 -96.833 -58 -137.5s-58.667 -75.167 -98 -103.5s-86 -48.5 -140 -60.5l108 -103l-108 -40l-58.5 62zM890.002 1089
c-52 0 -97.832 -10 -137.499 -30s-73 -47.167 -100 -81.5s-47.5 -74 -61.5 -119s-21 -92.5 -21 -142.5s6.66699 -97.333 20 -142s33.166 -83.834 59.499 -117.501s59 -60.5 98 -80.5s84.167 -30 135.5 -30c54 0 101 9.33301 141 28s73.333 44.334 100 77.001
s46.5 71.5 59.5 116.5s19.5 94.167 19.5 147.5c0 52.667 -6.16699 101.834 -18.5 147.501s-31.333 85.167 -57 118.5s-58.167 59.666 -97.5 78.999s-86 29 -140 29zM140.003 716.002c0 67.333 9 132.5 27 195.5s43.167 122 75.5 177s71.166 105.167 116.499 150.5
s95.333 84.166 150 116.499s113.5 57.5 176.5 75.5s128.167 27 195.5 27s132.5 -9 195.5 -27s122 -43.167 177 -75.5s105.333 -71.166 151 -116.499s84.667 -95.5 117 -150.5s57.5 -114 75.5 -177s27 -128.167 27 -195.5c0 -68 -9 -133.333 -27 -196
s-43.167 -121.5 -75.5 -176.5s-71.333 -105.167 -117 -150.5s-96 -84.166 -151 -116.499s-114 -57.333 -177 -75s-128.167 -26.5 -195.5 -26.5c-68 0 -133.333 8.83301 -196 26.5s-121.5 42.667 -176.5 75s-105.167 71.166 -150.5 116.499s-84.166 95.5 -116.499 150.5
s-57.333 114 -75 177s-26.5 128.167 -26.5 195.5zM264.003 716.002c0 -84.667 16.167 -164.501 48.5 -239.501s76.5 -140.5 132.5 -196.5s121.5 -100.167 196.5 -132.5s154.833 -48.5 239.5 -48.5s164.5 16.333 239.5 49s140.667 77 197 133s100.833 121.333 133.5 196
s49 154.334 49 239.001c0 56.667 -7.5 111.167 -22.5 163.5s-36 101.5 -63 147.5s-59.5 87.833 -97.5 125.5s-79.833 70 -125.5 97s-94.667 47.833 -147 62.5s-106.833 22 -163.5 22c-84.667 0 -164.5 -16.333 -239.5 -49s-140.5 -77 -196.5 -133
s-100.167 -121.5 -132.5 -196.5s-48.5 -154.833 -48.5 -239.5z" />
    <glyph glyph-name="uni24C7" unicode="&#x24c7;" horiz-adv-x="1764" 
d="M1266 266h-125.997l-151 253c-14 24 -27.5 44.167 -40.5 60.5s-26.333 29.833 -40 40.5s-28.334 18.334 -44.001 23.001s-33.5 7 -53.5 7h-87v-384h-106v903h270c39.333 0 75.666 -4.83301 108.999 -14.5s62.333 -24.667 87 -45s44 -45.5 58 -75.5s21 -65 21 -105
c0 -31.333 -4.83301 -60.166 -14.5 -86.499s-23.167 -49.833 -40.5 -70.5s-38.333 -38.167 -63 -52.5s-52.334 -25.5 -83.001 -33.5v-3c15.333 -6.66699 28.5 -14.334 39.5 -23.001s21.667 -18.834 32 -30.501s20.333 -25 30 -40l33.5 -51.5zM724.003 1074
l0.000976562 -328.001h144c26.667 0 51.167 4 73.5 12s41.666 19.5 57.999 34.5s29.166 33.333 38.499 55s14 45.834 14 72.501c0 48 -15.667 85.667 -47 113s-76.666 41 -135.999 41h-145zM140.004 715.999c0 67.333 9 132.5 27 195.5s43.167 122 75.5 177
s71.166 105.167 116.499 150.5s95.333 84.166 150 116.499s113.5 57.5 176.5 75.5s128.167 27 195.5 27s132.5 -9 195.5 -27s122 -43.167 177 -75.5s105.333 -71.166 151 -116.499s84.667 -95.5 117 -150.5s57.5 -114 75.5 -177s27 -128.167 27 -195.5
c0 -68 -9 -133.333 -27 -196s-43.167 -121.5 -75.5 -176.5s-71.333 -105.167 -117 -150.5s-96 -84.166 -151 -116.499s-114 -57.333 -177 -75s-128.167 -26.5 -195.5 -26.5c-68 0 -133.333 8.83301 -196 26.5s-121.5 42.667 -176.5 75s-105.167 71.166 -150.5 116.499
s-84.166 95.5 -116.499 150.5s-57.333 114 -75 177s-26.5 128.167 -26.5 195.5zM264.004 715.999c0 -84.667 16.167 -164.501 48.5 -239.501s76.5 -140.5 132.5 -196.5s121.5 -100.167 196.5 -132.5s154.833 -48.5 239.5 -48.5s164.5 16.333 239.5 49s140.667 77 197 133
s100.833 121.333 133.5 196s49 154.334 49 239.001c0 56.667 -7.5 111.167 -22.5 163.5s-36 101.5 -63 147.5s-59.5 87.833 -97.5 125.5s-79.833 70 -125.5 97s-94.667 47.833 -147 62.5s-106.833 22 -163.5 22c-84.667 0 -164.5 -16.333 -239.5 -49s-140.5 -77 -196.5 -133
s-100.167 -121.5 -132.5 -196.5s-48.5 -154.833 -48.5 -239.5z" />
    <glyph glyph-name="uni24C8" unicode="&#x24c8;" horiz-adv-x="1764" 
d="M614 303l-0.00488281 124.001c14.667 -12.667 31.834 -24 51.501 -34s40.667 -18.5 63 -25.5s44.5 -12.333 66.5 -16s42.667 -5.5 62 -5.5c64.667 0 113.167 12 145.5 36s48.5 58.667 48.5 104c0 24.667 -5.33301 46 -16 64s-25.5 34.5 -44.5 49.5s-41.5 29.333 -67.5 43
l-83 43.5c-31.333 16 -60.666 32.167 -87.999 48.5s-51.166 34.333 -71.499 54s-36.333 42 -48 67s-17.5 54.167 -17.5 87.5c0 41.333 9.16699 77.166 27.5 107.499s42.166 55.5 71.499 75.5s62.833 34.833 100.5 44.5s75.834 14.5 114.501 14.5
c89.333 0 154.333 -11 195 -33v-119c-53.333 37.333 -121.666 56 -204.999 56c-23.333 0 -46.5 -2.5 -69.5 -7.5s-43.667 -12.833 -62 -23.5s-33.166 -24.667 -44.499 -42s-17 -38.333 -17 -63c0 -23.333 4.33301 -43.333 13 -60s21.5 -32 38.5 -46s37.5 -27.5 61.5 -40.5
s51.667 -27.167 83 -42.5c32.667 -16 63.5 -32.833 92.5 -50.5s54.333 -37.167 76 -58.5s39 -45.166 52 -71.499s19.5 -56.166 19.5 -89.499c0 -44.667 -8.83301 -82.334 -26.5 -113.001s-41.167 -55.667 -70.5 -75s-63.333 -33.333 -102 -42s-79.667 -13 -123 -13
c-14 0 -31.5 1.16699 -52.5 3.5s-42.5 5.66602 -64.5 9.99902s-42.667 9.83301 -62 16.5s-35 14 -47 22zM139.995 716.001c0 67.333 9 132.5 27 195.5s43.167 122 75.5 177s71.166 105.167 116.499 150.5s95.333 84.166 150 116.499s113.5 57.5 176.5 75.5
s128.167 27 195.5 27s132.5 -9 195.5 -27s122 -43.167 177 -75.5s105.333 -71.166 151 -116.499s84.667 -95.5 117 -150.5s57.5 -114 75.5 -177s27 -128.167 27 -195.5c0 -68 -9 -133.333 -27 -196s-43.167 -121.5 -75.5 -176.5s-71.333 -105.167 -117 -150.5
s-96 -84.166 -151 -116.499s-114 -57.333 -177 -75s-128.167 -26.5 -195.5 -26.5c-68 0 -133.333 8.83301 -196 26.5s-121.5 42.667 -176.5 75s-105.167 71.166 -150.5 116.499s-84.166 95.5 -116.499 150.5s-57.333 114 -75 177s-26.5 128.167 -26.5 195.5z
M263.995 716.001c0 -84.667 16.167 -164.501 48.5 -239.501s76.5 -140.5 132.5 -196.5s121.5 -100.167 196.5 -132.5s154.833 -48.5 239.5 -48.5s164.5 16.333 239.5 49s140.667 77 197 133s100.833 121.333 133.5 196s49 154.334 49 239.001
c0 56.667 -7.5 111.167 -22.5 163.5s-36 101.5 -63 147.5s-59.5 87.833 -97.5 125.5s-79.833 70 -125.5 97s-94.667 47.833 -147 62.5s-106.833 22 -163.5 22c-84.667 0 -164.5 -16.333 -239.5 -49s-140.5 -77 -196.5 -133s-100.167 -121.5 -132.5 -196.5
s-48.5 -154.833 -48.5 -239.5z" />
    <glyph glyph-name="uni24C9" unicode="&#x24c9;" horiz-adv-x="1764" 
d="M1193 1074h-261v-808h-106v808h-260v95h627v-95zM140 716c0 67.333 9 132.5 27 195.5s43.167 122 75.5 177s71.166 105.167 116.499 150.5s95.333 84.166 150 116.499s113.5 57.5 176.5 75.5s128.167 27 195.5 27s132.5 -9 195.5 -27s122 -43.167 177 -75.5
s105.333 -71.166 151 -116.499s84.667 -95.5 117 -150.5s57.5 -114 75.5 -177s27 -128.167 27 -195.5c0 -68 -9 -133.333 -27 -196s-43.167 -121.5 -75.5 -176.5s-71.333 -105.167 -117 -150.5s-96 -84.166 -151 -116.499s-114 -57.333 -177 -75
s-128.167 -26.5 -195.5 -26.5c-68 0 -133.333 8.83301 -196 26.5s-121.5 42.667 -176.5 75s-105.167 71.166 -150.5 116.499s-84.166 95.5 -116.499 150.5s-57.333 114 -75 177s-26.5 128.167 -26.5 195.5zM264 716c0 -84.667 16.167 -164.501 48.5 -239.501
s76.5 -140.5 132.5 -196.5s121.5 -100.167 196.5 -132.5s154.833 -48.5 239.5 -48.5s164.5 16.333 239.5 49s140.667 77 197 133s100.833 121.333 133.5 196s49 154.334 49 239.001c0 56.667 -7.5 111.167 -22.5 163.5s-36 101.5 -63 147.5s-59.5 87.833 -97.5 125.5
s-79.833 70 -125.5 97s-94.667 47.833 -147 62.5s-106.833 22 -163.5 22c-84.667 0 -164.5 -16.333 -239.5 -49s-140.5 -77 -196.5 -133s-100.167 -121.5 -132.5 -196.5s-48.5 -154.833 -48.5 -239.5z" />
    <glyph glyph-name="uni24CA" unicode="&#x24ca;" horiz-adv-x="1764" 
d="M1224 631c0 -253.333 -114.333 -380 -343 -380c-219.333 0 -329 122 -329 366v552h106v-545c0 -185.333 78 -278 234 -278c150.667 0 226 89.333 226 268v555h106v-538zM140 716c0 67.333 9 132.5 27 195.5s43.167 122 75.5 177s71.166 105.167 116.499 150.5
s95.333 84.166 150 116.499s113.5 57.5 176.5 75.5s128.167 27 195.5 27s132.5 -9 195.5 -27s122 -43.167 177 -75.5s105.333 -71.166 151 -116.499s84.667 -95.5 117 -150.5s57.5 -114 75.5 -177s27 -128.167 27 -195.5c0 -68 -9 -133.333 -27 -196
s-43.167 -121.5 -75.5 -176.5s-71.333 -105.167 -117 -150.5s-96 -84.166 -151 -116.499s-114 -57.333 -177 -75s-128.167 -26.5 -195.5 -26.5c-68 0 -133.333 8.83301 -196 26.5s-121.5 42.667 -176.5 75s-105.167 71.166 -150.5 116.499s-84.166 95.5 -116.499 150.5
s-57.333 114 -75 177s-26.5 128.167 -26.5 195.5zM264 716c0 -84.667 16.167 -164.501 48.5 -239.501s76.5 -140.5 132.5 -196.5s121.5 -100.167 196.5 -132.5s154.833 -48.5 239.5 -48.5s164.5 16.333 239.5 49s140.667 77 197 133s100.833 121.333 133.5 196
s49 154.334 49 239.001c0 56.667 -7.5 111.167 -22.5 163.5s-36 101.5 -63 147.5s-59.5 87.833 -97.5 125.5s-79.833 70 -125.5 97s-94.667 47.833 -147 62.5s-106.833 22 -163.5 22c-84.667 0 -164.5 -16.333 -239.5 -49s-140.5 -77 -196.5 -133
s-100.167 -121.5 -132.5 -196.5s-48.5 -154.833 -48.5 -239.5z" />
    <glyph glyph-name="uni24CB" unicode="&#x24cb;" horiz-adv-x="1764" 
d="M1271 1169l-335 -903h-116l-328 903h118l250 -716c8 -23.333 14.333 -50 19 -80h2c3.33301 25.333 10.333 52.333 21 81l255 715h114zM140 716c0 67.333 9 132.5 27 195.5s43.167 122 75.5 177s71.166 105.167 116.499 150.5s95.333 84.166 150 116.499
s113.5 57.5 176.5 75.5s128.167 27 195.5 27s132.5 -9 195.5 -27s122 -43.167 177 -75.5s105.333 -71.166 151 -116.499s84.667 -95.5 117 -150.5s57.5 -114 75.5 -177s27 -128.167 27 -195.5c0 -68 -9 -133.333 -27 -196s-43.167 -121.5 -75.5 -176.5
s-71.333 -105.167 -117 -150.5s-96 -84.166 -151 -116.499s-114 -57.333 -177 -75s-128.167 -26.5 -195.5 -26.5c-68 0 -133.333 8.83301 -196 26.5s-121.5 42.667 -176.5 75s-105.167 71.166 -150.5 116.499s-84.166 95.5 -116.499 150.5s-57.333 114 -75 177
s-26.5 128.167 -26.5 195.5zM264 716c0 -84.667 16.167 -164.501 48.5 -239.501s76.5 -140.5 132.5 -196.5s121.5 -100.167 196.5 -132.5s154.833 -48.5 239.5 -48.5s164.5 16.333 239.5 49s140.667 77 197 133s100.833 121.333 133.5 196s49 154.334 49 239.001
c0 56.667 -7.5 111.167 -22.5 163.5s-36 101.5 -63 147.5s-59.5 87.833 -97.5 125.5s-79.833 70 -125.5 97s-94.667 47.833 -147 62.5s-106.833 22 -163.5 22c-84.667 0 -164.5 -16.333 -239.5 -49s-140.5 -77 -196.5 -133s-100.167 -121.5 -132.5 -196.5
s-48.5 -154.833 -48.5 -239.5z" />
    <glyph glyph-name="uni24CC" unicode="&#x24cc;" horiz-adv-x="1764" 
d="M1289 1169l-135 -903h-144l-121 722l-125 -722h-143l-145 903h117l97 -763l143 763h121l129 -762l92 762h114zM140 716c0 67.333 9 132.5 27 195.5s43.167 122 75.5 177s71.166 105.167 116.499 150.5s95.333 84.166 150 116.499s113.5 57.5 176.5 75.5
s128.167 27 195.5 27s132.5 -9 195.5 -27s122 -43.167 177 -75.5s105.333 -71.166 151 -116.499s84.667 -95.5 117 -150.5s57.5 -114 75.5 -177s27 -128.167 27 -195.5c0 -68 -9 -133.333 -27 -196s-43.167 -121.5 -75.5 -176.5s-71.333 -105.167 -117 -150.5
s-96 -84.166 -151 -116.499s-114 -57.333 -177 -75s-128.167 -26.5 -195.5 -26.5c-68 0 -133.333 8.83301 -196 26.5s-121.5 42.667 -176.5 75s-105.167 71.166 -150.5 116.499s-84.166 95.5 -116.499 150.5s-57.333 114 -75 177s-26.5 128.167 -26.5 195.5zM264 716
c0 -84.667 16.167 -164.501 48.5 -239.501s76.5 -140.5 132.5 -196.5s121.5 -100.167 196.5 -132.5s154.833 -48.5 239.5 -48.5s164.5 16.333 239.5 49s140.667 77 197 133s100.833 121.333 133.5 196s49 154.334 49 239.001c0 56.667 -7.5 111.167 -22.5 163.5
s-36 101.5 -63 147.5s-59.5 87.833 -97.5 125.5s-79.833 70 -125.5 97s-94.667 47.833 -147 62.5s-106.833 22 -163.5 22c-84.667 0 -164.5 -16.333 -239.5 -49s-140.5 -77 -196.5 -133s-100.167 -121.5 -132.5 -196.5s-48.5 -154.833 -48.5 -239.5z" />
    <glyph glyph-name="uni24CD" unicode="&#x24cd;" horiz-adv-x="1764" 
d="M1242 266h-129l-208 346c-6 10.667 -13 25.667 -21 45h-2l-22 -45l-214 -346h-130l303 454l-279 449h130l185 -317c12 -21.333 22.667 -42.333 32 -63h2c13.333 27.333 25.333 49 36 65l192 315h121l-284 -448zM140 716c0 67.333 9 132.5 27 195.5s43.167 122 75.5 177
s71.166 105.167 116.499 150.5s95.333 84.166 150 116.499s113.5 57.5 176.5 75.5s128.167 27 195.5 27s132.5 -9 195.5 -27s122 -43.167 177 -75.5s105.333 -71.166 151 -116.499s84.667 -95.5 117 -150.5s57.5 -114 75.5 -177s27 -128.167 27 -195.5
c0 -68 -9 -133.333 -27 -196s-43.167 -121.5 -75.5 -176.5s-71.333 -105.167 -117 -150.5s-96 -84.166 -151 -116.499s-114 -57.333 -177 -75s-128.167 -26.5 -195.5 -26.5c-68 0 -133.333 8.83301 -196 26.5s-121.5 42.667 -176.5 75s-105.167 71.166 -150.5 116.499
s-84.166 95.5 -116.499 150.5s-57.333 114 -75 177s-26.5 128.167 -26.5 195.5zM264 716c0 -84.667 16.167 -164.501 48.5 -239.501s76.5 -140.5 132.5 -196.5s121.5 -100.167 196.5 -132.5s154.833 -48.5 239.5 -48.5s164.5 16.333 239.5 49s140.667 77 197 133
s100.833 121.333 133.5 196s49 154.334 49 239.001c0 56.667 -7.5 111.167 -22.5 163.5s-36 101.5 -63 147.5s-59.5 87.833 -97.5 125.5s-79.833 70 -125.5 97s-94.667 47.833 -147 62.5s-106.833 22 -163.5 22c-84.667 0 -164.5 -16.333 -239.5 -49s-140.5 -77 -196.5 -133
s-100.167 -121.5 -132.5 -196.5s-48.5 -154.833 -48.5 -239.5z" />
    <glyph glyph-name="uni24CE" unicode="&#x24ce;" horiz-adv-x="1764" 
d="M1232 1169l-298 -569v-334h-106v331l-291 572h121l202 -408c2.66699 -4.66699 10 -23 22 -55h2c4 14 12 32.333 24 55l211 408h113zM140 716c0 67.333 9 132.5 27 195.5s43.167 122 75.5 177s71.166 105.167 116.499 150.5s95.333 84.166 150 116.499
s113.5 57.5 176.5 75.5s128.167 27 195.5 27s132.5 -9 195.5 -27s122 -43.167 177 -75.5s105.333 -71.166 151 -116.499s84.667 -95.5 117 -150.5s57.5 -114 75.5 -177s27 -128.167 27 -195.5c0 -68 -9 -133.333 -27 -196s-43.167 -121.5 -75.5 -176.5
s-71.333 -105.167 -117 -150.5s-96 -84.166 -151 -116.499s-114 -57.333 -177 -75s-128.167 -26.5 -195.5 -26.5c-68 0 -133.333 8.83301 -196 26.5s-121.5 42.667 -176.5 75s-105.167 71.166 -150.5 116.499s-84.166 95.5 -116.499 150.5s-57.333 114 -75 177
s-26.5 128.167 -26.5 195.5zM264 716c0 -84.667 16.167 -164.501 48.5 -239.501s76.5 -140.5 132.5 -196.5s121.5 -100.167 196.5 -132.5s154.833 -48.5 239.5 -48.5s164.5 16.333 239.5 49s140.667 77 197 133s100.833 121.333 133.5 196s49 154.334 49 239.001
c0 56.667 -7.5 111.167 -22.5 163.5s-36 101.5 -63 147.5s-59.5 87.833 -97.5 125.5s-79.833 70 -125.5 97s-94.667 47.833 -147 62.5s-106.833 22 -163.5 22c-84.667 0 -164.5 -16.333 -239.5 -49s-140.5 -77 -196.5 -133s-100.167 -121.5 -132.5 -196.5
s-48.5 -154.833 -48.5 -239.5z" />
    <glyph glyph-name="uni24CF" unicode="&#x24cf;" horiz-adv-x="1764" 
d="M1217 1144l-529 -782h517v-96h-675v30l525 778h-483v95h645v-25zM140 716c0 67.333 9 132.5 27 195.5s43.167 122 75.5 177s71.166 105.167 116.499 150.5s95.333 84.166 150 116.499s113.5 57.5 176.5 75.5s128.167 27 195.5 27s132.5 -9 195.5 -27
s122 -43.167 177 -75.5s105.333 -71.166 151 -116.499s84.667 -95.5 117 -150.5s57.5 -114 75.5 -177s27 -128.167 27 -195.5c0 -68 -9 -133.333 -27 -196s-43.167 -121.5 -75.5 -176.5s-71.333 -105.167 -117 -150.5s-96 -84.166 -151 -116.499s-114 -57.333 -177 -75
s-128.167 -26.5 -195.5 -26.5c-68 0 -133.333 8.83301 -196 26.5s-121.5 42.667 -176.5 75s-105.167 71.166 -150.5 116.499s-84.166 95.5 -116.499 150.5s-57.333 114 -75 177s-26.5 128.167 -26.5 195.5zM264 716c0 -84.667 16.167 -164.501 48.5 -239.501
s76.5 -140.5 132.5 -196.5s121.5 -100.167 196.5 -132.5s154.833 -48.5 239.5 -48.5s164.5 16.333 239.5 49s140.667 77 197 133s100.833 121.333 133.5 196s49 154.334 49 239.001c0 56.667 -7.5 111.167 -22.5 163.5s-36 101.5 -63 147.5s-59.5 87.833 -97.5 125.5
s-79.833 70 -125.5 97s-94.667 47.833 -147 62.5s-106.833 22 -163.5 22c-84.667 0 -164.5 -16.333 -239.5 -49s-140.5 -77 -196.5 -133s-100.167 -121.5 -132.5 -196.5s-48.5 -154.833 -48.5 -239.5z" />
    <glyph glyph-name="H18543" unicode="&#x25aa;" horiz-adv-x="1764" 
d="M658 941h448v-448h-448v448z" />
    <glyph glyph-name="H18551" unicode="&#x25ab;" horiz-adv-x="1764" 
d="M658 941h448v-448h-448v448zM777 612h210v210h-210v-210z" />
    <glyph glyph-name="triagup" unicode="&#x25b2;" horiz-adv-x="1764" 
d="M882 1434l802 -1434h-1604z" />
    <glyph glyph-name="uni25B6" unicode="&#x25b6;" horiz-adv-x="1764" 
d="M1599 717l-1434 -802v1604z" />
    <glyph glyph-name="triagdn" unicode="&#x25bc;" horiz-adv-x="1764" 
d="M80 1434h1604l-802 -1434z" />
    <glyph glyph-name="uni25C0" unicode="&#x25c0;" horiz-adv-x="1764" 
d="M1599 1519v-1604l-1434 802z" />
    <glyph glyph-name="uni25FB" unicode="&#x25fb;" horiz-adv-x="1764" 
d="M284 1296h1196v-1196h-1196v1196zM1356 1172h-948v-948h948v948z" />
    <glyph glyph-name="uni25FC" unicode="&#x25fc;" horiz-adv-x="1764" 
d="M284 1294h1196v-1196h-1196v1196z" />
    <glyph glyph-name="uni25FD" unicode="&#x25fd;" horiz-adv-x="1764" 
d="M554 1045h656v-656h-656v656zM1086 513v408h-408v-408h408z" />
    <glyph glyph-name="uni25FE" unicode="&#x25fe;" horiz-adv-x="1764" 
d="M554 1045h656v-656h-656v656z" />
    <glyph glyph-name="uni2600" unicode="&#x2600;" horiz-adv-x="1726" 
d="M1277 720c0 -57.333 -11 -111 -33 -161s-51.667 -93.667 -89 -131s-81.333 -66.833 -132 -88.5s-104.334 -32.5 -161.001 -32.5c-57.333 0 -111.166 10.833 -161.499 32.5s-94.166 51.167 -131.499 88.5s-66.833 81 -88.5 131s-32.5 103.667 -32.5 161
s10.833 111.166 32.5 161.499s51.167 94.333 88.5 132s81.166 67.334 131.499 89.001s104.166 32.5 161.499 32.5c56.667 0 110.334 -10.833 161.001 -32.5s94.667 -51.334 132 -89.001s67 -81.667 89 -132s33 -104.166 33 -161.499zM371 805
c-2 -13.333 -3.83301 -27.1689 -5.5 -41.502s-2.5 -28.833 -2.5 -43.5c0 -13.333 0.833008 -27.166 2.5 -41.499s3.5 -28.166 5.5 -41.499h-216c-12 0 -23.167 2.16699 -33.5 6.5s-19.333 10.333 -27 18s-13.667 16.5 -18 26.5s-6.5 20.667 -6.5 32
c0 23.333 8.33301 43.333 25 60s36.667 25 60 25h216zM575 1128c-47.333 -33.333 -86.999 -73.334 -118.999 -120.001l-154 152c-17.333 17.333 -26 37.333 -26 60s8.66699 43.334 26 62.001c8 8 17.167 13.833 27.5 17.5s21.166 5.5 32.499 5.5
c10.667 0 21.167 -1.83301 31.5 -5.5s19.5 -10.167 27.5 -19.5zM1150 313.996c22.667 16.667 44.167 35 64.5 55s38.5 41.667 54.5 65l153 -154c8 -8 14.167 -17.5 18.5 -28.5s6.5 -22.167 6.5 -33.5c0 -20.667 -8 -40 -24 -58c-18.667 -16.667 -39 -25 -61 -25
c-23.333 0 -43.333 8.33301 -60 25zM1570 804.996c23.333 0 43.333 -8.33008 60 -24.9971s25 -36.667 25 -60c0 -11.333 -2.16699 -22 -6.5 -32s-10.333 -18.833 -18 -26.5s-16.667 -13.667 -27 -18s-21.5 -6.5 -33.5 -6.5h-217c2.66699 13.333 4.5 27.166 5.5 41.499
s1.5 28.166 1.5 41.499c0 14.667 -0.5 29.167 -1.5 43.5s-2.83301 28.166 -5.5 41.499h217zM947.001 1211c-13.333 3.33301 -27.167 5.33301 -41.5 6s-28.833 1 -43.5 1c-14 0 -28.167 -0.333008 -42.5 -1s-28.166 -2.66699 -41.499 -6v218c0 23.333 8.16699 43.333 24.5 60
s36.166 25 59.499 25s43.333 -8.33301 60 -25s25 -36.667 25 -60v-218zM778 230.999c13.333 -3.33301 27.167 -5.33301 41.5 -6s28.5 -1 42.5 -1c14.667 0 29.167 0.333008 43.5 1s28.166 2.66699 41.499 6v-218c0 -23.333 -8.33301 -43.333 -25 -60s-36.667 -25 -60 -25
s-43.166 8.33301 -59.499 25s-24.5 36.667 -24.5 60v218zM1269 1008c-16 23.333 -34.1689 45 -54.502 65s-41.833 38.333 -64.5 55l154 152c8.66699 8.66699 18.334 15 29.001 19s21.334 6 32.001 6c10 0 20.167 -1.83301 30.5 -5.5s19.5 -9.5 27.5 -17.5
c16 -17.333 24 -37.333 24 -60c0 -22 -8.33301 -42 -25 -60zM455.999 433.999c32 -46.667 71.668 -86.666 119.001 -119.999l-154 -154c-16.667 -16.667 -36.334 -25 -59.001 -25c-23.333 0 -43.333 8.33301 -60 25c-17.333 17.333 -26 37.333 -26 60
c0 11.333 2.16699 22.166 6.5 32.499s10.833 19.5 19.5 27.5z" />
    <glyph glyph-name="uni2601" unicode="&#x2601;" horiz-adv-x="1779" 
d="M894 1450c58.667 0 113 -13.668 163 -41.001s91.333 -64 124 -110c18.667 5.33301 37.334 9.83301 56.001 13.5s37.667 5.5 57 5.5c47.333 0 92 -9.16699 134 -27.5s78.667 -43.333 110 -75s56 -68.5 74 -110.5s27 -87 27 -135v-9c42 -25.333 74.667 -59.5 98 -102.5
s35 -90.167 35 -141.5c0 -37.333 -6.66699 -72.666 -20 -105.999s-31.5 -63 -54.5 -89s-50.5 -47.167 -82.5 -63.5s-66.333 -26.5 -103 -30.5h-1195c-42.667 0 -82.667 8.16699 -120 24.5s-70 38.833 -98 67.5s-50.167 62.167 -66.5 100.5s-24.5 79.166 -24.5 122.499
c0 42.667 8.16699 83 24.5 121s38.666 71.167 66.999 99.5s61.5 50.833 99.5 67.5s78.667 25.334 122 26.001c28 32 60.667 57 98 75s77.333 27 120 27h4c8 41.333 22.667 79.833 44 115.5s47.5 66.5 78.5 92.5s66 46.333 105 61s80.167 22 123.5 22z" />
    <glyph glyph-name="uni2602" unicode="&#x2602;" horiz-adv-x="1574" 
d="M799 1349c82 0 159.844 -15.333 233.511 -46s138.167 -72.834 193.5 -126.501s99.166 -116.667 131.499 -189s48.5 -150.166 48.5 -233.499h-23c-5.33301 18.667 -13.666 36.167 -24.999 52.5s-24.833 30.833 -40.5 43.5s-32.667 22.667 -51 30s-36.833 11 -55.5 11
c-24.667 0 -47.834 -3.66699 -69.501 -11s-41.834 -17.333 -60.501 -30s-35.167 -27.167 -49.5 -43.5s-26.5 -33.833 -36.5 -52.5h-19c-6 18.667 -14.833 36.167 -26.5 52.5s-25.334 30.833 -41.001 43.5s-32.834 22.667 -51.501 30s-38 11 -58 11s-39.333 -3.66699 -58 -11
s-35.834 -17.333 -51.501 -30s-29.334 -27.167 -41.001 -43.5s-20.5 -33.833 -26.5 -52.5h-19c-10 18.667 -22.167 36.167 -36.5 52.5s-30.833 30.833 -49.5 43.5s-38.834 22.667 -60.501 30s-44.834 11 -69.501 11c-18.667 0 -37.167 -3.66699 -55.5 -11
s-35.333 -17.333 -51 -30s-29.334 -27.167 -41.001 -43.5s-19.834 -33.833 -24.501 -52.5h-23c0 83.333 16.167 161.166 48.5 233.499s76.166 135.333 131.499 189s119.833 95.834 193.5 126.501s151.5 46 233.5 46zM853.011 288c0 -46 -4.1709 -89.1689 -12.5039 -129.502
s-21.666 -75.166 -39.999 -104.499s-42.166 -52.5 -71.499 -69.5s-65 -25.5 -107 -25.5c-17.333 0 -31.333 5.33301 -42 16s-16 23.334 -16 38.001c0 20 6.33301 35 19 45s25.667 15 39 15c22 0 40.333 4.83301 55 14.5s26.334 23.667 35.001 42s14.834 40.833 18.501 67.5
s5.5 57 5.5 91v488c4 2.66699 9 5.33398 15 8.00098c5.33301 2 11.5 3.83301 18.5 5.5s15.833 2.5 26.5 2.5c9.33301 0 17.333 -0.833008 24 -2.5s12.667 -3.5 18 -5.5c6 -2.66699 11 -5.33398 15 -8.00098v-488z" />
    <glyph glyph-name="uni2603" unicode="&#x2603;" 
d="M925 1210c0 -18.667 -6.5 -34.667 -19.5 -48s-28.167 -20 -45.5 -20c-18.667 0 -34.167 6.66699 -46.5 20s-18.5 29.333 -18.5 48c0 18 6.16699 33.667 18.5 47s27.833 20 46.5 20c17.333 0 32.5 -6.66699 45.5 -20s19.5 -29 19.5 -47zM1118 638
c0 -13.333 -2.5 -26 -7.5 -38s-12 -22.5 -21 -31.5s-19.5 -16.167 -31.5 -21.5s-24.667 -8 -38 -8s-25.833 2.66699 -37.5 8s-21.667 12.5 -30 21.5s-15 19.5 -20 31.5s-7.5 24.667 -7.5 38c0 29.333 9.16699 53.5 27.5 72.5s40.833 28.5 67.5 28.5
c27.333 0 50.5 -9.5 69.5 -28.5s28.5 -43.167 28.5 -72.5zM1118 305c0 -29.333 -9.5 -53.5 -28.5 -72.5s-42.167 -28.5 -69.5 -28.5c-26.667 0 -49.167 9.5 -67.5 28.5s-27.5 43.167 -27.5 72.5c0 28 9.16699 51.5 27.5 70.5s40.833 28.5 67.5 28.5
c13.333 0 26 -2.5 38 -7.5s22.5 -12 31.5 -21s16 -19.5 21 -31.5s7.5 -25 7.5 -39zM1247 1210c0 -18.667 -6.33301 -34.667 -19 -48s-27.667 -20 -45 -20c-18.667 0 -34.167 6.66699 -46.5 20s-18.5 29.333 -18.5 48c0 18 6.16699 33.667 18.5 47s27.833 20 46.5 20
c17.333 0 32.333 -6.66699 45 -20s19 -29 19 -47zM1020 942c-26 0 -48.1709 1.83398 -66.5039 5.50098s-33.5 8 -45.5 13s-21 9.83301 -27 14.5s-10 8 -12 10c-6.66699 6 -10 13.667 -10 23s3.33301 17.666 10 24.999c6 6 13.333 9 22 9s16 -3 22 -9h1
c2.66699 -2 11.834 -6.5 27.501 -13.5s41.834 -10.5 78.501 -10.5c20 0 36.833 1.16699 50.5 3.5s24.834 5 33.501 8s15 5.83301 19 8.5l6 4c6 6 13.333 9 22 9c9.33301 0 17 -3.66699 23 -11c5.33301 -8.66699 8 -16.667 8 -24c0 -8 -2.66699 -15.333 -8 -22
c-2 -2 -6.16699 -5.33301 -12.5 -10s-15.666 -9.5 -27.999 -14.5s-27.833 -9.33301 -46.5 -13s-41 -5.5 -67 -5.5zM1972 975.001c14 0 25.8369 -5.16699 35.5039 -15.5s14.5 -22.166 14.5 -35.499c0 -14 -4.83301 -25 -14.5 -33s-21.5 -12 -35.5 -12h-118l-235 -249
c18.667 -43.333 33.167 -88.333 43.5 -135s15.5 -95.667 15.5 -147c0 -62.667 -7.83301 -122.834 -23.5 -180.501s-37.667 -111.667 -66 -162s-62.5 -96.166 -102.5 -137.499s-84.333 -76.666 -133 -105.999s-101.167 -52.166 -157.5 -68.499s-114.833 -24.5 -175.5 -24.5
s-118.834 8.16699 -174.501 24.5s-107.834 39.166 -156.501 68.499s-93 64.666 -133 105.999s-74.333 87.166 -103 137.499s-50.834 104.333 -66.501 162s-23.5 117.834 -23.5 180.501c0 51.333 5 100.333 15 147s24.333 91.667 43 135l-235 249h-118
c-12.667 0 -24 4 -34 12s-15 19 -15 33c0 13.333 5 25.166 15 35.499s21.333 15.5 34 15.5h114v116c0 14.667 4.5 26.834 13.5 36.501s20.833 14.5 35.5 14.5c12.667 0 24 -4.83301 34 -14.5s15 -21.834 15 -36.501v-123l208 -219c14.667 19.333 29.5 37.833 44.5 55.5
s31.167 34.5 48.5 50.5c-24 41.333 -43 86 -57 134s-21 98 -21 150c0 36 2.83301 71.333 8.5 106s14.5 68.667 26.5 102h-66c-17.333 0 -31.666 5.83301 -42.999 17.5s-17 26.5 -17 44.5c0 19.333 5.66699 35 17 47s25.666 18 42.999 18h133v271
c0 19.333 6.16699 35.333 18.5 48s27.833 19 46.5 19h701c20 0 35.833 -6.33301 47.5 -19s17.5 -28.667 17.5 -48v-271h132c17.333 0 32.166 -6 44.499 -18s18.5 -27.667 18.5 -47c0 -18 -6.16699 -32.833 -18.5 -44.5s-27.166 -17.5 -44.499 -17.5h-63
c11.333 -34 20 -68.167 26 -102.5s9 -69.5 9 -105.5c0 -52 -7 -102 -21 -150s-33 -92.667 -57 -134c16 -16 31.5 -32.833 46.5 -50.5s29.5 -36.167 43.5 -55.5l212 219v123c0 14.667 4.66699 26.834 14 36.501s20.666 14.5 33.999 14.5c12.667 0 24 -4.83301 34 -14.5
s15 -21.834 15 -36.501v-116h111zM1020 -231.999c77.333 0 150.002 15.167 218.002 45.5s127.333 71.833 178 124.5s90.667 114.167 120 184.5s44 145.5 44 225.5c0 83.333 -15.833 162.333 -47.5 237s-76.834 139.667 -135.501 195l-61 58l42 70
c20.667 34.667 36.667 71.667 48 111s17 79.333 17 120c0 34 -3.83301 68.667 -11.5 104s-18.834 70 -33.501 104h-757c-13.333 -34 -23.5 -68.667 -30.5 -104s-10.5 -70 -10.5 -104c0 -40.667 5.16699 -80.667 15.5 -120s26.166 -76.333 47.499 -111l44 -70l-61 -58
c-59.333 -55.333 -105.166 -120.333 -137.499 -195s-48.5 -153.667 -48.5 -237c0 -80 14.667 -155.167 44 -225.5s69.333 -131.833 120 -184.5s110 -94.167 178 -124.5s140.667 -45.5 218 -45.5zM224.002 1807c0 -10.667 -1.83203 -20.667 -5.49902 -30s-9 -17.5 -16 -24.5
s-15.167 -12.5 -24.5 -16.5s-19.333 -6 -30 -6c-10 0 -19.5 2 -28.5 6s-16.833 9.5 -23.5 16.5s-11.834 15.167 -15.501 24.5s-5.5 19.333 -5.5 30c0 22.667 7 41.334 21 56.001s31.333 22 52 22c21.333 0 39.333 -7.33301 54 -22s22 -33.334 22 -56.001zM168.003 1366
c0 -10.667 -1.83203 -20.667 -5.49902 -30s-9 -17.5 -16 -24.5s-15.167 -12.5 -24.5 -16.5s-19.333 -6 -30 -6c-10 0 -19.5 2 -28.5 6s-16.833 9.5 -23.5 16.5s-11.834 15.167 -15.501 24.5s-5.5 19.333 -5.5 30c0 22.667 7 41.334 21 56.001s31.333 22 52 22
c21.333 0 39.333 -7.33301 54 -22s22 -33.334 22 -56.001zM537.004 1897c0 -10.667 -1.83203 -20.667 -5.49902 -30s-9 -17.5 -16 -24.5s-15.167 -12.5 -24.5 -16.5s-19.333 -6 -30 -6c-10 0 -19.5 2 -28.5 6s-16.833 9.5 -23.5 16.5s-11.834 15.167 -15.501 24.5
s-5.5 19.333 -5.5 30c0 22.667 7 41.334 21 56.001s31.333 22 52 22c21.333 0 39.333 -7.33301 54 -22s22 -33.334 22 -56.001zM388.005 1572c0 -10.667 -1.83203 -20.667 -5.49902 -30s-9 -17.5 -16 -24.5s-15.167 -12.5 -24.5 -16.5s-19.333 -6 -30 -6
c-10 0 -19.5 2 -28.5 6s-16.833 9.5 -23.5 16.5s-11.834 15.167 -15.501 24.5s-5.5 19.333 -5.5 30c0 22.667 7 41.334 21 56.001s31.333 22 52 22c21.333 0 39.333 -7.33301 54 -22s22 -33.334 22 -56.001zM1817.01 1807c0 22.667 7.33398 41.334 22.001 56.001
s32.667 22 54 22c20.667 0 38 -7.33301 52 -22s21 -33.334 21 -56.001c0 -10.667 -1.83301 -20.667 -5.5 -30s-8.83398 -17.5 -15.501 -24.5s-14.5 -12.5 -23.5 -16.5s-18.5 -6 -28.5 -6c-10.667 0 -20.667 2 -30 6s-17.5 9.5 -24.5 16.5s-12.333 15.167 -16 24.5
s-5.5 19.333 -5.5 30zM1873.01 1366c0 22.667 7.33398 41.334 22.001 56.001s32.667 22 54 22c20.667 0 38 -7.33301 52 -22s21 -33.334 21 -56.001c0 -10.667 -1.83301 -20.667 -5.5 -30s-8.83398 -17.5 -15.501 -24.5s-14.5 -12.5 -23.5 -16.5s-18.5 -6 -28.5 -6
c-10.667 0 -20.667 2 -30 6s-17.5 9.5 -24.5 16.5s-12.333 15.167 -16 24.5s-5.5 19.333 -5.5 30zM1504.01 1897c0 22.667 7.33398 41.334 22.001 56.001s32.667 22 54 22c20.667 0 38 -7.33301 52 -22s21 -33.334 21 -56.001c0 -10.667 -1.83301 -20.667 -5.5 -30
s-8.83398 -17.5 -15.501 -24.5s-14.5 -12.5 -23.5 -16.5s-18.5 -6 -28.5 -6c-10.667 0 -20.667 2 -30 6s-17.5 9.5 -24.5 16.5s-12.333 15.167 -16 24.5s-5.5 19.333 -5.5 30zM1653.01 1572c0 22.667 7.33398 41.334 22.001 56.001s32.667 22 54 22
c20.667 0 38 -7.33301 52 -22s21 -33.334 21 -56.001c0 -10.667 -1.83301 -20.667 -5.5 -30s-8.83398 -17.5 -15.501 -24.5s-14.5 -12.5 -23.5 -16.5s-18.5 -6 -28.5 -6c-10.667 0 -20.667 2 -30 6s-17.5 9.5 -24.5 16.5s-12.333 15.167 -16 24.5s-5.5 19.333 -5.5 30z" />
    <glyph glyph-name="uni260E" unicode="&#x260e;" 
d="M1523 721c0 4.66699 -0.166016 9.33691 -0.499023 14.0039s-1.16602 9.66699 -2.49902 15c48.667 -22 94.667 -47.833 138 -77.5s81.333 -66.334 114 -110.001s58.667 -95.834 78 -156.501s29.333 -133 30 -217c1.33301 -3.33301 2 -8.33301 2 -15v-137
c0 -18 -3.5 -35 -10.5 -51s-16.5 -30.167 -28.5 -42.5s-26 -22 -42 -29s-33.333 -10.5 -52 -10.5h-1441c-18.667 0 -36.334 3.5 -53.001 10.5s-31.334 16.5 -44.001 28.5s-22.667 26 -30 42s-11 33.333 -11 52v137c0 1.33301 0.333008 2.16602 1 2.49902
s1 1.16602 1 2.49902h-2c0 86 9.66699 160 29 222s45.5 115.167 78.5 159.5s71.333 81.5 115 111.5s90.167 56 139.5 78l-3 -29c0 -68.667 13.167 -133.167 39.5 -193.5s62 -113 107 -158s97.667 -80.5 158 -106.5s124.5 -39 192.5 -39s132.167 13 192.5 39
s113 61.5 158 106.5s80.667 97.667 107 158s39.5 124.833 39.5 193.5zM701.001 721.003c0 44.667 8.5 86.667 25.5 126s40.167 73.666 69.5 102.999s63.666 52.5 102.999 69.5s81.666 25.5 126.999 25.5c44.667 0 87 -8.5 127 -25.5s74.667 -40.167 104 -69.5
s52.666 -63.666 69.999 -102.999s26 -81.333 26 -126c0 -45.333 -8.66699 -87.666 -26 -126.999s-40.666 -73.666 -69.999 -102.999s-64 -52.5 -104 -69.5s-82.333 -25.5 -127 -25.5c-45.333 0 -87.666 8.5 -126.999 25.5s-73.666 40.167 -102.999 69.5
s-52.5 63.666 -69.5 102.999s-25.5 81.666 -25.5 126.999zM1951 1030c0 -14.667 -2.66309 -28.334 -7.99609 -41.001s-12.833 -23.834 -22.5 -33.501s-20.667 -17.167 -33 -22.5s-25.5 -8 -39.5 -8h-372c-19.333 42.667 -44 82 -74 118s-64.5 66.833 -103.5 92.5
s-81.5 45.667 -127.5 60s-94.333 21.5 -145 21.5c-50 0 -97.833 -7.16699 -143.5 -21.5s-87.834 -34.333 -126.501 -60s-73.334 -56.5 -104.001 -92.5s-56 -75.333 -76 -118h-369c-14 0 -27.333 2.66699 -40 8s-23.834 12.833 -33.501 22.5s-17.167 20.834 -22.5 33.501
s-8 26.334 -8 41.001v32c0 74.667 21.333 141.834 64 201.501s104.334 109.834 185.001 150.501c52 27.333 109.333 49.666 172 66.999c69.333 19.333 145.5 34.333 228.5 45s174.167 16 273.5 16c145.333 0 275.166 -11.333 389.499 -34s211.166 -54.834 290.499 -96.501
s140 -92 182 -151s63 -125.167 63 -198.5v-32z" />
    <glyph glyph-name="uni260F" unicode="&#x260f;" 
d="M1523 721c0 4.66699 -0.166016 9.33203 -0.499023 13.999s-1.16602 9.66699 -2.49902 15c50 -21.333 97 -47.5 141 -78.5s82.333 -69.333 115 -115s58.5 -99.667 77.5 -162s28.5 -135.833 28.5 -220.5v-137c0 -18 -3.5 -35 -10.5 -51s-16.5 -30.167 -28.5 -42.5
s-26 -22 -42 -29s-33.333 -10.5 -52 -10.5h-1441c-18.667 0 -36.334 3.5 -53.001 10.5s-31.334 16.5 -44.001 28.5s-22.667 26 -30 42s-11 33.333 -11 52v137c0 87.333 9.66699 162.333 29 225s45.5 116.334 78.5 161.001s71.333 82 115 112s90.167 56 139.5 78l-3 -29
c0 -68.667 13.167 -133.167 39.5 -193.5s62 -113 107 -158s97.667 -80.5 158 -106.5s124.5 -39 192.5 -39s132.167 13 192.5 39s113 61.5 158 106.5s80.667 97.667 107 158s39.5 124.833 39.5 193.5zM1951 1030c0 -14.667 -2.66602 -28.335 -7.99902 -41.002
s-12.833 -23.834 -22.5 -33.501s-20.667 -17.167 -33 -22.5s-25.5 -8 -39.5 -8h-372c-19.333 42.667 -44.166 81.834 -74.499 117.501s-64.833 66.5 -103.5 92.5s-81 46.167 -127 60.5s-94.333 21.5 -145 21.5c-50 0 -97.833 -7.16699 -143.5 -21.5
s-87.834 -34.333 -126.501 -60s-73.334 -56.5 -104.001 -92.5s-56 -75.333 -76 -118h-369c-14 0 -27.333 2.66699 -40 8s-23.834 12.833 -33.501 22.5s-17.167 20.834 -22.5 33.501s-8 26.334 -8 41.001v32c0 68.667 15.167 128.334 45.5 179.001s70.666 93.667 120.999 129
s107.833 64.166 172.5 86.499s131.167 39.833 199.5 52.5s135.833 21.334 202.5 26.001s127.334 7 182.001 7c144.667 0 274.334 -11.333 389.001 -34s211.667 -54.834 291 -96.501s140 -92.167 182 -151.5s63 -125.333 63 -198v-32zM250.002 36.9971
c0 -14.667 5.66699 -27.167 17 -37.5s25 -15.5 41 -15.5h1441c14.667 0 27.167 5.16699 37.5 15.5s15.5 22.833 15.5 37.5v77.5c0 18.333 -0.166992 32 -0.5 41s-0.666016 14.5 -0.999023 16.5s-0.5 3.33301 -0.5 4c-0.666992 61.333 -6.83398 115.333 -18.501 162
s-26.667 87.667 -45 123s-39.5 65.5 -63.5 90.5s-49 46.167 -75 63.5c-9.33301 -64.667 -30.833 -125.5 -64.5 -182.5s-76 -106.833 -127 -149.5s-109 -76.5 -174 -101.5s-133.833 -37.5 -206.5 -37.5c-72 0 -140.333 13 -205 39s-122.5 60.667 -173.5 104
s-93.333 93.333 -127 150s-55.5 116 -65.5 178c-28 -18.667 -54.5 -40.167 -79.5 -64.5s-46.667 -53.833 -65 -88.5s-33 -75.5 -44 -122.5s-16.5 -102.167 -16.5 -165.5v-137zM1871 1062c0 60.667 -19.1699 115.67 -57.5029 165.003s-93.833 91.333 -166.5 126
s-161.167 61.5 -265.5 80.5s-222.833 28.5 -355.5 28.5c-50 0 -105.5 -1.83301 -166.5 -5.5s-122.667 -10.834 -185 -21.501s-123 -25.334 -182 -44.001s-111.5 -42.834 -157.5 -72.501s-82.833 -65.5 -110.5 -107.5s-41.5 -91.667 -41.5 -149v-32
c0 -7.33301 2.33301 -13.333 7 -18s10.334 -7 17.001 -7h319c24.667 43.333 54.667 83 90 119s74.333 66.833 117 92.5s88.667 45.5 138 59.5s101 21 155 21c54.667 0 106.667 -7 156 -21s95.333 -33.833 138 -59.5s81.334 -56.5 116.001 -92.5s64.334 -75.667 89.001 -119
h323c6.66699 0 12.167 2.33301 16.5 7s6.5 10.667 6.5 18v32zM780.999 721c0 -34 6.33301 -65.833 19 -95.5s30.167 -55.667 52.5 -78s48.333 -39.833 78 -52.5s61.5 -19 95.5 -19s66 6.33301 96 19s56.167 30.167 78.5 52.5s40 48.333 53 78s19.5 61.5 19.5 95.5
s-6.5 65.833 -19.5 95.5s-30.667 55.5 -53 77.5s-48.5 39.333 -78.5 52s-62 19 -96 19s-65.833 -6.33301 -95.5 -19s-55.667 -30 -78 -52s-39.833 -47.833 -52.5 -77.5s-19 -61.5 -19 -95.5zM700.999 721c0 44.667 8.5 86.667 25.5 126s40.167 73.666 69.5 102.999
s63.666 52.5 102.999 69.5s81.666 25.5 126.999 25.5c44.667 0 87 -8.5 127 -25.5s74.667 -40.167 104 -69.5s52.666 -63.666 69.999 -102.999s26 -81.333 26 -126c0 -45.333 -8.66699 -87.666 -26 -126.999s-40.666 -73.666 -69.999 -102.999s-64 -52.5 -104 -69.5
s-82.333 -25.5 -127 -25.5c-45.333 0 -87.666 8.5 -126.999 25.5s-73.666 40.167 -102.999 69.5s-52.5 63.666 -69.5 102.999s-25.5 81.666 -25.5 126.999z" />
    <glyph glyph-name="uni2610" unicode="&#x2610;" horiz-adv-x="1764" 
d="M165 1434h1434v-1434h-1434v1434zM1475 124v1186h-1186v-1186h1186z" />
    <glyph glyph-name="uni2611" unicode="&#x2611;" horiz-adv-x="1764" 
d="M695 226l-324 474h252l144 -228l381 743h228l-506 -989h-175zM165 1434h1434v-1434h-1434v1434zM1475 124v1186h-1186v-1186h1186z" />
    <glyph glyph-name="uni2612" unicode="&#x2612;" horiz-adv-x="1764" 
d="M165 1434h1434v-1434h-1434v1434zM1475 124v1186h-1186v-1186h1186zM976 717l428 -428l-94 -94l-428 428l-428 -428l-94 94l428 428l-428 429l94 94l428 -429l428 429l94 -94z" />
    <glyph glyph-name="uni2614" unicode="&#x2614;" horiz-adv-x="1574" 
d="M313 1427c0 -8.66699 -2.49902 -17.667 -7.49902 -27s-11.167 -17.666 -18.5 -24.999s-15.666 -13.5 -24.999 -18.5s-18.333 -7.5 -27 -7.5c-10.667 0 -20.834 2.5 -30.501 7.5s-18 11.167 -25 18.5s-12.667 15.666 -17 24.999s-6.5 18.333 -6.5 27c0 11.333 4 26 12 44
s17 35.667 27 53c12 20.667 25.333 42 40 64l39 -64c9.33301 -17.333 18.166 -35 26.499 -53s12.5 -32.667 12.5 -44zM1417 1427c0 -8.66699 -1.99805 -17.667 -5.99805 -27s-9.5 -17.666 -16.5 -24.999s-15.333 -13.5 -25 -18.5s-19.834 -7.5 -30.501 -7.5
c-14 0 -25.833 2.5 -35.5 7.5s-17.667 11.167 -24 18.5s-11 15.666 -14 24.999s-4.5 18.333 -4.5 27c0 11.333 4 26 12 44s17 35.667 27 53c11.333 20.667 24.333 42 39 64l39 -64c9.33301 -17.333 18.166 -35 26.499 -53s12.5 -32.667 12.5 -44zM873.003 1588
c0 -8.66699 -1.99707 -17.667 -5.99707 -27s-9.5 -17.666 -16.5 -24.999s-15.333 -13.5 -25 -18.5s-19.834 -7.5 -30.501 -7.5c-14.667 0 -27.834 2.5 -39.501 7.5s-21.5 11.167 -29.5 18.5s-14.167 15.666 -18.5 24.999s-6.5 18.333 -6.5 27c0 13.333 4.83301 30 14.5 50
s20.5 39 32.5 57c13.333 21.333 29 43 47 65c14 -22 27 -43.667 39 -65c9.33301 -18 18.166 -37 26.499 -57s12.5 -36.667 12.5 -50zM1147.01 1803c0 -10.667 -1.99805 -21.999 -5.99805 -33.999s-9.5 -23 -16.5 -33s-15.333 -18.167 -25 -24.5s-19.834 -9.5 -30.501 -9.5
c-14.667 0 -27.834 3.16699 -39.501 9.5s-21.5 14.5 -29.5 24.5s-14.167 21 -18.5 33s-6.5 23.333 -6.5 34c0 9.33301 4.83301 22.166 14.5 38.499s20.5 32.833 32.5 49.5c13.333 19.333 29 39.666 47 60.999l39 -61l26.5 -49.5c8.33301 -16.333 12.5 -29.166 12.5 -38.499z
M603.008 1803c0 -10.667 -2.33301 -22 -7 -34s-11.167 -23 -19.5 -33s-18.166 -18.167 -29.499 -24.5s-24 -9.5 -38 -9.5c-10.667 0 -20.834 3.16699 -30.501 9.5s-18 14.5 -25 24.5s-12.667 21 -17 33s-6.5 23.333 -6.5 34c0 9.33301 4 22.166 12 38.499s17 32.833 27 49.5
c12 19.333 25.333 39.666 40 60.999c17.333 -21.333 33 -41.666 47 -60.999c11.333 -16.667 22 -33.167 32 -49.5s15 -29.166 15 -38.499zM799.008 1349c82 0 159.844 -15.333 233.511 -46s138.167 -72.834 193.5 -126.501s99.166 -116.667 131.499 -189
s48.5 -150.166 48.5 -233.499h-23c-5.33301 18.667 -13.666 36.167 -24.999 52.5s-24.833 30.833 -40.5 43.5s-32.667 22.667 -51 30s-36.833 11 -55.5 11c-24.667 0 -47.834 -3.66699 -69.501 -11s-41.834 -17.333 -60.501 -30s-35.167 -27.167 -49.5 -43.5
s-26.5 -33.833 -36.5 -52.5h-19c-6 18.667 -14.833 36.167 -26.5 52.5s-25.334 30.833 -41.001 43.5s-32.834 22.667 -51.501 30s-38 11 -58 11s-39.333 -3.66699 -58 -11s-35.834 -17.333 -51.501 -30s-29.334 -27.167 -41.001 -43.5s-20.5 -33.833 -26.5 -52.5h-19
c-10 18.667 -22.167 36.167 -36.5 52.5s-30.833 30.833 -49.5 43.5s-38.834 22.667 -60.501 30s-44.834 11 -69.501 11c-18.667 0 -37.167 -3.66699 -55.5 -11s-35.333 -17.333 -51 -30s-29.334 -27.167 -41.001 -43.5s-19.834 -33.833 -24.501 -52.5h-23
c0 83.333 16.167 161.166 48.5 233.499s76.166 135.333 131.499 189s119.833 95.834 193.5 126.501s151.5 46 233.5 46zM853.019 288.001c0 -46 -4.1709 -89.1689 -12.5039 -129.502s-21.666 -75.166 -39.999 -104.499s-42.166 -52.5 -71.499 -69.5s-65 -25.5 -107 -25.5
c-17.333 0 -31.333 5.33301 -42 16s-16 23.334 -16 38.001c0 20 6.33301 35 19 45s25.667 15 39 15c22 0 40.333 4.83301 55 14.5s26.334 23.667 35.001 42s14.834 40.833 18.501 67.5s5.5 57 5.5 91v488c4 2.66699 9 5.33398 15 8.00098c5.33301 2 11.5 3.83301 18.5 5.5
s15.833 2.5 26.5 2.5c9.33301 0 17.333 -0.833008 24 -2.5s12.667 -3.5 18 -5.5c6 -2.66699 11 -5.33398 15 -8.00098v-488z" />
    <glyph glyph-name="uni2615" unicode="&#x2615;" horiz-adv-x="1700" 
d="M1168 947c2 -11.333 3.83398 -23.502 5.50098 -36.502s3.5 -26.5 5.5 -40.5c2.66699 -24.667 5 -54 7 -88s3 -71.667 3 -113c0 -61.333 -3.5 -128.666 -10.5 -201.999s-20.833 -148.166 -41.5 -224.499s-49.167 -151.833 -85.5 -226.5s-83.5 -144 -141.5 -208h-448
c-38.667 38 -72.167 79.667 -100.5 125s-52.833 92.833 -73.5 142.5s-37.334 100.834 -50.001 153.501s-23 105 -31 157s-13.167 102.667 -15.5 152s-3.5 95.666 -3.5 138.999c0 40 0.666992 76.167 2 108.5s3 60.833 5 85.5c2 26.667 4.66699 52 8 76h965zM872.001 1048
c-8.66699 0 -21.5 4.66211 -38.5 13.9951s-33.833 22.5 -50.5 39.5s-31.167 37.5 -43.5 61.5s-18.5 51 -18.5 81c0 20 3 39.333 9 58s13.333 36.834 22 54.501s18.334 35 29.001 52s20.5 33.833 29.5 50.5s16.667 33.167 23 49.5s9.5 32.5 9.5 48.5
c0 32.667 -3.5 58.834 -10.5 78.501s-14.667 35.834 -23 48.501s-15.833 22.834 -22.5 30.501s-10 14.834 -10 21.501c0 14 2.83301 24 8.5 30s14.834 9 27.501 9c9.33301 0 22.833 -6 40.5 -18s34.834 -28.167 51.501 -48.5s31.5 -44.166 44.5 -71.499
s19.5 -55.666 19.5 -84.999c0 -30.667 -6.33301 -58.834 -19 -84.501s-26.334 -50.5 -41.001 -74.5s-28.334 -47.667 -41.001 -71s-19 -48.333 -19 -75c0 -26 3.16699 -47.333 9.5 -64s13.166 -30.5 20.499 -41.5s14.333 -20.833 21 -29.5s10 -18.334 10 -29.001
c0 -11.333 -2.83301 -20 -8.5 -26s-15.5 -9 -29.5 -9zM598.001 1050.99c-6.66699 0 -16.165 2.33008 -28.498 6.99707s-24.5 12.167 -36.5 22.5s-22.667 23.166 -32 38.499s-14 34 -14 56c0 16.667 2.83301 32.667 8.5 48s11.667 30 18 44l18 40
c5.66699 12.667 8.5 25.334 8.5 38.001c0 22.667 -2.66699 40.167 -8 52.5s-10.833 21.833 -16.5 28.5s-10.834 11.834 -15.501 15.501s-7 8.16699 -7 13.5c0 18.667 8.66699 28 26 28c7.33301 0 17.333 -3.33301 30 -10s25.167 -16.167 37.5 -28.5
s23.166 -27.166 32.499 -44.499s14 -37.333 14 -60c0 -16.667 -2.66699 -31.667 -8 -45s-11.333 -26.166 -18 -38.499s-12.667 -24.833 -18 -37.5s-8 -26.667 -8 -42c0 -18.667 2.16699 -33 6.5 -43s9.33301 -17.833 15 -23.5l15 -15c4.33301 -4.33301 6.5 -10.5 6.5 -18.5
c0 -17.333 -8.66699 -26 -26 -26zM1265 946.99c63.333 -22 119.001 -53 167.001 -93c21.333 -17.333 42 -37.5 62 -60.5s37.833 -49.833 53.5 -80.5s28.167 -64.667 37.5 -102s14 -79 14 -125c0 -50.667 -6.83301 -96.667 -20.5 -138s-31.5 -78.5 -53.5 -111.5
s-47.333 -62.167 -76 -87.5s-58 -47 -88 -65c-70.667 -45.333 -150 -78.666 -238 -99.999l62 162c54 16.667 102.667 40.667 146 72c18 12.667 35.667 27.334 53 44.001s32.833 36 46.5 58s24.667 46 33 72s12.5 55 12.5 87c0 33.333 -3.16699 63.166 -9.5 89.499
s-14.5 49.833 -24.5 70.5s-21.333 38.667 -34 54s-25.334 28.666 -38.001 39.999c-31.333 25.333 -66.333 43.333 -105 54v160z" />
    <glyph glyph-name="uni261A" unicode="&#x261a;" horiz-adv-x="1741" 
d="M699 193c-10.667 0 -22.1689 2.83105 -34.502 8.49805s-23.666 13.5 -33.999 23.5s-18.833 22 -25.5 36s-10 29.333 -10 46s3.33301 31.834 10 45.501s15 25.834 25 36.501c-10.667 0 -22 2.5 -34 7.5s-23.167 12 -33.5 21s-19 20.167 -26 33.5s-10.5 28.333 -10.5 45
s4.16699 32.667 12.5 48s17.5 28 27.5 38c-6 2.66699 -12.667 6.33398 -20 11.001s-14.666 10.834 -21.999 18.501s-13.333 17.334 -18 29.001s-7 25.834 -7 42.501c0 16 4 31.667 12 47s17 28 27 38h-191c-10.667 0 -22 2.5 -34 7.5s-23.167 12.167 -33.5 21.5
s-19 20.666 -26 33.999s-10.5 28.333 -10.5 45s3.5 32 10.5 46s15.667 26 26 36s21.5 17.833 33.5 23.5s23.333 8.5 34 8.5h544l-12 20c-4.66699 8 -9 17 -13 27s-7.5 20.667 -10.5 32s-4.5 23 -4.5 35c0 23.333 4.16699 42.166 12.5 56.499s18.5 25.5 30.5 33.5
s24.667 13.5 38 16.5s25 4.5 35 4.5c2 0 11.333 -5 28 -15s37.667 -23.833 63 -41.5s53.5 -38.834 84.5 -63.501s62.833 -51.834 95.5 -81.501s64.5 -61.334 95.5 -95.001s58.5 -68.667 82.5 -105s43.333 -73.166 58 -110.499s22 -74.333 22 -111
c0 -55.333 -10.5 -107.333 -31.5 -156s-49.5 -91 -85.5 -127s-78.167 -64.333 -126.5 -85s-99.833 -31 -154.5 -31h-399z" />
    <glyph glyph-name="uni261B" unicode="&#x261b;" horiz-adv-x="1741" 
d="M642 193c-54.667 0 -106.169 10.335 -154.502 31.002s-90.5 49 -126.5 85s-64.5 78.333 -85.5 127s-31.5 100.667 -31.5 156c0 36.667 7.33301 73.667 22 111s34 74.166 58 110.499s51.5 71.333 82.5 105s62.833 65.334 95.5 95.001s64.5 56.834 95.5 81.501
s59.167 45.834 84.5 63.501s46.333 31.5 63 41.5s26 15 28 15c10 0 21.667 -1.5 35 -4.5s26 -8.5 38 -16.5s22.167 -19.167 30.5 -33.5s12.5 -33.166 12.5 -56.499c0 -12 -1.5 -23.667 -4.5 -35s-6.5 -22 -10.5 -32s-8.33301 -19 -13 -27l-12 -20h544
c10.667 0 22 -2.83301 34 -8.5s23.167 -13.5 33.5 -23.5s19 -22 26 -36s10.5 -29.333 10.5 -46s-3.5 -31.667 -10.5 -45s-15.667 -24.666 -26 -33.999s-21.5 -16.5 -33.5 -21.5s-23.333 -7.5 -34 -7.5h-191c10 -10 19 -22.667 27 -38s12 -31 12 -47
c0 -16.667 -2.33301 -30.834 -7 -42.501s-10.667 -21.334 -18 -29.001s-14.666 -13.834 -21.999 -18.501s-14 -8.33398 -20 -11.001c10 -10 19.167 -22.667 27.5 -38s12.5 -31.333 12.5 -48s-3.5 -31.667 -10.5 -45s-15.667 -24.5 -26 -33.5s-21.5 -16 -33.5 -21
s-23.333 -7.5 -34 -7.5c10 -10.667 18.333 -22.834 25 -36.501s10 -28.834 10 -45.501s-3.33301 -32 -10 -46s-15.167 -26 -25.5 -36s-21.666 -17.833 -33.999 -23.5s-23.833 -8.5 -34.5 -8.5h-399z" />
    <glyph glyph-name="uni261C" unicode="&#x261c;" horiz-adv-x="1741" 
d="M1086 237c48.667 0 94.5 9.16699 137.5 27.5s80.667 43.666 113 75.999s57.833 70 76.5 113s28 89.167 28 138.5c0 32.667 -6.66699 65.834 -20 99.501s-30.833 67 -52.5 100s-46.5 65 -74.5 96s-56.5 60.333 -85.5 88s-57.833 53 -86.5 76l-77 59.5
c-22.667 16.667 -41.334 29.667 -56.001 39s-23.334 14 -26.001 14c-17.333 0 -32.5 -5.33301 -45.5 -16s-19.5 -25 -19.5 -43c0 -13.333 1.83301 -26.166 5.5 -38.499s8.83398 -24.833 15.501 -37.5s14.667 -25.834 24 -39.501l31 -43.5h-611
c-9.33301 0 -18.166 -2 -26.499 -6s-15.5 -9.33301 -21.5 -16s-10.833 -14.334 -14.5 -23.001s-5.5 -17.667 -5.5 -27c0 -18.667 6.66699 -34.167 20 -46.5s29.333 -18.5 48 -18.5h445c8 0 14.5 -2.5 19.5 -7.5s7.5 -11.5 7.5 -19.5s-2.5 -14.833 -7.5 -20.5
s-11.5 -8.5 -19.5 -8.5h-188c-19.333 0 -35.666 -6.33301 -48.999 -19s-20 -28.334 -20 -47.001c0 -19.333 6.66699 -35.166 20 -47.499s29.666 -18.5 48.999 -18.5h161c8 0 14.5 -2.66699 19.5 -8s7.5 -11.666 7.5 -18.999s-2.5 -13.333 -7.5 -18s-11.5 -7 -19.5 -7h-138
c-10 0 -19.167 -2 -27.5 -6s-15.666 -9.5 -21.999 -16.5s-11.333 -14.833 -15 -23.5s-5.5 -17.667 -5.5 -27s1.83301 -18.333 5.5 -27s8.66699 -16.334 15 -23.001s13.666 -11.834 21.999 -15.501s17.5 -5.5 27.5 -5.5h165c8 0 14.5 -1.66699 19.5 -5s7.5 -9 7.5 -17
c0 -6.66699 -2.5 -12 -7.5 -16s-11.5 -6 -19.5 -6h-97c-9.33301 0 -18 -2 -26 -6s-15.167 -9.33301 -21.5 -16s-11.333 -14.5 -15 -23.5s-5.5 -18.5 -5.5 -28.5c0 -9.33301 1.83301 -18.166 5.5 -26.499s8.66699 -15.666 15 -21.999s13.5 -11.5 21.5 -15.5s16.667 -6 26 -6
h375zM699 193c-10.667 0 -22.1689 2.83105 -34.502 8.49805s-23.666 13.5 -33.999 23.5s-18.833 22 -25.5 36s-10 29.333 -10 46s3.33301 31.834 10 45.501s15 25.834 25 36.501c-10.667 0 -22 2.5 -34 7.5s-23.167 12 -33.5 21s-19 20.167 -26 33.5s-10.5 28.333 -10.5 45
s4.16699 32.667 12.5 48s17.5 28 27.5 38c-6 2.66699 -12.667 6.33398 -20 11.001s-14.666 10.834 -21.999 18.501s-13.333 17.334 -18 29.001s-7 25.834 -7 42.501c0 16 4 31.667 12 47s17 28 27 38h-191c-10.667 0 -22 2.5 -34 7.5s-23.167 12.167 -33.5 21.5
s-19 20.666 -26 33.999s-10.5 28.333 -10.5 45s3.5 32 10.5 46s15.667 26 26 36s21.5 17.833 33.5 23.5s23.333 8.5 34 8.5h544l-12 20c-4.66699 8 -9 17 -13 27s-7.5 20.667 -10.5 32s-4.5 23 -4.5 35c0 23.333 4.16699 42.166 12.5 56.499s18.5 25.5 30.5 33.5
s24.667 13.5 38 16.5s25 4.5 35 4.5c2 0 11.333 -5 28 -15s37.667 -23.833 63 -41.5s53.5 -38.834 84.5 -63.501s62.833 -51.834 95.5 -81.501s64.5 -61.334 95.5 -95.001s58.5 -68.667 82.5 -105s43.333 -73.166 58 -110.499s22 -74.333 22 -111
c0 -55.333 -10.5 -107.333 -31.5 -156s-49.5 -91 -85.5 -127s-78.167 -64.333 -126.5 -85s-99.833 -31 -154.5 -31h-399z" />
    <glyph glyph-name="uni261D" unicode="&#x261d;" horiz-adv-x="1024" 
d="M979 858c0 9.33301 -2 18.001 -6 26.001s-9.16699 15.167 -15.5 21.5s-13.666 11.333 -21.999 15s-17.166 5.5 -26.499 5.5c-10 0 -19.5 -1.83301 -28.5 -5.5s-16.833 -8.66699 -23.5 -15s-12 -13.5 -16 -21.5s-6 -16.667 -6 -26v-97c0 -8 -2 -14.5 -6 -19.5
s-9.33301 -7.5 -16 -7.5c-8 0 -13.667 2.5 -17 7.5s-5 11.5 -5 19.5v165c0 10 -1.83301 19.167 -5.5 27.5s-8.83398 15.666 -15.501 21.999s-14.334 11.333 -23.001 15s-17.667 5.5 -27 5.5s-18.333 -1.83301 -27 -5.5s-16.5 -8.66699 -23.5 -15
s-12.5 -13.666 -16.5 -21.999s-6 -17.5 -6 -27.5v-138c0 -8 -2.33301 -14.5 -7 -19.5s-10.667 -7.5 -18 -7.5s-13.666 2.5 -18.999 7.5s-8 11.5 -8 19.5v161c0 19.333 -6.16699 35.666 -18.5 48.999s-28.166 20 -47.499 20c-18.667 0 -34.334 -6.66699 -47.001 -20
s-19 -29.666 -19 -48.999v-188c0 -8 -2.83301 -14.5 -8.5 -19.5s-12.5 -7.5 -20.5 -7.5s-14.5 2.5 -19.5 7.5s-7.5 11.5 -7.5 19.5v445c0 18.667 -6.16699 34.667 -18.5 48s-27.833 20 -46.5 20c-9.33301 0 -18.333 -1.83301 -27 -5.5s-16.334 -8.5 -23.001 -14.5
s-12 -13.167 -16 -21.5s-6 -17.166 -6 -26.499v-611l-43.5 31c-13.667 9.33301 -26.834 17.333 -39.501 24s-25.167 11.834 -37.5 15.501s-25.166 5.5 -38.499 5.5c-18 0 -32.333 -6.5 -43 -19.5s-16 -28.167 -16 -45.5c0 -2.66699 4.66699 -11.334 14 -26.001
s22.333 -33.334 39 -56.001s36.5 -48.334 59.5 -77.001s48.333 -57.5 76 -86.5s57 -57.5 88 -85.5s63 -52.833 96 -74.5s66.333 -39.167 100 -52.5s66.834 -20 99.501 -20c49.333 0 95.5 9.33301 138.5 28s80.667 44.167 113 76.5s57.666 70 75.999 113
s27.5 88.833 27.5 137.5v375zM1023 471.001c0 -54.667 -10.335 -106.169 -31.002 -154.502s-49 -90.5 -85 -126.5s-78.333 -64.5 -127 -85.5s-100.667 -31.5 -156 -31.5c-36.667 0 -73.667 7.33301 -111 22s-74.166 34 -110.499 58s-71.333 51.5 -105 82.5
s-65.334 62.833 -95.001 95.5s-56.834 64.5 -81.501 95.5s-45.834 59.167 -63.501 84.5s-31.5 46.333 -41.5 63s-15 26 -15 28c0 10 1.5 21.667 4.5 35s8.5 26 16.5 38s19.167 22.167 33.5 30.5s33.166 12.5 56.499 12.5c12 0 23.667 -1.5 35 -4.5s22 -6.5 32 -10.5
s19 -8.33301 27 -13l20 -12v544c0 10.667 2.83301 22 8.5 34s13.5 23.167 23.5 33.5s22 19 36 26s29.333 10.5 46 10.5s31.667 -3.5 45 -10.5s24.666 -15.667 33.999 -26s16.5 -21.5 21.5 -33.5s7.5 -23.333 7.5 -34v-191c10 10 22.667 19 38 27s31 12 47 12
c16.667 0 30.834 -2.33301 42.501 -7s21.334 -10.667 29.001 -18s13.834 -14.666 18.501 -21.999s8.33398 -14 11.001 -20c10 10 22.667 19.167 38 27.5s31.333 12.5 48 12.5s31.667 -3.5 45 -10.5s24.5 -15.667 33.5 -26s16 -21.5 21 -33.5s7.5 -23.333 7.5 -34
c10.667 10 22.834 18.333 36.501 25s28.834 10 45.501 10s32 -3.33301 46 -10s26 -15.167 36 -25.5s17.833 -21.666 23.5 -33.999s8.5 -23.833 8.5 -34.5v-399z" />
    <glyph glyph-name="uni261E" unicode="&#x261e;" horiz-adv-x="1741" 
d="M1029 237c9.33301 0 18 2 26 6s15.167 9.16699 21.5 15.5s11.333 13.666 15 21.999s5.5 17.166 5.5 26.499c0 10 -1.83301 19.5 -5.5 28.5s-8.66699 16.833 -15 23.5s-13.5 12 -21.5 16s-16.667 6 -26 6h-97c-8 0 -14.5 2 -19.5 6s-7.5 9.33301 -7.5 16
c0 8 2.5 13.667 7.5 17s11.5 5 19.5 5h165c10 0 19.167 1.83301 27.5 5.5s15.666 8.83398 21.999 15.501s11.333 14.334 15 23.001s5.5 17.667 5.5 27s-1.83301 18.333 -5.5 27s-8.66699 16.5 -15 23.5s-13.666 12.5 -21.999 16.5s-17.5 6 -27.5 6h-138
c-8 0 -14.5 2.33301 -19.5 7s-7.5 10.667 -7.5 18s2.5 13.666 7.5 18.999s11.5 8 19.5 8h161c19.333 0 35.666 6.16699 48.999 18.5s20 28.166 20 47.499c0 18.667 -6.66699 34.334 -20 47.001s-29.666 19 -48.999 19h-188c-8 0 -14.5 2.83301 -19.5 8.5
s-7.5 12.5 -7.5 20.5s2.5 14.5 7.5 19.5s11.5 7.5 19.5 7.5h445c18.667 0 34.667 6.16699 48 18.5s20 27.833 20 46.5c0 9.33301 -1.83301 18.333 -5.5 27s-8.5 16.334 -14.5 23.001s-13.167 12 -21.5 16s-17.166 6 -26.499 6h-611l31 43.5
c9.33301 13.667 17.333 26.834 24 39.501s11.834 25.167 15.501 37.5s5.5 25.166 5.5 38.499c0 18 -6.5 32.333 -19.5 43s-28.167 16 -45.5 16c-2.66699 0 -11.334 -4.66699 -26.001 -14s-33.334 -22.333 -56.001 -39l-77 -59.5c-28.667 -23 -57.5 -48.333 -86.5 -76
s-57.5 -57 -85.5 -88s-52.833 -63 -74.5 -96s-39.167 -66.333 -52.5 -100s-20 -66.834 -20 -99.501c0 -49.333 9.33301 -95.5 28 -138.5s44.167 -80.667 76.5 -113s70 -57.666 113 -75.999s88.833 -27.5 137.5 -27.5h375zM642 193
c-54.667 0 -106.169 10.335 -154.502 31.002s-90.5 49 -126.5 85s-64.5 78.333 -85.5 127s-31.5 100.667 -31.5 156c0 36.667 7.33301 73.667 22 111s34 74.166 58 110.499s51.5 71.333 82.5 105s62.833 65.334 95.5 95.001s64.5 56.834 95.5 81.501
s59.167 45.834 84.5 63.501s46.333 31.5 63 41.5s26 15 28 15c10 0 21.667 -1.5 35 -4.5s26 -8.5 38 -16.5s22.167 -19.167 30.5 -33.5s12.5 -33.166 12.5 -56.499c0 -12 -1.5 -23.667 -4.5 -35s-6.5 -22 -10.5 -32s-8.33301 -19 -13 -27l-12 -20h544
c10.667 0 22 -2.83301 34 -8.5s23.167 -13.5 33.5 -23.5s19 -22 26 -36s10.5 -29.333 10.5 -46s-3.5 -31.667 -10.5 -45s-15.667 -24.666 -26 -33.999s-21.5 -16.5 -33.5 -21.5s-23.333 -7.5 -34 -7.5h-191c10 -10 19 -22.667 27 -38s12 -31 12 -47
c0 -16.667 -2.33301 -30.834 -7 -42.501s-10.667 -21.334 -18 -29.001s-14.666 -13.834 -21.999 -18.501s-14 -8.33398 -20 -11.001c10 -10 19.167 -22.667 27.5 -38s12.5 -31.333 12.5 -48s-3.5 -31.667 -10.5 -45s-15.667 -24.5 -26 -33.5s-21.5 -16 -33.5 -21
s-23.333 -7.5 -34 -7.5c10 -10.667 18.333 -22.834 25 -36.501s10 -28.834 10 -45.501s-3.33301 -32 -10 -46s-15.167 -26 -25.5 -36s-21.666 -17.833 -33.999 -23.5s-23.833 -8.5 -34.5 -8.5h-399z" />
    <glyph glyph-name="uni261F" unicode="&#x261f;" horiz-adv-x="1024" 
d="M45 540c0 -9.33301 2 -18.001 6 -26.001s9.16699 -15.167 15.5 -21.5s13.666 -11.333 21.999 -15s17.166 -5.5 26.499 -5.5c10 0 19.5 1.83301 28.5 5.5s16.833 8.66699 23.5 15s12 13.5 16 21.5s6 16.667 6 26v97c0 8 2 14.5 6 19.5s9.33301 7.5 16 7.5
c8 0 13.667 -2.5 17 -7.5s5 -11.5 5 -19.5v-165c0 -10 1.83301 -19.167 5.5 -27.5s8.83398 -15.666 15.501 -21.999s14.334 -11.333 23.001 -15s17.667 -5.5 27 -5.5s18.333 1.83301 27 5.5s16.5 8.66699 23.5 15s12.5 13.666 16.5 21.999s6 17.5 6 27.5v138
c0 8 2.33301 14.5 7 19.5s10.667 7.5 18 7.5s13.666 -2.5 18.999 -7.5s8 -11.5 8 -19.5v-161c0 -19.333 6.16699 -35.666 18.5 -48.999s28.166 -20 47.499 -20c18.667 0 34.334 6.66699 47.001 20s19 29.666 19 48.999v188c0 8 2.83301 14.5 8.5 19.5s12.5 7.5 20.5 7.5
s14.5 -2.5 19.5 -7.5s7.5 -11.5 7.5 -19.5v-445c0 -18.667 6.16699 -34.667 18.5 -48s27.833 -20 46.5 -20c9.33301 0 18.333 1.83301 27 5.5s16.334 8.5 23.001 14.5s12 13.167 16 21.5s6 17.166 6 26.499v611l43.5 -31c13.667 -9.33301 26.834 -17.333 39.501 -24
s25.167 -11.834 37.5 -15.501s25.166 -5.5 38.499 -5.5c18 0 32.333 6.5 43 19.5s16 28.167 16 45.5c0 2.66699 -4.66699 11.334 -14 26.001s-22.333 33.334 -39 56.001s-36.5 48.334 -59.5 77.001s-48.333 57.5 -76 86.5s-57 57.5 -88 85.5s-63 52.833 -96 74.5
s-66.333 39.167 -100 52.5s-66.834 20 -99.501 20c-49.333 0 -95.5 -9.33301 -138.5 -28s-80.667 -44.167 -113 -76.5s-57.666 -70 -75.999 -113s-27.5 -88.833 -27.5 -137.5v-375zM1 926.999c0 54.667 10.335 106.169 31.002 154.502s49 90.5 85 126.5
s78.333 64.5 127 85.5s100.667 31.5 156 31.5c36.667 0 73.667 -7.33301 111 -22s74.166 -34 110.499 -58s71.333 -51.5 105 -82.5s65.334 -62.833 95.001 -95.5s56.834 -64.5 81.501 -95.5s45.834 -59.167 63.501 -84.5s31.5 -46.333 41.5 -63s15 -26 15 -28
c0 -10 -1.5 -21.667 -4.5 -35s-8.5 -26 -16.5 -38s-19.167 -22.167 -33.5 -30.5s-33.166 -12.5 -56.499 -12.5c-12 0 -23.667 1.5 -35 4.5s-22 6.5 -32 10.5s-19 8.33301 -27 13l-20 12v-544c0 -10.667 -2.83301 -22 -8.5 -34s-13.5 -23.167 -23.5 -33.5s-22 -19 -36 -26
s-29.333 -10.5 -46 -10.5s-31.667 3.5 -45 10.5s-24.666 15.667 -33.999 26s-16.5 21.5 -21.5 33.5s-7.5 23.333 -7.5 34v191c-10 -10 -22.667 -19 -38 -27s-31 -12 -47 -12c-16.667 0 -30.834 2.33301 -42.501 7s-21.334 10.667 -29.001 18s-13.834 14.666 -18.501 21.999
s-8.33398 14 -11.001 20c-10 -10 -22.667 -19.167 -38 -27.5s-31.333 -12.5 -48 -12.5s-31.667 3.5 -45 10.5s-24.5 15.667 -33.5 26s-16 21.5 -21 33.5s-7.5 23.333 -7.5 34c-10.667 -10 -22.834 -18.333 -36.501 -25s-28.834 -10 -45.501 -10s-32 3.33301 -46 10
s-26 15.167 -36 25.5s-17.833 21.666 -23.5 33.999s-8.5 23.833 -8.5 34.5v399z" />
    <glyph glyph-name="uni2639" unicode="&#x2639;" 
d="M1447 359c14 -9.33301 21.001 -21.9971 21.001 -37.9971c0 -10 -3.33301 -20 -10 -30c-11.333 -13.333 -25.333 -20 -42 -20c-14 0 -25 3 -33 9c-68 48.667 -132.833 82.5 -194.5 101.5s-119.5 28.5 -173.5 28.5c-49.333 0 -94.5 -5.83301 -135.5 -17.5
s-76.667 -24.834 -107 -39.501s-54.833 -28.667 -73.5 -42s-30.334 -22 -35.001 -26l-2 -1c-12 -8.66699 -24.333 -13 -37 -13c-15.333 0 -28 5 -38 15s-15 21.667 -15 35c0 7.33301 1.83301 14.166 5.5 20.499s8.16699 12.166 13.5 17.499l42 30.5
c22.667 16.333 52.5 33.333 89.5 51s80.5 33.5 130.5 47.5s105 21 165 21c63.333 0 131.333 -11 204 -33s147.667 -61 225 -117zM711.001 901.003c0 -14.667 -1.16895 -27.9961 -3.50195 -39.9961s-8.16602 -22.333 -17.499 -31c-4 0.666992 -9.66699 2.66699 -17 6
s-15 6.5 -23 9.5s-16.167 5.83301 -24.5 8.5s-15.5 4 -21.5 4c-5.33301 0 -11.833 -1.33301 -19.5 -4l-23.5 -8.5c-8 -3 -15.667 -6.16699 -23 -9.5s-13 -5.33301 -17 -6c-9.33301 8.66699 -15.166 19 -17.499 31s-3.5 25.333 -3.5 40v48c0 24 4.66699 47.333 14 70
c-4 -2 -9.16699 -3.66699 -15.5 -5s-13 -2.66602 -20 -3.99902s-13.833 -2.33301 -20.5 -3s-12 -1 -16 -1c-8 0 -15.167 2.16699 -21.5 6.5s-9.5 11.166 -9.5 20.499c0 6 2 13.667 6 23c4 7.33301 11.167 15.166 21.5 23.499s23 16.666 38 24.999s31.833 16.166 50.5 23.499
s38 13.333 58 18c14 3.33301 28.833 6.66602 44.5 9.99902s31.167 6.33301 46.5 9s30.333 4.83398 45 6.50098s28 2.5 40 2.5c20 0 33.667 -2.66699 41 -8c7.33301 -4.66699 12.5 -9.33398 15.5 -14.001s4.5 -9.66699 4.5 -15c0 -12 -5.66699 -20.667 -17 -26
c-6.66699 -3.33301 -16 -7.66602 -28 -12.999s-24.5 -10.5 -37.5 -15.5s-25.833 -9.33301 -38.5 -13s-23 -5.83398 -31 -6.50098c12.667 -13.333 22.5 -29.833 29.5 -49.5s10.5 -41.167 10.5 -64.5zM1447 1147.01c20 -4.66699 39.165 -10.498 57.498 -17.498
s35 -14.667 50 -23s27.833 -16.833 38.5 -25.5s18 -17 22 -25c3.33301 -6 5 -12.667 5 -20c0 -9.33301 -3.16699 -16.666 -9.5 -21.999s-13.833 -8 -22.5 -8c-6.66699 0 -17 0.833008 -31 2.5s-24.333 3.83398 -31 6.50098c7.33301 -20.667 11 -42.667 11 -66v-48
c0 -14.667 -1 -28 -3 -40s-7.66699 -22.333 -17 -31c-4 0.666992 -9.5 2.66699 -16.5 6s-14.5 6.5 -22.5 9.5l-23.5 8.5c-7.66699 2.66699 -14.5 4 -20.5 4s-12.833 -1.33301 -20.5 -4l-23.5 -8.5c-8 -3 -15.5 -6.16699 -22.5 -9.5s-12.833 -5.33301 -17.5 -6
c-9.33301 9.33301 -15.166 20.166 -17.499 32.499s-3.5 26.166 -3.5 41.499v45c0 23.333 3.66699 44.833 11 64.5s16.666 36.167 27.999 49.5c-8.66699 0.666992 -19.5 2.83398 -32.5 6.50098s-26.333 8 -40 13s-26.667 10.167 -39 15.5l-29.5 13
c-4.66699 3.33301 -8.5 7.16602 -11.5 11.499s-4.5 9.16602 -4.5 14.499c0 10.667 6.66699 21.334 20 32.001c7.33301 4.66699 20.333 7 39 7c12 0 25.333 -0.833008 40 -2.5s29.834 -3.83398 45.501 -6.50098s31.334 -5.83398 47.001 -9.50098zM1018 1705.01
c87.333 0 171.502 -11.3311 252.502 -33.998s156.667 -54.667 227 -96s134.333 -90.833 192 -148.5s107.167 -121.667 148.5 -192s73.333 -146 96 -227s34 -165.167 34 -252.5c0 -128 -23.833 -249.5 -71.5 -364.5s-116.834 -217.833 -207.501 -308.5
c-44.667 -44.667 -92.834 -84.167 -144.501 -118.5s-106 -63.333 -163 -87s-116 -41.5 -177 -53.5s-123.167 -18 -186.5 -18c-87.333 0 -171.5 11.333 -252.5 34s-156.667 54.5 -227 95.5s-134.333 90.333 -192 148s-107.167 121.667 -148.5 192
s-73.333 146.166 -96 227.499s-34 165.666 -34 252.999s11.333 171.5 34 252.5s54.667 156.667 96 227s90.833 134.333 148.5 192s121.667 107.167 192 148.5s146 73.333 227 96s165.167 34 252.5 34zM1018 -100.989c78.667 0 154.5 10.167 227.5 30.5
s141.167 49.166 204.5 86.499s121 82 173 134s96.667 109.667 134 173s66.166 131.5 86.499 204.5s30.5 148.833 30.5 227.5s-10.167 154.334 -30.5 227.001s-49.166 140.667 -86.499 204s-82 121.166 -134 173.499s-109.667 97.166 -173 134.499
s-131.5 66.166 -204.5 86.499s-148.833 30.5 -227.5 30.5s-154.5 -10.167 -227.5 -30.5s-141.167 -49.166 -204.5 -86.499s-121 -82.166 -173 -134.499s-96.667 -110.166 -134 -173.499s-66.166 -131.333 -86.499 -204s-30.5 -148.334 -30.5 -227.001
s10.167 -154.5 30.5 -227.5s49.166 -141.167 86.499 -204.5s82 -121 134 -173s109.667 -96.667 173 -134s131.5 -66.166 204.5 -86.499s148.833 -30.5 227.5 -30.5z" />
    <glyph glyph-name="smileface" unicode="&#x263a;" 
d="M1424 1099c28.667 0 52.999 -10.667 72.999 -32s30 -51 30 -89v-44c0 -10 -0.666992 -19.333 -2 -28s-5 -16.667 -11 -24c-2 3.33301 -6.16699 6.33301 -12.5 9s-13.666 5 -21.999 7s-17.5 3.5 -27.5 4.5s-19.333 1.5 -28 1.5c-9.33301 0 -18.833 -0.5 -28.5 -1.5
s-19 -2.5 -28 -4.5s-16.833 -4.33301 -23.5 -7s-11 -5.66699 -13 -9c-6 8 -9.66699 17.167 -11 27.5s-2 21.5 -2 33.5v35c0 38 10.333 67.667 31 89s45.667 32 75 32zM617.999 1099c29.333 0 53.999 -10.666 73.999 -31.999s30 -51 30 -89v-42
c0 -10.667 -0.666992 -20.5 -2 -29.5s-5 -17.167 -11 -24.5c-2 3.33301 -6.16699 6.33301 -12.5 9s-13.833 5 -22.5 7s-18 3.5 -28 4.5s-19.333 1.5 -28 1.5s-18 -0.5 -28 -1.5s-19.167 -2.5 -27.5 -4.5s-15.666 -4.33301 -21.999 -7s-10.5 -5.66699 -12.5 -9
c-6.66699 8 -11 17.167 -13 27.5s-3 21.166 -3 32.499v36c0 38 10.5 67.667 31.5 89s45.833 32 74.5 32zM1507 620.001c13.333 -3.33301 24.001 -9.83008 32.001 -19.4971s12 -20.834 12 -33.501c0 -3.33301 -0.666992 -8.33301 -2 -15
c-14.667 -61.333 -38.5 -117.333 -71.5 -168s-72.833 -94.334 -119.5 -131.001s-98.5 -65 -155.5 -85s-116.833 -30 -179.5 -30c-63.333 0 -123.666 10.167 -180.999 30.5s-109.166 49 -155.499 86s-86 81.167 -119 132.5s-56.833 107.666 -71.5 168.999
c-0.666992 2 -1 4.16699 -1 6.5v6.5c0 13.333 4 25.166 12 35.499s18.667 16.833 32 19.5c5.33301 1.33301 9.66602 2 12.999 2c13.333 0 25.166 -4 35.499 -12s16.833 -18.667 19.5 -32c12 -48 31 -92.167 57 -132.5s57.333 -74.833 94 -103.5s77.667 -51 123 -67
s92.666 -24 141.999 -24s96.5 7.83301 141.5 23.5s85.833 37.834 122.5 66.501s68 62.667 94 102s45 83 57 131c3.33301 13.333 10.333 23.833 21 31.5s22.667 11.5 36 11.5c5.33301 0 9.33301 -0.333008 12 -1zM1021 1704c87.333 0 171.502 -11.3311 252.502 -33.998
s156.667 -54.667 227 -96s134.333 -90.833 192 -148.5s107.167 -121.667 148.5 -192s73.333 -146 96 -227s34 -165.167 34 -252.5c0 -128 -23.833 -249.5 -71.5 -364.5s-116.834 -217.833 -207.501 -308.5c-44.667 -44.667 -92.834 -84.167 -144.501 -118.5
s-106 -63.333 -163 -87s-116 -41.5 -177 -53.5s-123.167 -18 -186.5 -18c-87.333 0 -171.5 11.333 -252.5 34s-156.667 54.5 -227 95.5s-134.333 90.333 -192 148s-107.167 121.667 -148.5 192s-73.333 146.166 -96 227.499s-34 165.666 -34 252.999s11.333 171.5 34 252.5
s54.667 156.667 96 227s90.833 134.333 148.5 192s121.667 107.167 192 148.5s146 73.333 227 96s165.167 34 252.5 34zM1021 -101.994c78.667 0 154.5 10.167 227.5 30.5s141.167 49.166 204.5 86.499s121 82 173 134s96.667 109.667 134 173s66.166 131.5 86.499 204.5
s30.5 148.833 30.5 227.5s-10.167 154.334 -30.5 227.001s-49.166 140.667 -86.499 204s-82 121.166 -134 173.499s-109.667 97.166 -173 134.499s-131.5 66.166 -204.5 86.499s-148.833 30.5 -227.5 30.5s-154.5 -10.167 -227.5 -30.5s-141.167 -49.166 -204.5 -86.499
s-121 -82.166 -173 -134.499s-96.667 -110.166 -134 -173.499s-66.166 -131.333 -86.499 -204s-30.5 -148.334 -30.5 -227.001s10.167 -154.5 30.5 -227.5s49.166 -141.167 86.499 -204.5s82 -121 134 -173s109.667 -96.667 173 -134s131.5 -66.166 204.5 -86.499
s148.833 -30.5 227.5 -30.5z" />
    <glyph glyph-name="invsmileface" unicode="&#x263b;" 
d="M1424 1099c-29.333 0 -54.332 -10.667 -74.999 -32s-31 -51 -31 -89v-35c0 -12 0.666992 -23.167 2 -33.5s5 -19.5 11 -27.5c2 3.33301 6.33301 6.33301 13 9s14.5 5 23.5 7s18.333 3.5 28 4.5s19.167 1.5 28.5 1.5c8.66699 0 18 -0.5 28 -1.5s19.167 -2.5 27.5 -4.5
s15.666 -4.33301 21.999 -7s10.5 -5.66699 12.5 -9c6 7.33301 9.66699 15.333 11 24s2 18 2 28v44c0 38 -10 67.667 -30 89s-44.333 32 -73 32zM618.001 1099c-28.667 0 -53.499 -10.668 -74.499 -32.001s-31.5 -51 -31.5 -89v-36c0 -11.333 1 -22.166 3 -32.499
s6.33301 -19.5 13 -27.5c2 3.33301 6.16699 6.33301 12.5 9s13.666 5 21.999 7s17.5 3.5 27.5 4.5s19.333 1.5 28 1.5s18 -0.5 28 -1.5s19.333 -2.5 28 -4.5s16.167 -4.33301 22.5 -7s10.5 -5.66699 12.5 -9c6 7.33301 9.66699 15.5 11 24.5s2 18.833 2 29.5v42
c0 38 -10 67.667 -30 89s-44.667 32 -74 32zM1507 619.999c-2.66699 0.666992 -6.66797 0.99707 -12.001 0.99707c-13.333 0 -25.333 -3.83301 -36 -11.5s-17.667 -18.167 -21 -31.5c-12 -48 -31 -91.667 -57 -131s-57.333 -73.333 -94 -102s-77.5 -50.834 -122.5 -66.501
s-92.167 -23.5 -141.5 -23.5s-96.666 8 -141.999 24s-86.333 38.333 -123 67s-68 63.167 -94 103.5s-45 84.5 -57 132.5c-2.66699 13.333 -9.16699 24 -19.5 32s-22.166 12 -35.499 12c-3.33301 0 -7.66602 -0.666992 -12.999 -2c-13.333 -2.66699 -24 -9.16699 -32 -19.5
s-12 -22.166 -12 -35.499v-6.5c0 -2.33301 0.333008 -4.5 1 -6.5c14.667 -61.333 38.5 -117.666 71.5 -168.999s72.667 -95.5 119 -132.5s98.166 -65.667 155.499 -86s117.666 -30.5 180.999 -30.5c62.667 0 122.5 10 179.5 30s108.833 48.333 155.5 85
s86.5 80.334 119.5 131.001s56.833 106.667 71.5 168c1.33301 6.66699 2 11.667 2 15c0 12.667 -4 23.834 -12 33.501s-18.667 16.167 -32 19.5zM1021 -102.004c-78.667 0 -154.5 10.167 -227.5 30.5s-141.167 49.166 -204.5 86.499s-121 82 -173 134
s-96.667 109.667 -134 173s-66.166 131.5 -86.499 204.5s-30.5 148.833 -30.5 227.5s10.167 154.334 30.5 227.001s49.166 140.667 86.499 204s82 121.166 134 173.499s109.667 97.166 173 134.499s131.5 66.166 204.5 86.499s148.833 30.5 227.5 30.5
s154.5 -10.167 227.5 -30.5s141.167 -49.166 204.5 -86.499s121 -82.166 173 -134.499s96.667 -110.166 134 -173.499s66.166 -131.333 86.499 -204s30.5 -148.334 30.5 -227.001s-10.167 -154.5 -30.5 -227.5s-49.166 -141.167 -86.499 -204.5s-82 -121 -134 -173
s-109.667 -96.667 -173 -134s-131.5 -66.166 -204.5 -86.499s-148.833 -30.5 -227.5 -30.5z" />
    <glyph glyph-name="uni263F" unicode="&#x263f;" horiz-adv-x="1128" 
d="M264 1464c0 -48 7.66602 -92.333 22.999 -133s36.5 -76 63.5 -106s58.667 -53.333 95 -70s75.5 -25 117.5 -25s81.167 8.33301 117.5 25s68.166 40 95.499 70s48.833 65.333 64.5 106s23.5 85 23.5 133h200c0 -46 -5 -90 -15 -132s-24.333 -81.167 -43 -117.5
s-40.834 -69.666 -66.501 -99.999s-54.167 -56.5 -85.5 -78.5c31.333 -22 59.833 -47.5 85.5 -76.5s47.834 -60.5 66.501 -94.5s33 -70.167 43 -108.5s15 -77.833 15 -118.5c0 -60 -10.333 -116.833 -31 -170.5s-49 -101.834 -85 -144.501s-78.5 -78.667 -127.5 -108
s-101.833 -49.333 -158.5 -60v-126h223v-194h-223v-223h-193v223h-224v194h224v125c-57.333 10.667 -110.666 30.667 -159.999 60s-92.166 65.333 -128.499 108s-64.833 91 -85.5 145s-31 111 -31 171c0 40.667 5 80.167 15 118.5s24 74.5 42 108.5s39.833 65.5 65.5 94.5
s54.167 54.5 85.5 76.5c-63.333 46 -113.833 106 -151.5 180s-56.5 156.667 -56.5 248h200zM263.999 638c0 -44 7.66699 -84.5 23 -121.5s36.5 -69 63.5 -96s58.667 -48.167 95 -63.5s75.5 -23 117.5 -23s81.167 7.66699 117.5 23s68.166 36.5 95.499 63.5
s48.833 59 64.5 96s23.5 77.5 23.5 121.5s-7.83301 84.5 -23.5 121.5s-37.167 69 -64.5 96s-59.166 48.167 -95.499 63.5s-75.5 23 -117.5 23s-81.167 -7.66699 -117.5 -23s-68 -36.5 -95 -63.5s-48.167 -59 -63.5 -96s-23 -77.5 -23 -121.5z" />
    <glyph glyph-name="female" unicode="&#x2640;" horiz-adv-x="1128" 
d="M885 193l-223.003 0.000976562v-223h-193v223h-224v194h224v125c-57.333 10.667 -110.666 30.667 -159.999 60s-92.166 65.333 -128.499 108s-64.833 91 -85.5 145s-31 111 -31 171c0 67.333 13.333 130.833 40 190.5s62.667 111.834 108 156.501s98.333 80 159 106
s124.667 39 192 39s131.333 -13 192 -39s113.834 -61.333 159.501 -106s82 -96.834 109 -156.501s40.5 -123.167 40.5 -190.5c0 -60 -10.333 -116.833 -31 -170.5s-49 -101.834 -85 -144.501s-78.5 -78.667 -127.5 -108s-101.833 -49.333 -158.5 -60v-126h223v-194z
M263.997 996.001c0 -44 7.66699 -84.5 23 -121.5s36.5 -69 63.5 -96s58.667 -48.167 95 -63.5s75.5 -23 117.5 -23s81.167 7.66699 117.5 23s68.166 36.5 95.499 63.5s48.833 59 64.5 96s23.5 77.5 23.5 121.5s-7.83301 84.5 -23.5 121.5s-37.167 69 -64.5 96
s-59.166 48.167 -95.499 63.5s-75.5 23 -117.5 23s-81.167 -7.66699 -117.5 -23s-68 -36.5 -95 -63.5s-48.167 -59 -63.5 -96s-23 -77.5 -23 -121.5z" />
    <glyph glyph-name="uni2641" unicode="&#x2641;" horiz-adv-x="1128" 
d="M885 1047l-222.997 -0.00195312v-127c56.667 -11.333 109.5 -31.833 158.5 -61.5s91.5 -65.667 127.5 -108s64.333 -90.166 85 -143.499s31 -109.666 31 -168.999c0 -67.333 -13.5 -130.833 -40.5 -190.5s-63.333 -111.834 -109 -156.501s-98.834 -80 -159.501 -106
s-124.667 -39 -192 -39s-131.333 13 -192 39s-113.667 61.333 -159 106s-81.333 96.834 -108 156.501s-40 123.167 -40 190.5c0 60 10.333 117 31 171s49.167 102.333 85.5 145s79.166 78.5 128.499 107.5s102.666 48.833 159.999 59.5v126h-224v194h224v223h193v-223h223
v-194zM264.003 437.998c0 -44 7.66699 -84.5 23 -121.5s36.5 -69 63.5 -96s58.667 -48.167 95 -63.5s75.5 -23 117.5 -23s81.167 7.66699 117.5 23s68.166 36.5 95.499 63.5s48.833 59 64.5 96s23.5 77.5 23.5 121.5s-7.83301 84.5 -23.5 121.5s-37.167 69 -64.5 96
s-59.166 48.167 -95.499 63.5s-75.5 23 -117.5 23s-81.167 -7.66699 -117.5 -23s-68 -36.5 -95 -63.5s-48.167 -59 -63.5 -96s-23 -77.5 -23 -121.5z" />
    </font>
</defs>
</svg>
